%TF.GenerationSoftware,KiCad,Pcbnew,10.0.6*%
%TF.CreationDate,2026-09-20T18:33:50-04:00*%
%TF.ProjectId,esp32-4to20ma-board,65737033-322d-4347-946f-32306d612d62,rev?*%
%TF.SameCoordinates,Original*%
%TF.FileFunction,Drillmap*%
%TF.FilePolarity,Positive*%
%FSLAX45Y45*%
G04 Gerber Fmt 4.5, Leading zero omitted, Abs format (unit mm)*
G04 Created by KiCad (PCBNEW 10.0.6) date 2026-09-20 18:33:50*
%MOMM*%
%LPD*%
G01*
G04 APERTURE LIST*
%ADD10C,0.100000*%
%ADD11C,0.200000*%
%ADD12C,0.220000*%
G04 APERTURE END LIST*
D10*
X0Y-100000D02*
G75*
G02*
X100000Y0I100000J0D01*
G01*
X0Y-6000000D02*
X0Y-100000D01*
X100000Y0D02*
X3900000Y0D01*
X100000Y-6100000D02*
G75*
G02*
X0Y-6000000I0J100000D01*
G01*
X3900000Y0D02*
G75*
G02*
X4000000Y-100000I0J-100000D01*
G01*
X3900000Y-6100000D02*
X100000Y-6100000D01*
X4000000Y-100000D02*
X4000000Y-6000000D01*
X4000000Y-6000000D02*
G75*
G02*
X3900000Y-6100000I-100000J0D01*
G01*
D11*
D10*
X826000Y-5432000D02*
X896000Y-5502000D01*
X896000Y-5432000D02*
X826000Y-5502000D01*
X1404000Y-5432000D02*
X1474000Y-5502000D01*
X1474000Y-5432000D02*
X1404000Y-5502000D01*
D12*
X460000Y-1680000D02*
G75*
G02*
X240000Y-1680000I-110000J0D01*
G01*
X240000Y-1680000D02*
G75*
G02*
X460000Y-1680000I110000J0D01*
G01*
X460000Y-5750000D02*
G75*
G02*
X240000Y-5750000I-110000J0D01*
G01*
X240000Y-5750000D02*
G75*
G02*
X460000Y-5750000I110000J0D01*
G01*
X3760000Y-1680000D02*
G75*
G02*
X3540000Y-1680000I-110000J0D01*
G01*
X3540000Y-1680000D02*
G75*
G02*
X3760000Y-1680000I110000J0D01*
G01*
X3760000Y-5750000D02*
G75*
G02*
X3540000Y-5750000I-110000J0D01*
G01*
X3540000Y-5750000D02*
G75*
G02*
X3760000Y-5750000I110000J0D01*
G01*
D11*
X255777Y-6416484D02*
X255777Y-6216484D01*
X255777Y-6216484D02*
X303396Y-6216484D01*
X303396Y-6216484D02*
X331967Y-6226008D01*
X331967Y-6226008D02*
X351015Y-6245055D01*
X351015Y-6245055D02*
X360539Y-6264103D01*
X360539Y-6264103D02*
X370062Y-6302198D01*
X370062Y-6302198D02*
X370062Y-6330769D01*
X370062Y-6330769D02*
X360539Y-6368865D01*
X360539Y-6368865D02*
X351015Y-6387912D01*
X351015Y-6387912D02*
X331967Y-6406960D01*
X331967Y-6406960D02*
X303396Y-6416484D01*
X303396Y-6416484D02*
X255777Y-6416484D01*
X455777Y-6416484D02*
X455777Y-6283150D01*
X455777Y-6321246D02*
X465301Y-6302198D01*
X465301Y-6302198D02*
X474824Y-6292674D01*
X474824Y-6292674D02*
X493872Y-6283150D01*
X493872Y-6283150D02*
X512920Y-6283150D01*
X579586Y-6416484D02*
X579586Y-6283150D01*
X579586Y-6216484D02*
X570063Y-6226008D01*
X570063Y-6226008D02*
X579586Y-6235531D01*
X579586Y-6235531D02*
X589110Y-6226008D01*
X589110Y-6226008D02*
X579586Y-6216484D01*
X579586Y-6216484D02*
X579586Y-6235531D01*
X703396Y-6416484D02*
X684348Y-6406960D01*
X684348Y-6406960D02*
X674824Y-6387912D01*
X674824Y-6387912D02*
X674824Y-6216484D01*
X808158Y-6416484D02*
X789110Y-6406960D01*
X789110Y-6406960D02*
X779586Y-6387912D01*
X779586Y-6387912D02*
X779586Y-6216484D01*
X1036729Y-6416484D02*
X1036729Y-6216484D01*
X1036729Y-6216484D02*
X1103396Y-6359341D01*
X1103396Y-6359341D02*
X1170063Y-6216484D01*
X1170063Y-6216484D02*
X1170063Y-6416484D01*
X1351015Y-6416484D02*
X1351015Y-6311722D01*
X1351015Y-6311722D02*
X1341491Y-6292674D01*
X1341491Y-6292674D02*
X1322444Y-6283150D01*
X1322444Y-6283150D02*
X1284348Y-6283150D01*
X1284348Y-6283150D02*
X1265301Y-6292674D01*
X1351015Y-6406960D02*
X1331967Y-6416484D01*
X1331967Y-6416484D02*
X1284348Y-6416484D01*
X1284348Y-6416484D02*
X1265301Y-6406960D01*
X1265301Y-6406960D02*
X1255777Y-6387912D01*
X1255777Y-6387912D02*
X1255777Y-6368865D01*
X1255777Y-6368865D02*
X1265301Y-6349817D01*
X1265301Y-6349817D02*
X1284348Y-6340293D01*
X1284348Y-6340293D02*
X1331967Y-6340293D01*
X1331967Y-6340293D02*
X1351015Y-6330769D01*
X1446253Y-6283150D02*
X1446253Y-6483150D01*
X1446253Y-6292674D02*
X1465301Y-6283150D01*
X1465301Y-6283150D02*
X1503396Y-6283150D01*
X1503396Y-6283150D02*
X1522443Y-6292674D01*
X1522443Y-6292674D02*
X1531967Y-6302198D01*
X1531967Y-6302198D02*
X1541491Y-6321246D01*
X1541491Y-6321246D02*
X1541491Y-6378388D01*
X1541491Y-6378388D02*
X1531967Y-6397436D01*
X1531967Y-6397436D02*
X1522443Y-6406960D01*
X1522443Y-6406960D02*
X1503396Y-6416484D01*
X1503396Y-6416484D02*
X1465301Y-6416484D01*
X1465301Y-6416484D02*
X1446253Y-6406960D01*
X1627205Y-6397436D02*
X1636729Y-6406960D01*
X1636729Y-6406960D02*
X1627205Y-6416484D01*
X1627205Y-6416484D02*
X1617682Y-6406960D01*
X1617682Y-6406960D02*
X1627205Y-6397436D01*
X1627205Y-6397436D02*
X1627205Y-6416484D01*
X1627205Y-6292674D02*
X1636729Y-6302198D01*
X1636729Y-6302198D02*
X1627205Y-6311722D01*
X1627205Y-6311722D02*
X1617682Y-6302198D01*
X1617682Y-6302198D02*
X1627205Y-6292674D01*
X1627205Y-6292674D02*
X1627205Y-6311722D01*
D10*
X-75000Y-6710000D02*
X-5000Y-6780000D01*
X-5000Y-6710000D02*
X-75000Y-6780000D01*
D11*
X293872Y-6636484D02*
X312920Y-6636484D01*
X312920Y-6636484D02*
X331967Y-6646008D01*
X331967Y-6646008D02*
X341491Y-6655531D01*
X341491Y-6655531D02*
X351015Y-6674579D01*
X351015Y-6674579D02*
X360539Y-6712674D01*
X360539Y-6712674D02*
X360539Y-6760293D01*
X360539Y-6760293D02*
X351015Y-6798388D01*
X351015Y-6798388D02*
X341491Y-6817436D01*
X341491Y-6817436D02*
X331967Y-6826960D01*
X331967Y-6826960D02*
X312920Y-6836484D01*
X312920Y-6836484D02*
X293872Y-6836484D01*
X293872Y-6836484D02*
X274824Y-6826960D01*
X274824Y-6826960D02*
X265301Y-6817436D01*
X265301Y-6817436D02*
X255777Y-6798388D01*
X255777Y-6798388D02*
X246253Y-6760293D01*
X246253Y-6760293D02*
X246253Y-6712674D01*
X246253Y-6712674D02*
X255777Y-6674579D01*
X255777Y-6674579D02*
X265301Y-6655531D01*
X265301Y-6655531D02*
X274824Y-6646008D01*
X274824Y-6646008D02*
X293872Y-6636484D01*
X446253Y-6817436D02*
X455777Y-6826960D01*
X455777Y-6826960D02*
X446253Y-6836484D01*
X446253Y-6836484D02*
X436729Y-6826960D01*
X436729Y-6826960D02*
X446253Y-6817436D01*
X446253Y-6817436D02*
X446253Y-6836484D01*
X522443Y-6636484D02*
X655777Y-6636484D01*
X655777Y-6636484D02*
X570063Y-6836484D01*
X770062Y-6636484D02*
X789110Y-6636484D01*
X789110Y-6636484D02*
X808158Y-6646008D01*
X808158Y-6646008D02*
X817682Y-6655531D01*
X817682Y-6655531D02*
X827205Y-6674579D01*
X827205Y-6674579D02*
X836729Y-6712674D01*
X836729Y-6712674D02*
X836729Y-6760293D01*
X836729Y-6760293D02*
X827205Y-6798388D01*
X827205Y-6798388D02*
X817682Y-6817436D01*
X817682Y-6817436D02*
X808158Y-6826960D01*
X808158Y-6826960D02*
X789110Y-6836484D01*
X789110Y-6836484D02*
X770062Y-6836484D01*
X770062Y-6836484D02*
X751015Y-6826960D01*
X751015Y-6826960D02*
X741491Y-6817436D01*
X741491Y-6817436D02*
X731967Y-6798388D01*
X731967Y-6798388D02*
X722443Y-6760293D01*
X722443Y-6760293D02*
X722443Y-6712674D01*
X722443Y-6712674D02*
X731967Y-6674579D01*
X731967Y-6674579D02*
X741491Y-6655531D01*
X741491Y-6655531D02*
X751015Y-6646008D01*
X751015Y-6646008D02*
X770062Y-6636484D01*
X960539Y-6636484D02*
X979586Y-6636484D01*
X979586Y-6636484D02*
X998634Y-6646008D01*
X998634Y-6646008D02*
X1008158Y-6655531D01*
X1008158Y-6655531D02*
X1017682Y-6674579D01*
X1017682Y-6674579D02*
X1027205Y-6712674D01*
X1027205Y-6712674D02*
X1027205Y-6760293D01*
X1027205Y-6760293D02*
X1017682Y-6798388D01*
X1017682Y-6798388D02*
X1008158Y-6817436D01*
X1008158Y-6817436D02*
X998634Y-6826960D01*
X998634Y-6826960D02*
X979586Y-6836484D01*
X979586Y-6836484D02*
X960539Y-6836484D01*
X960539Y-6836484D02*
X941491Y-6826960D01*
X941491Y-6826960D02*
X931967Y-6817436D01*
X931967Y-6817436D02*
X922443Y-6798388D01*
X922443Y-6798388D02*
X912920Y-6760293D01*
X912920Y-6760293D02*
X912920Y-6712674D01*
X912920Y-6712674D02*
X922443Y-6674579D01*
X922443Y-6674579D02*
X931967Y-6655531D01*
X931967Y-6655531D02*
X941491Y-6646008D01*
X941491Y-6646008D02*
X960539Y-6636484D01*
X1112920Y-6836484D02*
X1112920Y-6703150D01*
X1112920Y-6722198D02*
X1122444Y-6712674D01*
X1122444Y-6712674D02*
X1141491Y-6703150D01*
X1141491Y-6703150D02*
X1170063Y-6703150D01*
X1170063Y-6703150D02*
X1189110Y-6712674D01*
X1189110Y-6712674D02*
X1198634Y-6731722D01*
X1198634Y-6731722D02*
X1198634Y-6836484D01*
X1198634Y-6731722D02*
X1208158Y-6712674D01*
X1208158Y-6712674D02*
X1227205Y-6703150D01*
X1227205Y-6703150D02*
X1255777Y-6703150D01*
X1255777Y-6703150D02*
X1274825Y-6712674D01*
X1274825Y-6712674D02*
X1284348Y-6731722D01*
X1284348Y-6731722D02*
X1284348Y-6836484D01*
X1379586Y-6836484D02*
X1379586Y-6703150D01*
X1379586Y-6722198D02*
X1389110Y-6712674D01*
X1389110Y-6712674D02*
X1408158Y-6703150D01*
X1408158Y-6703150D02*
X1436729Y-6703150D01*
X1436729Y-6703150D02*
X1455777Y-6712674D01*
X1455777Y-6712674D02*
X1465301Y-6731722D01*
X1465301Y-6731722D02*
X1465301Y-6836484D01*
X1465301Y-6731722D02*
X1474824Y-6712674D01*
X1474824Y-6712674D02*
X1493872Y-6703150D01*
X1493872Y-6703150D02*
X1522443Y-6703150D01*
X1522443Y-6703150D02*
X1541491Y-6712674D01*
X1541491Y-6712674D02*
X1551015Y-6731722D01*
X1551015Y-6731722D02*
X1551015Y-6836484D01*
X1941491Y-6626960D02*
X1770063Y-6884103D01*
X2198634Y-6636484D02*
X2217682Y-6636484D01*
X2217682Y-6636484D02*
X2236729Y-6646008D01*
X2236729Y-6646008D02*
X2246253Y-6655531D01*
X2246253Y-6655531D02*
X2255777Y-6674579D01*
X2255777Y-6674579D02*
X2265301Y-6712674D01*
X2265301Y-6712674D02*
X2265301Y-6760293D01*
X2265301Y-6760293D02*
X2255777Y-6798388D01*
X2255777Y-6798388D02*
X2246253Y-6817436D01*
X2246253Y-6817436D02*
X2236729Y-6826960D01*
X2236729Y-6826960D02*
X2217682Y-6836484D01*
X2217682Y-6836484D02*
X2198634Y-6836484D01*
X2198634Y-6836484D02*
X2179587Y-6826960D01*
X2179587Y-6826960D02*
X2170063Y-6817436D01*
X2170063Y-6817436D02*
X2160539Y-6798388D01*
X2160539Y-6798388D02*
X2151015Y-6760293D01*
X2151015Y-6760293D02*
X2151015Y-6712674D01*
X2151015Y-6712674D02*
X2160539Y-6674579D01*
X2160539Y-6674579D02*
X2170063Y-6655531D01*
X2170063Y-6655531D02*
X2179587Y-6646008D01*
X2179587Y-6646008D02*
X2198634Y-6636484D01*
X2351015Y-6817436D02*
X2360539Y-6826960D01*
X2360539Y-6826960D02*
X2351015Y-6836484D01*
X2351015Y-6836484D02*
X2341491Y-6826960D01*
X2341491Y-6826960D02*
X2351015Y-6817436D01*
X2351015Y-6817436D02*
X2351015Y-6836484D01*
X2484348Y-6636484D02*
X2503396Y-6636484D01*
X2503396Y-6636484D02*
X2522444Y-6646008D01*
X2522444Y-6646008D02*
X2531968Y-6655531D01*
X2531968Y-6655531D02*
X2541491Y-6674579D01*
X2541491Y-6674579D02*
X2551015Y-6712674D01*
X2551015Y-6712674D02*
X2551015Y-6760293D01*
X2551015Y-6760293D02*
X2541491Y-6798388D01*
X2541491Y-6798388D02*
X2531968Y-6817436D01*
X2531968Y-6817436D02*
X2522444Y-6826960D01*
X2522444Y-6826960D02*
X2503396Y-6836484D01*
X2503396Y-6836484D02*
X2484348Y-6836484D01*
X2484348Y-6836484D02*
X2465301Y-6826960D01*
X2465301Y-6826960D02*
X2455777Y-6817436D01*
X2455777Y-6817436D02*
X2446253Y-6798388D01*
X2446253Y-6798388D02*
X2436729Y-6760293D01*
X2436729Y-6760293D02*
X2436729Y-6712674D01*
X2436729Y-6712674D02*
X2446253Y-6674579D01*
X2446253Y-6674579D02*
X2455777Y-6655531D01*
X2455777Y-6655531D02*
X2465301Y-6646008D01*
X2465301Y-6646008D02*
X2484348Y-6636484D01*
X2627206Y-6655531D02*
X2636729Y-6646008D01*
X2636729Y-6646008D02*
X2655777Y-6636484D01*
X2655777Y-6636484D02*
X2703396Y-6636484D01*
X2703396Y-6636484D02*
X2722444Y-6646008D01*
X2722444Y-6646008D02*
X2731968Y-6655531D01*
X2731968Y-6655531D02*
X2741491Y-6674579D01*
X2741491Y-6674579D02*
X2741491Y-6693627D01*
X2741491Y-6693627D02*
X2731968Y-6722198D01*
X2731968Y-6722198D02*
X2617682Y-6836484D01*
X2617682Y-6836484D02*
X2741491Y-6836484D01*
X2808158Y-6636484D02*
X2941491Y-6636484D01*
X2941491Y-6636484D02*
X2855777Y-6836484D01*
X3103396Y-6636484D02*
X3065301Y-6636484D01*
X3065301Y-6636484D02*
X3046253Y-6646008D01*
X3046253Y-6646008D02*
X3036729Y-6655531D01*
X3036729Y-6655531D02*
X3017682Y-6684103D01*
X3017682Y-6684103D02*
X3008158Y-6722198D01*
X3008158Y-6722198D02*
X3008158Y-6798388D01*
X3008158Y-6798388D02*
X3017682Y-6817436D01*
X3017682Y-6817436D02*
X3027206Y-6826960D01*
X3027206Y-6826960D02*
X3046253Y-6836484D01*
X3046253Y-6836484D02*
X3084348Y-6836484D01*
X3084348Y-6836484D02*
X3103396Y-6826960D01*
X3103396Y-6826960D02*
X3112920Y-6817436D01*
X3112920Y-6817436D02*
X3122444Y-6798388D01*
X3122444Y-6798388D02*
X3122444Y-6750769D01*
X3122444Y-6750769D02*
X3112920Y-6731722D01*
X3112920Y-6731722D02*
X3103396Y-6722198D01*
X3103396Y-6722198D02*
X3084348Y-6712674D01*
X3084348Y-6712674D02*
X3046253Y-6712674D01*
X3046253Y-6712674D02*
X3027206Y-6722198D01*
X3027206Y-6722198D02*
X3017682Y-6731722D01*
X3017682Y-6731722D02*
X3008158Y-6750769D01*
X3198634Y-6636484D02*
X3198634Y-6674579D01*
X3274825Y-6636484D02*
X3274825Y-6674579D01*
X3570063Y-6912674D02*
X3560539Y-6903150D01*
X3560539Y-6903150D02*
X3541491Y-6874579D01*
X3541491Y-6874579D02*
X3531968Y-6855531D01*
X3531968Y-6855531D02*
X3522444Y-6826960D01*
X3522444Y-6826960D02*
X3512920Y-6779341D01*
X3512920Y-6779341D02*
X3512920Y-6741246D01*
X3512920Y-6741246D02*
X3522444Y-6693627D01*
X3522444Y-6693627D02*
X3531968Y-6665055D01*
X3531968Y-6665055D02*
X3541491Y-6646008D01*
X3541491Y-6646008D02*
X3560539Y-6617436D01*
X3560539Y-6617436D02*
X3570063Y-6607912D01*
X3636729Y-6655531D02*
X3646253Y-6646008D01*
X3646253Y-6646008D02*
X3665301Y-6636484D01*
X3665301Y-6636484D02*
X3712920Y-6636484D01*
X3712920Y-6636484D02*
X3731968Y-6646008D01*
X3731968Y-6646008D02*
X3741491Y-6655531D01*
X3741491Y-6655531D02*
X3751015Y-6674579D01*
X3751015Y-6674579D02*
X3751015Y-6693627D01*
X3751015Y-6693627D02*
X3741491Y-6722198D01*
X3741491Y-6722198D02*
X3627206Y-6836484D01*
X3627206Y-6836484D02*
X3751015Y-6836484D01*
X3989110Y-6836484D02*
X3989110Y-6636484D01*
X4074825Y-6836484D02*
X4074825Y-6731722D01*
X4074825Y-6731722D02*
X4065301Y-6712674D01*
X4065301Y-6712674D02*
X4046253Y-6703150D01*
X4046253Y-6703150D02*
X4017682Y-6703150D01*
X4017682Y-6703150D02*
X3998634Y-6712674D01*
X3998634Y-6712674D02*
X3989110Y-6722198D01*
X4198634Y-6836484D02*
X4179587Y-6826960D01*
X4179587Y-6826960D02*
X4170063Y-6817436D01*
X4170063Y-6817436D02*
X4160539Y-6798388D01*
X4160539Y-6798388D02*
X4160539Y-6741246D01*
X4160539Y-6741246D02*
X4170063Y-6722198D01*
X4170063Y-6722198D02*
X4179587Y-6712674D01*
X4179587Y-6712674D02*
X4198634Y-6703150D01*
X4198634Y-6703150D02*
X4227206Y-6703150D01*
X4227206Y-6703150D02*
X4246253Y-6712674D01*
X4246253Y-6712674D02*
X4255777Y-6722198D01*
X4255777Y-6722198D02*
X4265301Y-6741246D01*
X4265301Y-6741246D02*
X4265301Y-6798388D01*
X4265301Y-6798388D02*
X4255777Y-6817436D01*
X4255777Y-6817436D02*
X4246253Y-6826960D01*
X4246253Y-6826960D02*
X4227206Y-6836484D01*
X4227206Y-6836484D02*
X4198634Y-6836484D01*
X4379587Y-6836484D02*
X4360539Y-6826960D01*
X4360539Y-6826960D02*
X4351015Y-6807912D01*
X4351015Y-6807912D02*
X4351015Y-6636484D01*
X4531968Y-6826960D02*
X4512920Y-6836484D01*
X4512920Y-6836484D02*
X4474825Y-6836484D01*
X4474825Y-6836484D02*
X4455777Y-6826960D01*
X4455777Y-6826960D02*
X4446253Y-6807912D01*
X4446253Y-6807912D02*
X4446253Y-6731722D01*
X4446253Y-6731722D02*
X4455777Y-6712674D01*
X4455777Y-6712674D02*
X4474825Y-6703150D01*
X4474825Y-6703150D02*
X4512920Y-6703150D01*
X4512920Y-6703150D02*
X4531968Y-6712674D01*
X4531968Y-6712674D02*
X4541492Y-6731722D01*
X4541492Y-6731722D02*
X4541492Y-6750769D01*
X4541492Y-6750769D02*
X4446253Y-6769817D01*
X4617682Y-6826960D02*
X4636730Y-6836484D01*
X4636730Y-6836484D02*
X4674825Y-6836484D01*
X4674825Y-6836484D02*
X4693873Y-6826960D01*
X4693873Y-6826960D02*
X4703396Y-6807912D01*
X4703396Y-6807912D02*
X4703396Y-6798388D01*
X4703396Y-6798388D02*
X4693873Y-6779341D01*
X4693873Y-6779341D02*
X4674825Y-6769817D01*
X4674825Y-6769817D02*
X4646253Y-6769817D01*
X4646253Y-6769817D02*
X4627206Y-6760293D01*
X4627206Y-6760293D02*
X4617682Y-6741246D01*
X4617682Y-6741246D02*
X4617682Y-6731722D01*
X4617682Y-6731722D02*
X4627206Y-6712674D01*
X4627206Y-6712674D02*
X4646253Y-6703150D01*
X4646253Y-6703150D02*
X4674825Y-6703150D01*
X4674825Y-6703150D02*
X4693873Y-6712674D01*
X4770063Y-6912674D02*
X4779587Y-6903150D01*
X4779587Y-6903150D02*
X4798634Y-6874579D01*
X4798634Y-6874579D02*
X4808158Y-6855531D01*
X4808158Y-6855531D02*
X4817682Y-6826960D01*
X4817682Y-6826960D02*
X4827206Y-6779341D01*
X4827206Y-6779341D02*
X4827206Y-6741246D01*
X4827206Y-6741246D02*
X4817682Y-6693627D01*
X4817682Y-6693627D02*
X4808158Y-6665055D01*
X4808158Y-6665055D02*
X4798634Y-6646008D01*
X4798634Y-6646008D02*
X4779587Y-6617436D01*
X4779587Y-6617436D02*
X4770063Y-6607912D01*
X5131968Y-6912674D02*
X5122444Y-6903150D01*
X5122444Y-6903150D02*
X5103396Y-6874579D01*
X5103396Y-6874579D02*
X5093873Y-6855531D01*
X5093873Y-6855531D02*
X5084349Y-6826960D01*
X5084349Y-6826960D02*
X5074825Y-6779341D01*
X5074825Y-6779341D02*
X5074825Y-6741246D01*
X5074825Y-6741246D02*
X5084349Y-6693627D01*
X5084349Y-6693627D02*
X5093873Y-6665055D01*
X5093873Y-6665055D02*
X5103396Y-6646008D01*
X5103396Y-6646008D02*
X5122444Y-6617436D01*
X5122444Y-6617436D02*
X5131968Y-6607912D01*
X5208158Y-6703150D02*
X5208158Y-6836484D01*
X5208158Y-6722198D02*
X5217682Y-6712674D01*
X5217682Y-6712674D02*
X5236730Y-6703150D01*
X5236730Y-6703150D02*
X5265301Y-6703150D01*
X5265301Y-6703150D02*
X5284349Y-6712674D01*
X5284349Y-6712674D02*
X5293873Y-6731722D01*
X5293873Y-6731722D02*
X5293873Y-6836484D01*
X5417682Y-6836484D02*
X5398634Y-6826960D01*
X5398634Y-6826960D02*
X5389111Y-6817436D01*
X5389111Y-6817436D02*
X5379587Y-6798388D01*
X5379587Y-6798388D02*
X5379587Y-6741246D01*
X5379587Y-6741246D02*
X5389111Y-6722198D01*
X5389111Y-6722198D02*
X5398634Y-6712674D01*
X5398634Y-6712674D02*
X5417682Y-6703150D01*
X5417682Y-6703150D02*
X5446254Y-6703150D01*
X5446254Y-6703150D02*
X5465301Y-6712674D01*
X5465301Y-6712674D02*
X5474825Y-6722198D01*
X5474825Y-6722198D02*
X5484349Y-6741246D01*
X5484349Y-6741246D02*
X5484349Y-6798388D01*
X5484349Y-6798388D02*
X5474825Y-6817436D01*
X5474825Y-6817436D02*
X5465301Y-6826960D01*
X5465301Y-6826960D02*
X5446254Y-6836484D01*
X5446254Y-6836484D02*
X5417682Y-6836484D01*
X5541492Y-6703150D02*
X5617682Y-6703150D01*
X5570063Y-6636484D02*
X5570063Y-6807912D01*
X5570063Y-6807912D02*
X5579587Y-6826960D01*
X5579587Y-6826960D02*
X5598634Y-6836484D01*
X5598634Y-6836484D02*
X5617682Y-6836484D01*
X5836730Y-6703150D02*
X5836730Y-6903150D01*
X5836730Y-6712674D02*
X5855777Y-6703150D01*
X5855777Y-6703150D02*
X5893873Y-6703150D01*
X5893873Y-6703150D02*
X5912920Y-6712674D01*
X5912920Y-6712674D02*
X5922444Y-6722198D01*
X5922444Y-6722198D02*
X5931968Y-6741246D01*
X5931968Y-6741246D02*
X5931968Y-6798388D01*
X5931968Y-6798388D02*
X5922444Y-6817436D01*
X5922444Y-6817436D02*
X5912920Y-6826960D01*
X5912920Y-6826960D02*
X5893873Y-6836484D01*
X5893873Y-6836484D02*
X5855777Y-6836484D01*
X5855777Y-6836484D02*
X5836730Y-6826960D01*
X6046253Y-6836484D02*
X6027206Y-6826960D01*
X6027206Y-6826960D02*
X6017682Y-6807912D01*
X6017682Y-6807912D02*
X6017682Y-6636484D01*
X6208158Y-6836484D02*
X6208158Y-6731722D01*
X6208158Y-6731722D02*
X6198634Y-6712674D01*
X6198634Y-6712674D02*
X6179587Y-6703150D01*
X6179587Y-6703150D02*
X6141492Y-6703150D01*
X6141492Y-6703150D02*
X6122444Y-6712674D01*
X6208158Y-6826960D02*
X6189111Y-6836484D01*
X6189111Y-6836484D02*
X6141492Y-6836484D01*
X6141492Y-6836484D02*
X6122444Y-6826960D01*
X6122444Y-6826960D02*
X6112920Y-6807912D01*
X6112920Y-6807912D02*
X6112920Y-6788865D01*
X6112920Y-6788865D02*
X6122444Y-6769817D01*
X6122444Y-6769817D02*
X6141492Y-6760293D01*
X6141492Y-6760293D02*
X6189111Y-6760293D01*
X6189111Y-6760293D02*
X6208158Y-6750769D01*
X6274825Y-6703150D02*
X6351015Y-6703150D01*
X6303396Y-6636484D02*
X6303396Y-6807912D01*
X6303396Y-6807912D02*
X6312920Y-6826960D01*
X6312920Y-6826960D02*
X6331968Y-6836484D01*
X6331968Y-6836484D02*
X6351015Y-6836484D01*
X6493873Y-6826960D02*
X6474825Y-6836484D01*
X6474825Y-6836484D02*
X6436730Y-6836484D01*
X6436730Y-6836484D02*
X6417682Y-6826960D01*
X6417682Y-6826960D02*
X6408158Y-6807912D01*
X6408158Y-6807912D02*
X6408158Y-6731722D01*
X6408158Y-6731722D02*
X6417682Y-6712674D01*
X6417682Y-6712674D02*
X6436730Y-6703150D01*
X6436730Y-6703150D02*
X6474825Y-6703150D01*
X6474825Y-6703150D02*
X6493873Y-6712674D01*
X6493873Y-6712674D02*
X6503396Y-6731722D01*
X6503396Y-6731722D02*
X6503396Y-6750769D01*
X6503396Y-6750769D02*
X6408158Y-6769817D01*
X6674825Y-6836484D02*
X6674825Y-6636484D01*
X6674825Y-6826960D02*
X6655777Y-6836484D01*
X6655777Y-6836484D02*
X6617682Y-6836484D01*
X6617682Y-6836484D02*
X6598634Y-6826960D01*
X6598634Y-6826960D02*
X6589111Y-6817436D01*
X6589111Y-6817436D02*
X6579587Y-6798388D01*
X6579587Y-6798388D02*
X6579587Y-6741246D01*
X6579587Y-6741246D02*
X6589111Y-6722198D01*
X6589111Y-6722198D02*
X6598634Y-6712674D01*
X6598634Y-6712674D02*
X6617682Y-6703150D01*
X6617682Y-6703150D02*
X6655777Y-6703150D01*
X6655777Y-6703150D02*
X6674825Y-6712674D01*
X6751015Y-6912674D02*
X6760539Y-6903150D01*
X6760539Y-6903150D02*
X6779587Y-6874579D01*
X6779587Y-6874579D02*
X6789111Y-6855531D01*
X6789111Y-6855531D02*
X6798634Y-6826960D01*
X6798634Y-6826960D02*
X6808158Y-6779341D01*
X6808158Y-6779341D02*
X6808158Y-6741246D01*
X6808158Y-6741246D02*
X6798634Y-6693627D01*
X6798634Y-6693627D02*
X6789111Y-6665055D01*
X6789111Y-6665055D02*
X6779587Y-6646008D01*
X6779587Y-6646008D02*
X6760539Y-6617436D01*
X6760539Y-6617436D02*
X6751015Y-6607912D01*
X-5000Y-7009000D02*
G75*
G02*
X-205000Y-7009000I-100000J0D01*
G01*
X-205000Y-7009000D02*
G75*
G02*
X-5000Y-7009000I100000J0D01*
G01*
X246253Y-6919531D02*
X255777Y-6910008D01*
X255777Y-6910008D02*
X274824Y-6900484D01*
X274824Y-6900484D02*
X322444Y-6900484D01*
X322444Y-6900484D02*
X341491Y-6910008D01*
X341491Y-6910008D02*
X351015Y-6919531D01*
X351015Y-6919531D02*
X360539Y-6938579D01*
X360539Y-6938579D02*
X360539Y-6957627D01*
X360539Y-6957627D02*
X351015Y-6986198D01*
X351015Y-6986198D02*
X236729Y-7100484D01*
X236729Y-7100484D02*
X360539Y-7100484D01*
X446253Y-7081436D02*
X455777Y-7090960D01*
X455777Y-7090960D02*
X446253Y-7100484D01*
X446253Y-7100484D02*
X436729Y-7090960D01*
X436729Y-7090960D02*
X446253Y-7081436D01*
X446253Y-7081436D02*
X446253Y-7100484D01*
X531967Y-6919531D02*
X541491Y-6910008D01*
X541491Y-6910008D02*
X560539Y-6900484D01*
X560539Y-6900484D02*
X608158Y-6900484D01*
X608158Y-6900484D02*
X627205Y-6910008D01*
X627205Y-6910008D02*
X636729Y-6919531D01*
X636729Y-6919531D02*
X646253Y-6938579D01*
X646253Y-6938579D02*
X646253Y-6957627D01*
X646253Y-6957627D02*
X636729Y-6986198D01*
X636729Y-6986198D02*
X522443Y-7100484D01*
X522443Y-7100484D02*
X646253Y-7100484D01*
X770062Y-6900484D02*
X789110Y-6900484D01*
X789110Y-6900484D02*
X808158Y-6910008D01*
X808158Y-6910008D02*
X817682Y-6919531D01*
X817682Y-6919531D02*
X827205Y-6938579D01*
X827205Y-6938579D02*
X836729Y-6976674D01*
X836729Y-6976674D02*
X836729Y-7024293D01*
X836729Y-7024293D02*
X827205Y-7062388D01*
X827205Y-7062388D02*
X817682Y-7081436D01*
X817682Y-7081436D02*
X808158Y-7090960D01*
X808158Y-7090960D02*
X789110Y-7100484D01*
X789110Y-7100484D02*
X770062Y-7100484D01*
X770062Y-7100484D02*
X751015Y-7090960D01*
X751015Y-7090960D02*
X741491Y-7081436D01*
X741491Y-7081436D02*
X731967Y-7062388D01*
X731967Y-7062388D02*
X722443Y-7024293D01*
X722443Y-7024293D02*
X722443Y-6976674D01*
X722443Y-6976674D02*
X731967Y-6938579D01*
X731967Y-6938579D02*
X741491Y-6919531D01*
X741491Y-6919531D02*
X751015Y-6910008D01*
X751015Y-6910008D02*
X770062Y-6900484D01*
X960539Y-6900484D02*
X979586Y-6900484D01*
X979586Y-6900484D02*
X998634Y-6910008D01*
X998634Y-6910008D02*
X1008158Y-6919531D01*
X1008158Y-6919531D02*
X1017682Y-6938579D01*
X1017682Y-6938579D02*
X1027205Y-6976674D01*
X1027205Y-6976674D02*
X1027205Y-7024293D01*
X1027205Y-7024293D02*
X1017682Y-7062388D01*
X1017682Y-7062388D02*
X1008158Y-7081436D01*
X1008158Y-7081436D02*
X998634Y-7090960D01*
X998634Y-7090960D02*
X979586Y-7100484D01*
X979586Y-7100484D02*
X960539Y-7100484D01*
X960539Y-7100484D02*
X941491Y-7090960D01*
X941491Y-7090960D02*
X931967Y-7081436D01*
X931967Y-7081436D02*
X922443Y-7062388D01*
X922443Y-7062388D02*
X912920Y-7024293D01*
X912920Y-7024293D02*
X912920Y-6976674D01*
X912920Y-6976674D02*
X922443Y-6938579D01*
X922443Y-6938579D02*
X931967Y-6919531D01*
X931967Y-6919531D02*
X941491Y-6910008D01*
X941491Y-6910008D02*
X960539Y-6900484D01*
X1112920Y-7100484D02*
X1112920Y-6967150D01*
X1112920Y-6986198D02*
X1122444Y-6976674D01*
X1122444Y-6976674D02*
X1141491Y-6967150D01*
X1141491Y-6967150D02*
X1170063Y-6967150D01*
X1170063Y-6967150D02*
X1189110Y-6976674D01*
X1189110Y-6976674D02*
X1198634Y-6995722D01*
X1198634Y-6995722D02*
X1198634Y-7100484D01*
X1198634Y-6995722D02*
X1208158Y-6976674D01*
X1208158Y-6976674D02*
X1227205Y-6967150D01*
X1227205Y-6967150D02*
X1255777Y-6967150D01*
X1255777Y-6967150D02*
X1274825Y-6976674D01*
X1274825Y-6976674D02*
X1284348Y-6995722D01*
X1284348Y-6995722D02*
X1284348Y-7100484D01*
X1379586Y-7100484D02*
X1379586Y-6967150D01*
X1379586Y-6986198D02*
X1389110Y-6976674D01*
X1389110Y-6976674D02*
X1408158Y-6967150D01*
X1408158Y-6967150D02*
X1436729Y-6967150D01*
X1436729Y-6967150D02*
X1455777Y-6976674D01*
X1455777Y-6976674D02*
X1465301Y-6995722D01*
X1465301Y-6995722D02*
X1465301Y-7100484D01*
X1465301Y-6995722D02*
X1474824Y-6976674D01*
X1474824Y-6976674D02*
X1493872Y-6967150D01*
X1493872Y-6967150D02*
X1522443Y-6967150D01*
X1522443Y-6967150D02*
X1541491Y-6976674D01*
X1541491Y-6976674D02*
X1551015Y-6995722D01*
X1551015Y-6995722D02*
X1551015Y-7100484D01*
X1941491Y-6890960D02*
X1770063Y-7148103D01*
X2198634Y-6900484D02*
X2217682Y-6900484D01*
X2217682Y-6900484D02*
X2236729Y-6910008D01*
X2236729Y-6910008D02*
X2246253Y-6919531D01*
X2246253Y-6919531D02*
X2255777Y-6938579D01*
X2255777Y-6938579D02*
X2265301Y-6976674D01*
X2265301Y-6976674D02*
X2265301Y-7024293D01*
X2265301Y-7024293D02*
X2255777Y-7062388D01*
X2255777Y-7062388D02*
X2246253Y-7081436D01*
X2246253Y-7081436D02*
X2236729Y-7090960D01*
X2236729Y-7090960D02*
X2217682Y-7100484D01*
X2217682Y-7100484D02*
X2198634Y-7100484D01*
X2198634Y-7100484D02*
X2179587Y-7090960D01*
X2179587Y-7090960D02*
X2170063Y-7081436D01*
X2170063Y-7081436D02*
X2160539Y-7062388D01*
X2160539Y-7062388D02*
X2151015Y-7024293D01*
X2151015Y-7024293D02*
X2151015Y-6976674D01*
X2151015Y-6976674D02*
X2160539Y-6938579D01*
X2160539Y-6938579D02*
X2170063Y-6919531D01*
X2170063Y-6919531D02*
X2179587Y-6910008D01*
X2179587Y-6910008D02*
X2198634Y-6900484D01*
X2351015Y-7081436D02*
X2360539Y-7090960D01*
X2360539Y-7090960D02*
X2351015Y-7100484D01*
X2351015Y-7100484D02*
X2341491Y-7090960D01*
X2341491Y-7090960D02*
X2351015Y-7081436D01*
X2351015Y-7081436D02*
X2351015Y-7100484D01*
X2484348Y-6900484D02*
X2503396Y-6900484D01*
X2503396Y-6900484D02*
X2522444Y-6910008D01*
X2522444Y-6910008D02*
X2531968Y-6919531D01*
X2531968Y-6919531D02*
X2541491Y-6938579D01*
X2541491Y-6938579D02*
X2551015Y-6976674D01*
X2551015Y-6976674D02*
X2551015Y-7024293D01*
X2551015Y-7024293D02*
X2541491Y-7062388D01*
X2541491Y-7062388D02*
X2531968Y-7081436D01*
X2531968Y-7081436D02*
X2522444Y-7090960D01*
X2522444Y-7090960D02*
X2503396Y-7100484D01*
X2503396Y-7100484D02*
X2484348Y-7100484D01*
X2484348Y-7100484D02*
X2465301Y-7090960D01*
X2465301Y-7090960D02*
X2455777Y-7081436D01*
X2455777Y-7081436D02*
X2446253Y-7062388D01*
X2446253Y-7062388D02*
X2436729Y-7024293D01*
X2436729Y-7024293D02*
X2436729Y-6976674D01*
X2436729Y-6976674D02*
X2446253Y-6938579D01*
X2446253Y-6938579D02*
X2455777Y-6919531D01*
X2455777Y-6919531D02*
X2465301Y-6910008D01*
X2465301Y-6910008D02*
X2484348Y-6900484D01*
X2665301Y-6986198D02*
X2646253Y-6976674D01*
X2646253Y-6976674D02*
X2636729Y-6967150D01*
X2636729Y-6967150D02*
X2627206Y-6948103D01*
X2627206Y-6948103D02*
X2627206Y-6938579D01*
X2627206Y-6938579D02*
X2636729Y-6919531D01*
X2636729Y-6919531D02*
X2646253Y-6910008D01*
X2646253Y-6910008D02*
X2665301Y-6900484D01*
X2665301Y-6900484D02*
X2703396Y-6900484D01*
X2703396Y-6900484D02*
X2722444Y-6910008D01*
X2722444Y-6910008D02*
X2731968Y-6919531D01*
X2731968Y-6919531D02*
X2741491Y-6938579D01*
X2741491Y-6938579D02*
X2741491Y-6948103D01*
X2741491Y-6948103D02*
X2731968Y-6967150D01*
X2731968Y-6967150D02*
X2722444Y-6976674D01*
X2722444Y-6976674D02*
X2703396Y-6986198D01*
X2703396Y-6986198D02*
X2665301Y-6986198D01*
X2665301Y-6986198D02*
X2646253Y-6995722D01*
X2646253Y-6995722D02*
X2636729Y-7005246D01*
X2636729Y-7005246D02*
X2627206Y-7024293D01*
X2627206Y-7024293D02*
X2627206Y-7062388D01*
X2627206Y-7062388D02*
X2636729Y-7081436D01*
X2636729Y-7081436D02*
X2646253Y-7090960D01*
X2646253Y-7090960D02*
X2665301Y-7100484D01*
X2665301Y-7100484D02*
X2703396Y-7100484D01*
X2703396Y-7100484D02*
X2722444Y-7090960D01*
X2722444Y-7090960D02*
X2731968Y-7081436D01*
X2731968Y-7081436D02*
X2741491Y-7062388D01*
X2741491Y-7062388D02*
X2741491Y-7024293D01*
X2741491Y-7024293D02*
X2731968Y-7005246D01*
X2731968Y-7005246D02*
X2722444Y-6995722D01*
X2722444Y-6995722D02*
X2703396Y-6986198D01*
X2912920Y-6900484D02*
X2874825Y-6900484D01*
X2874825Y-6900484D02*
X2855777Y-6910008D01*
X2855777Y-6910008D02*
X2846253Y-6919531D01*
X2846253Y-6919531D02*
X2827206Y-6948103D01*
X2827206Y-6948103D02*
X2817682Y-6986198D01*
X2817682Y-6986198D02*
X2817682Y-7062388D01*
X2817682Y-7062388D02*
X2827206Y-7081436D01*
X2827206Y-7081436D02*
X2836729Y-7090960D01*
X2836729Y-7090960D02*
X2855777Y-7100484D01*
X2855777Y-7100484D02*
X2893872Y-7100484D01*
X2893872Y-7100484D02*
X2912920Y-7090960D01*
X2912920Y-7090960D02*
X2922444Y-7081436D01*
X2922444Y-7081436D02*
X2931967Y-7062388D01*
X2931967Y-7062388D02*
X2931967Y-7014769D01*
X2931967Y-7014769D02*
X2922444Y-6995722D01*
X2922444Y-6995722D02*
X2912920Y-6986198D01*
X2912920Y-6986198D02*
X2893872Y-6976674D01*
X2893872Y-6976674D02*
X2855777Y-6976674D01*
X2855777Y-6976674D02*
X2836729Y-6986198D01*
X2836729Y-6986198D02*
X2827206Y-6995722D01*
X2827206Y-6995722D02*
X2817682Y-7014769D01*
X3103396Y-6900484D02*
X3065301Y-6900484D01*
X3065301Y-6900484D02*
X3046253Y-6910008D01*
X3046253Y-6910008D02*
X3036729Y-6919531D01*
X3036729Y-6919531D02*
X3017682Y-6948103D01*
X3017682Y-6948103D02*
X3008158Y-6986198D01*
X3008158Y-6986198D02*
X3008158Y-7062388D01*
X3008158Y-7062388D02*
X3017682Y-7081436D01*
X3017682Y-7081436D02*
X3027206Y-7090960D01*
X3027206Y-7090960D02*
X3046253Y-7100484D01*
X3046253Y-7100484D02*
X3084348Y-7100484D01*
X3084348Y-7100484D02*
X3103396Y-7090960D01*
X3103396Y-7090960D02*
X3112920Y-7081436D01*
X3112920Y-7081436D02*
X3122444Y-7062388D01*
X3122444Y-7062388D02*
X3122444Y-7014769D01*
X3122444Y-7014769D02*
X3112920Y-6995722D01*
X3112920Y-6995722D02*
X3103396Y-6986198D01*
X3103396Y-6986198D02*
X3084348Y-6976674D01*
X3084348Y-6976674D02*
X3046253Y-6976674D01*
X3046253Y-6976674D02*
X3027206Y-6986198D01*
X3027206Y-6986198D02*
X3017682Y-6995722D01*
X3017682Y-6995722D02*
X3008158Y-7014769D01*
X3198634Y-6900484D02*
X3198634Y-6938579D01*
X3274825Y-6900484D02*
X3274825Y-6938579D01*
X3570063Y-7176674D02*
X3560539Y-7167150D01*
X3560539Y-7167150D02*
X3541491Y-7138579D01*
X3541491Y-7138579D02*
X3531968Y-7119531D01*
X3531968Y-7119531D02*
X3522444Y-7090960D01*
X3522444Y-7090960D02*
X3512920Y-7043341D01*
X3512920Y-7043341D02*
X3512920Y-7005246D01*
X3512920Y-7005246D02*
X3522444Y-6957627D01*
X3522444Y-6957627D02*
X3531968Y-6929055D01*
X3531968Y-6929055D02*
X3541491Y-6910008D01*
X3541491Y-6910008D02*
X3560539Y-6881436D01*
X3560539Y-6881436D02*
X3570063Y-6871912D01*
X3731968Y-6967150D02*
X3731968Y-7100484D01*
X3684348Y-6890960D02*
X3636729Y-7033817D01*
X3636729Y-7033817D02*
X3760539Y-7033817D01*
X3989110Y-7100484D02*
X3989110Y-6900484D01*
X4074825Y-7100484D02*
X4074825Y-6995722D01*
X4074825Y-6995722D02*
X4065301Y-6976674D01*
X4065301Y-6976674D02*
X4046253Y-6967150D01*
X4046253Y-6967150D02*
X4017682Y-6967150D01*
X4017682Y-6967150D02*
X3998634Y-6976674D01*
X3998634Y-6976674D02*
X3989110Y-6986198D01*
X4198634Y-7100484D02*
X4179587Y-7090960D01*
X4179587Y-7090960D02*
X4170063Y-7081436D01*
X4170063Y-7081436D02*
X4160539Y-7062388D01*
X4160539Y-7062388D02*
X4160539Y-7005246D01*
X4160539Y-7005246D02*
X4170063Y-6986198D01*
X4170063Y-6986198D02*
X4179587Y-6976674D01*
X4179587Y-6976674D02*
X4198634Y-6967150D01*
X4198634Y-6967150D02*
X4227206Y-6967150D01*
X4227206Y-6967150D02*
X4246253Y-6976674D01*
X4246253Y-6976674D02*
X4255777Y-6986198D01*
X4255777Y-6986198D02*
X4265301Y-7005246D01*
X4265301Y-7005246D02*
X4265301Y-7062388D01*
X4265301Y-7062388D02*
X4255777Y-7081436D01*
X4255777Y-7081436D02*
X4246253Y-7090960D01*
X4246253Y-7090960D02*
X4227206Y-7100484D01*
X4227206Y-7100484D02*
X4198634Y-7100484D01*
X4379587Y-7100484D02*
X4360539Y-7090960D01*
X4360539Y-7090960D02*
X4351015Y-7071912D01*
X4351015Y-7071912D02*
X4351015Y-6900484D01*
X4531968Y-7090960D02*
X4512920Y-7100484D01*
X4512920Y-7100484D02*
X4474825Y-7100484D01*
X4474825Y-7100484D02*
X4455777Y-7090960D01*
X4455777Y-7090960D02*
X4446253Y-7071912D01*
X4446253Y-7071912D02*
X4446253Y-6995722D01*
X4446253Y-6995722D02*
X4455777Y-6976674D01*
X4455777Y-6976674D02*
X4474825Y-6967150D01*
X4474825Y-6967150D02*
X4512920Y-6967150D01*
X4512920Y-6967150D02*
X4531968Y-6976674D01*
X4531968Y-6976674D02*
X4541492Y-6995722D01*
X4541492Y-6995722D02*
X4541492Y-7014769D01*
X4541492Y-7014769D02*
X4446253Y-7033817D01*
X4617682Y-7090960D02*
X4636730Y-7100484D01*
X4636730Y-7100484D02*
X4674825Y-7100484D01*
X4674825Y-7100484D02*
X4693873Y-7090960D01*
X4693873Y-7090960D02*
X4703396Y-7071912D01*
X4703396Y-7071912D02*
X4703396Y-7062388D01*
X4703396Y-7062388D02*
X4693873Y-7043341D01*
X4693873Y-7043341D02*
X4674825Y-7033817D01*
X4674825Y-7033817D02*
X4646253Y-7033817D01*
X4646253Y-7033817D02*
X4627206Y-7024293D01*
X4627206Y-7024293D02*
X4617682Y-7005246D01*
X4617682Y-7005246D02*
X4617682Y-6995722D01*
X4617682Y-6995722D02*
X4627206Y-6976674D01*
X4627206Y-6976674D02*
X4646253Y-6967150D01*
X4646253Y-6967150D02*
X4674825Y-6967150D01*
X4674825Y-6967150D02*
X4693873Y-6976674D01*
X4770063Y-7176674D02*
X4779587Y-7167150D01*
X4779587Y-7167150D02*
X4798634Y-7138579D01*
X4798634Y-7138579D02*
X4808158Y-7119531D01*
X4808158Y-7119531D02*
X4817682Y-7090960D01*
X4817682Y-7090960D02*
X4827206Y-7043341D01*
X4827206Y-7043341D02*
X4827206Y-7005246D01*
X4827206Y-7005246D02*
X4817682Y-6957627D01*
X4817682Y-6957627D02*
X4808158Y-6929055D01*
X4808158Y-6929055D02*
X4798634Y-6910008D01*
X4798634Y-6910008D02*
X4779587Y-6881436D01*
X4779587Y-6881436D02*
X4770063Y-6871912D01*
X5131968Y-7176674D02*
X5122444Y-7167150D01*
X5122444Y-7167150D02*
X5103396Y-7138579D01*
X5103396Y-7138579D02*
X5093873Y-7119531D01*
X5093873Y-7119531D02*
X5084349Y-7090960D01*
X5084349Y-7090960D02*
X5074825Y-7043341D01*
X5074825Y-7043341D02*
X5074825Y-7005246D01*
X5074825Y-7005246D02*
X5084349Y-6957627D01*
X5084349Y-6957627D02*
X5093873Y-6929055D01*
X5093873Y-6929055D02*
X5103396Y-6910008D01*
X5103396Y-6910008D02*
X5122444Y-6881436D01*
X5122444Y-6881436D02*
X5131968Y-6871912D01*
X5208158Y-6967150D02*
X5208158Y-7100484D01*
X5208158Y-6986198D02*
X5217682Y-6976674D01*
X5217682Y-6976674D02*
X5236730Y-6967150D01*
X5236730Y-6967150D02*
X5265301Y-6967150D01*
X5265301Y-6967150D02*
X5284349Y-6976674D01*
X5284349Y-6976674D02*
X5293873Y-6995722D01*
X5293873Y-6995722D02*
X5293873Y-7100484D01*
X5417682Y-7100484D02*
X5398634Y-7090960D01*
X5398634Y-7090960D02*
X5389111Y-7081436D01*
X5389111Y-7081436D02*
X5379587Y-7062388D01*
X5379587Y-7062388D02*
X5379587Y-7005246D01*
X5379587Y-7005246D02*
X5389111Y-6986198D01*
X5389111Y-6986198D02*
X5398634Y-6976674D01*
X5398634Y-6976674D02*
X5417682Y-6967150D01*
X5417682Y-6967150D02*
X5446254Y-6967150D01*
X5446254Y-6967150D02*
X5465301Y-6976674D01*
X5465301Y-6976674D02*
X5474825Y-6986198D01*
X5474825Y-6986198D02*
X5484349Y-7005246D01*
X5484349Y-7005246D02*
X5484349Y-7062388D01*
X5484349Y-7062388D02*
X5474825Y-7081436D01*
X5474825Y-7081436D02*
X5465301Y-7090960D01*
X5465301Y-7090960D02*
X5446254Y-7100484D01*
X5446254Y-7100484D02*
X5417682Y-7100484D01*
X5541492Y-6967150D02*
X5617682Y-6967150D01*
X5570063Y-6900484D02*
X5570063Y-7071912D01*
X5570063Y-7071912D02*
X5579587Y-7090960D01*
X5579587Y-7090960D02*
X5598634Y-7100484D01*
X5598634Y-7100484D02*
X5617682Y-7100484D01*
X5836730Y-6967150D02*
X5836730Y-7167150D01*
X5836730Y-6976674D02*
X5855777Y-6967150D01*
X5855777Y-6967150D02*
X5893873Y-6967150D01*
X5893873Y-6967150D02*
X5912920Y-6976674D01*
X5912920Y-6976674D02*
X5922444Y-6986198D01*
X5922444Y-6986198D02*
X5931968Y-7005246D01*
X5931968Y-7005246D02*
X5931968Y-7062388D01*
X5931968Y-7062388D02*
X5922444Y-7081436D01*
X5922444Y-7081436D02*
X5912920Y-7090960D01*
X5912920Y-7090960D02*
X5893873Y-7100484D01*
X5893873Y-7100484D02*
X5855777Y-7100484D01*
X5855777Y-7100484D02*
X5836730Y-7090960D01*
X6046253Y-7100484D02*
X6027206Y-7090960D01*
X6027206Y-7090960D02*
X6017682Y-7071912D01*
X6017682Y-7071912D02*
X6017682Y-6900484D01*
X6208158Y-7100484D02*
X6208158Y-6995722D01*
X6208158Y-6995722D02*
X6198634Y-6976674D01*
X6198634Y-6976674D02*
X6179587Y-6967150D01*
X6179587Y-6967150D02*
X6141492Y-6967150D01*
X6141492Y-6967150D02*
X6122444Y-6976674D01*
X6208158Y-7090960D02*
X6189111Y-7100484D01*
X6189111Y-7100484D02*
X6141492Y-7100484D01*
X6141492Y-7100484D02*
X6122444Y-7090960D01*
X6122444Y-7090960D02*
X6112920Y-7071912D01*
X6112920Y-7071912D02*
X6112920Y-7052865D01*
X6112920Y-7052865D02*
X6122444Y-7033817D01*
X6122444Y-7033817D02*
X6141492Y-7024293D01*
X6141492Y-7024293D02*
X6189111Y-7024293D01*
X6189111Y-7024293D02*
X6208158Y-7014769D01*
X6274825Y-6967150D02*
X6351015Y-6967150D01*
X6303396Y-6900484D02*
X6303396Y-7071912D01*
X6303396Y-7071912D02*
X6312920Y-7090960D01*
X6312920Y-7090960D02*
X6331968Y-7100484D01*
X6331968Y-7100484D02*
X6351015Y-7100484D01*
X6493873Y-7090960D02*
X6474825Y-7100484D01*
X6474825Y-7100484D02*
X6436730Y-7100484D01*
X6436730Y-7100484D02*
X6417682Y-7090960D01*
X6417682Y-7090960D02*
X6408158Y-7071912D01*
X6408158Y-7071912D02*
X6408158Y-6995722D01*
X6408158Y-6995722D02*
X6417682Y-6976674D01*
X6417682Y-6976674D02*
X6436730Y-6967150D01*
X6436730Y-6967150D02*
X6474825Y-6967150D01*
X6474825Y-6967150D02*
X6493873Y-6976674D01*
X6493873Y-6976674D02*
X6503396Y-6995722D01*
X6503396Y-6995722D02*
X6503396Y-7014769D01*
X6503396Y-7014769D02*
X6408158Y-7033817D01*
X6674825Y-7100484D02*
X6674825Y-6900484D01*
X6674825Y-7090960D02*
X6655777Y-7100484D01*
X6655777Y-7100484D02*
X6617682Y-7100484D01*
X6617682Y-7100484D02*
X6598634Y-7090960D01*
X6598634Y-7090960D02*
X6589111Y-7081436D01*
X6589111Y-7081436D02*
X6579587Y-7062388D01*
X6579587Y-7062388D02*
X6579587Y-7005246D01*
X6579587Y-7005246D02*
X6589111Y-6986198D01*
X6589111Y-6986198D02*
X6598634Y-6976674D01*
X6598634Y-6976674D02*
X6617682Y-6967150D01*
X6617682Y-6967150D02*
X6655777Y-6967150D01*
X6655777Y-6967150D02*
X6674825Y-6976674D01*
X6751015Y-7176674D02*
X6760539Y-7167150D01*
X6760539Y-7167150D02*
X6779587Y-7138579D01*
X6779587Y-7138579D02*
X6789111Y-7119531D01*
X6789111Y-7119531D02*
X6798634Y-7090960D01*
X6798634Y-7090960D02*
X6808158Y-7043341D01*
X6808158Y-7043341D02*
X6808158Y-7005246D01*
X6808158Y-7005246D02*
X6798634Y-6957627D01*
X6798634Y-6957627D02*
X6789111Y-6929055D01*
X6789111Y-6929055D02*
X6779587Y-6910008D01*
X6779587Y-6910008D02*
X6760539Y-6881436D01*
X6760539Y-6881436D02*
X6751015Y-6871912D01*
M02*
