%TF.GenerationSoftware,KiCad,Pcbnew,10.0.6*%
%TF.CreationDate,2026-09-20T18:33:50-04:00*%
%TF.ProjectId,esp32-4to20ma-board,65737033-322d-4347-946f-32306d612d62,rev?*%
%TF.SameCoordinates,Original*%
%TF.FileFunction,Drillmap*%
%TF.FilePolarity,Positive*%
%FSLAX45Y45*%
G04 Gerber Fmt 4.5, Leading zero omitted, Abs format (unit mm)*
G04 Created by KiCad (PCBNEW 10.0.6) date 2026-09-20 18:33:50*
%MOMM*%
%LPD*%
G01*
G04 APERTURE LIST*
%ADD10C,0.100000*%
%ADD11C,0.200000*%
%ADD12C,0.150002*%
G04 APERTURE END LIST*
D10*
X0Y-100000D02*
G75*
G02*
X100000Y0I100000J0D01*
G01*
X0Y-6000000D02*
X0Y-100000D01*
X100000Y0D02*
X3900000Y0D01*
X100000Y-6100000D02*
G75*
G02*
X0Y-6000000I0J100000D01*
G01*
X3900000Y0D02*
G75*
G02*
X4000000Y-100000I0J-100000D01*
G01*
X3900000Y-6100000D02*
X100000Y-6100000D01*
X4000000Y-100000D02*
X4000000Y-6000000D01*
X4000000Y-6000000D02*
G75*
G02*
X3900000Y-6100000I-100000J0D01*
G01*
D11*
D10*
X185000Y-985000D02*
X215000Y-1015000D01*
X215000Y-985000D02*
X185000Y-1015000D01*
X185000Y-2485000D02*
X215000Y-2515000D01*
X215000Y-2485000D02*
X185000Y-2515000D01*
X185000Y-3985000D02*
X215000Y-4015000D01*
X215000Y-3985000D02*
X185000Y-4015000D01*
X435000Y-3045000D02*
X465000Y-3075000D01*
X465000Y-3045000D02*
X435000Y-3075000D01*
X505000Y-5279000D02*
X535000Y-5309000D01*
X535000Y-5279000D02*
X505000Y-5309000D01*
X585000Y-3985000D02*
X615000Y-4015000D01*
X615000Y-3985000D02*
X585000Y-4015000D01*
X785000Y-3390000D02*
X815000Y-3420000D01*
X815000Y-3390000D02*
X785000Y-3420000D01*
X965000Y-4945000D02*
X995000Y-4975000D01*
X995000Y-4945000D02*
X965000Y-4975000D01*
X1010000Y-1015000D02*
X1040000Y-1045000D01*
X1040000Y-1015000D02*
X1010000Y-1045000D01*
X1040000Y-4980000D02*
X1070000Y-5010000D01*
X1070000Y-4980000D02*
X1040000Y-5010000D01*
X1075000Y-215000D02*
X1105000Y-245000D01*
X1105000Y-215000D02*
X1075000Y-245000D01*
X1075000Y-615000D02*
X1105000Y-645000D01*
X1105000Y-615000D02*
X1075000Y-645000D01*
X1085000Y-2355000D02*
X1115000Y-2385000D01*
X1115000Y-2355000D02*
X1085000Y-2385000D01*
X1109300Y-2932130D02*
X1139300Y-2962130D01*
X1139300Y-2932130D02*
X1109300Y-2962130D01*
X1135000Y-3015000D02*
X1165000Y-3045000D01*
X1165000Y-3015000D02*
X1135000Y-3045000D01*
X1135000Y-4505000D02*
X1165000Y-4535000D01*
X1165000Y-4505000D02*
X1135000Y-4535000D01*
X1135000Y-4735000D02*
X1165000Y-4765000D01*
X1165000Y-4735000D02*
X1135000Y-4765000D01*
X1165000Y-5215000D02*
X1195000Y-5245000D01*
X1195000Y-5215000D02*
X1165000Y-5245000D01*
X1185000Y-4085000D02*
X1215000Y-4115000D01*
X1215000Y-4085000D02*
X1185000Y-4115000D01*
X1305000Y-4945000D02*
X1335000Y-4975000D01*
X1335000Y-4945000D02*
X1305000Y-4975000D01*
X1535000Y-4085000D02*
X1565000Y-4115000D01*
X1565000Y-4085000D02*
X1535000Y-4115000D01*
X1684920Y-3654400D02*
X1714920Y-3684400D01*
X1714920Y-3654400D02*
X1684920Y-3684400D01*
X1765000Y-3785000D02*
X1795000Y-3815000D01*
X1795000Y-3785000D02*
X1765000Y-3815000D01*
X1795000Y-5030000D02*
X1825000Y-5060000D01*
X1825000Y-5030000D02*
X1795000Y-5060000D01*
X1824000Y-4240000D02*
X1854000Y-4270000D01*
X1854000Y-4240000D02*
X1824000Y-4270000D01*
X1935000Y-5030000D02*
X1965000Y-5060000D01*
X1965000Y-5030000D02*
X1935000Y-5060000D01*
X1970000Y-2750000D02*
X2000000Y-2780000D01*
X2000000Y-2750000D02*
X1970000Y-2780000D01*
X1985000Y-5835000D02*
X2015000Y-5865000D01*
X2015000Y-5835000D02*
X1985000Y-5865000D01*
X2085000Y-3635000D02*
X2115000Y-3665000D01*
X2115000Y-3635000D02*
X2085000Y-3665000D01*
X2385000Y-2335000D02*
X2415000Y-2365000D01*
X2415000Y-2335000D02*
X2385000Y-2365000D01*
X2405000Y-4535000D02*
X2435000Y-4565000D01*
X2435000Y-4535000D02*
X2405000Y-4565000D01*
X2685000Y-2635000D02*
X2715000Y-2665000D01*
X2715000Y-2635000D02*
X2685000Y-2665000D01*
X2705000Y-5030000D02*
X2735000Y-5060000D01*
X2735000Y-5030000D02*
X2705000Y-5060000D01*
X2781030Y-4542670D02*
X2811030Y-4572670D01*
X2811030Y-4542670D02*
X2781030Y-4572670D01*
X2785000Y-3435000D02*
X2815000Y-3465000D01*
X2815000Y-3435000D02*
X2785000Y-3465000D01*
X2785000Y-3530000D02*
X2815000Y-3560000D01*
X2815000Y-3530000D02*
X2785000Y-3560000D01*
X2845000Y-5030000D02*
X2875000Y-5060000D01*
X2875000Y-5030000D02*
X2845000Y-5060000D01*
X2915000Y-3185000D02*
X2945000Y-3215000D01*
X2945000Y-3185000D02*
X2915000Y-3215000D01*
X2945000Y-4580000D02*
X2975000Y-4610000D01*
X2975000Y-4580000D02*
X2945000Y-4610000D01*
X3025000Y-4580000D02*
X3055000Y-4610000D01*
X3055000Y-4580000D02*
X3025000Y-4610000D01*
X3215000Y-3605000D02*
X3245000Y-3635000D01*
X3245000Y-3605000D02*
X3215000Y-3635000D01*
X3295000Y-3182000D02*
X3325000Y-3212000D01*
X3325000Y-3182000D02*
X3295000Y-3212000D01*
X3385000Y-5635000D02*
X3415000Y-5665000D01*
X3415000Y-5635000D02*
X3385000Y-5665000D01*
X3435000Y-2885000D02*
X3465000Y-2915000D01*
X3465000Y-2885000D02*
X3435000Y-2915000D01*
X3445000Y-4165000D02*
X3475000Y-4195000D01*
X3475000Y-4165000D02*
X3445000Y-4195000D01*
X3445000Y-4325000D02*
X3475000Y-4355000D01*
X3475000Y-4325000D02*
X3445000Y-4355000D01*
X3565000Y-4165000D02*
X3595000Y-4195000D01*
X3595000Y-4165000D02*
X3565000Y-4195000D01*
X3565000Y-4325000D02*
X3595000Y-4355000D01*
X3595000Y-4325000D02*
X3565000Y-4355000D01*
X3685000Y-4165000D02*
X3715000Y-4195000D01*
X3715000Y-4165000D02*
X3685000Y-4195000D01*
X3685000Y-4325000D02*
X3715000Y-4355000D01*
X3715000Y-4325000D02*
X3685000Y-4355000D01*
X3785000Y-985000D02*
X3815000Y-1015000D01*
X3815000Y-985000D02*
X3785000Y-1015000D01*
X3785000Y-2485000D02*
X3815000Y-2515000D01*
X3815000Y-2485000D02*
X3785000Y-2515000D01*
X1925000Y-801000D02*
G75*
G02*
X1895000Y-801000I-15000J0D01*
G01*
X1895000Y-801000D02*
G75*
G02*
X1925000Y-801000I15000J0D01*
G01*
X1925000Y-941000D02*
G75*
G02*
X1895000Y-941000I-15000J0D01*
G01*
X1895000Y-941000D02*
G75*
G02*
X1925000Y-941000I15000J0D01*
G01*
X1995000Y-731000D02*
G75*
G02*
X1965000Y-731000I-15000J0D01*
G01*
X1965000Y-731000D02*
G75*
G02*
X1995000Y-731000I15000J0D01*
G01*
X1995000Y-871000D02*
G75*
G02*
X1965000Y-871000I-15000J0D01*
G01*
X1965000Y-871000D02*
G75*
G02*
X1995000Y-871000I15000J0D01*
G01*
X1995000Y-1011000D02*
G75*
G02*
X1965000Y-1011000I-15000J0D01*
G01*
X1965000Y-1011000D02*
G75*
G02*
X1995000Y-1011000I15000J0D01*
G01*
X2065000Y-801000D02*
G75*
G02*
X2035000Y-801000I-15000J0D01*
G01*
X2035000Y-801000D02*
G75*
G02*
X2065000Y-801000I15000J0D01*
G01*
X2065000Y-941000D02*
G75*
G02*
X2035000Y-941000I-15000J0D01*
G01*
X2035000Y-941000D02*
G75*
G02*
X2065000Y-941000I15000J0D01*
G01*
X2135000Y-731000D02*
G75*
G02*
X2105000Y-731000I-15000J0D01*
G01*
X2105000Y-731000D02*
G75*
G02*
X2135000Y-731000I15000J0D01*
G01*
X2135000Y-871000D02*
G75*
G02*
X2105000Y-871000I-15000J0D01*
G01*
X2105000Y-871000D02*
G75*
G02*
X2135000Y-871000I15000J0D01*
G01*
X2135000Y-1011000D02*
G75*
G02*
X2105000Y-1011000I-15000J0D01*
G01*
X2105000Y-1011000D02*
G75*
G02*
X2135000Y-1011000I15000J0D01*
G01*
X2205000Y-801000D02*
G75*
G02*
X2175000Y-801000I-15000J0D01*
G01*
X2175000Y-801000D02*
G75*
G02*
X2205000Y-801000I15000J0D01*
G01*
X2205000Y-941000D02*
G75*
G02*
X2175000Y-941000I-15000J0D01*
G01*
X2175000Y-941000D02*
G75*
G02*
X2205000Y-941000I15000J0D01*
G01*
X910000Y-4730000D02*
X910000Y-4770000D01*
X890000Y-4750000D02*
X930000Y-4750000D01*
X914600Y-314670D02*
X914600Y-354670D01*
X894600Y-334670D02*
X934600Y-334670D01*
X1390000Y-4730000D02*
X1390000Y-4770000D01*
X1370000Y-4750000D02*
X1410000Y-4750000D01*
X1569330Y-407110D02*
X1569330Y-447110D01*
X1549330Y-427110D02*
X1589330Y-427110D01*
X1812430Y-2148960D02*
X1812430Y-2188960D01*
X1792430Y-2168960D02*
X1832430Y-2168960D01*
X1959380Y-3452260D02*
X1959380Y-3492260D01*
X1939380Y-3472260D02*
X1979380Y-3472260D01*
X739213Y-5435213D02*
X739213Y-5392787D01*
X696787Y-5392787D01*
X696787Y-5435213D01*
X739213Y-5435213D01*
X688000Y-5379000D02*
X688000Y-5449000D01*
X748000Y-5449000D02*
G75*
G02*
X688000Y-5449000I-30000J0D01*
G01*
X748000Y-5449000D02*
X748000Y-5379000D01*
X748000Y-5379000D02*
G75*
G03*
X688000Y-5379000I-30000J0D01*
G01*
X739213Y-5856213D02*
X739213Y-5813787D01*
X696787Y-5813787D01*
X696787Y-5856213D01*
X739213Y-5856213D01*
X688000Y-5815000D02*
X688000Y-5855000D01*
X748000Y-5855000D02*
G75*
G02*
X688000Y-5855000I-30000J0D01*
G01*
X748000Y-5855000D02*
X748000Y-5815000D01*
X748000Y-5815000D02*
G75*
G03*
X688000Y-5815000I-30000J0D01*
G01*
X1603213Y-5435213D02*
X1603213Y-5392787D01*
X1560787Y-5392787D01*
X1560787Y-5435213D01*
X1603213Y-5435213D01*
X1552000Y-5379000D02*
X1552000Y-5449000D01*
X1612000Y-5449000D02*
G75*
G02*
X1552000Y-5449000I-30000J0D01*
G01*
X1612000Y-5449000D02*
X1612000Y-5379000D01*
X1612000Y-5379000D02*
G75*
G03*
X1552000Y-5379000I-30000J0D01*
G01*
X1603213Y-5856213D02*
X1603213Y-5813787D01*
X1560787Y-5813787D01*
X1560787Y-5856213D01*
X1603213Y-5856213D01*
X1552000Y-5815000D02*
X1552000Y-5855000D01*
X1612000Y-5855000D02*
G75*
G02*
X1552000Y-5855000I-30000J0D01*
G01*
X1612000Y-5855000D02*
X1612000Y-5815000D01*
X1612000Y-5815000D02*
G75*
G03*
X1552000Y-5815000I-30000J0D01*
G01*
D12*
X2050000Y-5575001D02*
X2125001Y-5500000D01*
X2050000Y-5424999D01*
X1974999Y-5500000D01*
X2050000Y-5575001D01*
X2550000Y-5575001D02*
X2625001Y-5500000D01*
X2550000Y-5424999D01*
X2474999Y-5500000D01*
X2550000Y-5575001D01*
X3050000Y-5575001D02*
X3125001Y-5500000D01*
X3050000Y-5424999D01*
X2974999Y-5500000D01*
X3050000Y-5575001D01*
D11*
X255777Y-6416484D02*
X255777Y-6216484D01*
X255777Y-6216484D02*
X303396Y-6216484D01*
X303396Y-6216484D02*
X331967Y-6226008D01*
X331967Y-6226008D02*
X351015Y-6245055D01*
X351015Y-6245055D02*
X360539Y-6264103D01*
X360539Y-6264103D02*
X370062Y-6302198D01*
X370062Y-6302198D02*
X370062Y-6330769D01*
X370062Y-6330769D02*
X360539Y-6368865D01*
X360539Y-6368865D02*
X351015Y-6387912D01*
X351015Y-6387912D02*
X331967Y-6406960D01*
X331967Y-6406960D02*
X303396Y-6416484D01*
X303396Y-6416484D02*
X255777Y-6416484D01*
X455777Y-6416484D02*
X455777Y-6283150D01*
X455777Y-6321246D02*
X465301Y-6302198D01*
X465301Y-6302198D02*
X474824Y-6292674D01*
X474824Y-6292674D02*
X493872Y-6283150D01*
X493872Y-6283150D02*
X512920Y-6283150D01*
X579586Y-6416484D02*
X579586Y-6283150D01*
X579586Y-6216484D02*
X570063Y-6226008D01*
X570063Y-6226008D02*
X579586Y-6235531D01*
X579586Y-6235531D02*
X589110Y-6226008D01*
X589110Y-6226008D02*
X579586Y-6216484D01*
X579586Y-6216484D02*
X579586Y-6235531D01*
X703396Y-6416484D02*
X684348Y-6406960D01*
X684348Y-6406960D02*
X674824Y-6387912D01*
X674824Y-6387912D02*
X674824Y-6216484D01*
X808158Y-6416484D02*
X789110Y-6406960D01*
X789110Y-6406960D02*
X779586Y-6387912D01*
X779586Y-6387912D02*
X779586Y-6216484D01*
X1036729Y-6416484D02*
X1036729Y-6216484D01*
X1036729Y-6216484D02*
X1103396Y-6359341D01*
X1103396Y-6359341D02*
X1170063Y-6216484D01*
X1170063Y-6216484D02*
X1170063Y-6416484D01*
X1351015Y-6416484D02*
X1351015Y-6311722D01*
X1351015Y-6311722D02*
X1341491Y-6292674D01*
X1341491Y-6292674D02*
X1322444Y-6283150D01*
X1322444Y-6283150D02*
X1284348Y-6283150D01*
X1284348Y-6283150D02*
X1265301Y-6292674D01*
X1351015Y-6406960D02*
X1331967Y-6416484D01*
X1331967Y-6416484D02*
X1284348Y-6416484D01*
X1284348Y-6416484D02*
X1265301Y-6406960D01*
X1265301Y-6406960D02*
X1255777Y-6387912D01*
X1255777Y-6387912D02*
X1255777Y-6368865D01*
X1255777Y-6368865D02*
X1265301Y-6349817D01*
X1265301Y-6349817D02*
X1284348Y-6340293D01*
X1284348Y-6340293D02*
X1331967Y-6340293D01*
X1331967Y-6340293D02*
X1351015Y-6330769D01*
X1446253Y-6283150D02*
X1446253Y-6483150D01*
X1446253Y-6292674D02*
X1465301Y-6283150D01*
X1465301Y-6283150D02*
X1503396Y-6283150D01*
X1503396Y-6283150D02*
X1522443Y-6292674D01*
X1522443Y-6292674D02*
X1531967Y-6302198D01*
X1531967Y-6302198D02*
X1541491Y-6321246D01*
X1541491Y-6321246D02*
X1541491Y-6378388D01*
X1541491Y-6378388D02*
X1531967Y-6397436D01*
X1531967Y-6397436D02*
X1522443Y-6406960D01*
X1522443Y-6406960D02*
X1503396Y-6416484D01*
X1503396Y-6416484D02*
X1465301Y-6416484D01*
X1465301Y-6416484D02*
X1446253Y-6406960D01*
X1627205Y-6397436D02*
X1636729Y-6406960D01*
X1636729Y-6406960D02*
X1627205Y-6416484D01*
X1627205Y-6416484D02*
X1617682Y-6406960D01*
X1617682Y-6406960D02*
X1627205Y-6397436D01*
X1627205Y-6397436D02*
X1627205Y-6416484D01*
X1627205Y-6292674D02*
X1636729Y-6302198D01*
X1636729Y-6302198D02*
X1627205Y-6311722D01*
X1627205Y-6311722D02*
X1617682Y-6302198D01*
X1617682Y-6302198D02*
X1627205Y-6292674D01*
X1627205Y-6292674D02*
X1627205Y-6311722D01*
D10*
X-35000Y-6730000D02*
X-5000Y-6760000D01*
X-5000Y-6730000D02*
X-35000Y-6760000D01*
D11*
X293872Y-6636484D02*
X312920Y-6636484D01*
X312920Y-6636484D02*
X331967Y-6646008D01*
X331967Y-6646008D02*
X341491Y-6655531D01*
X341491Y-6655531D02*
X351015Y-6674579D01*
X351015Y-6674579D02*
X360539Y-6712674D01*
X360539Y-6712674D02*
X360539Y-6760293D01*
X360539Y-6760293D02*
X351015Y-6798388D01*
X351015Y-6798388D02*
X341491Y-6817436D01*
X341491Y-6817436D02*
X331967Y-6826960D01*
X331967Y-6826960D02*
X312920Y-6836484D01*
X312920Y-6836484D02*
X293872Y-6836484D01*
X293872Y-6836484D02*
X274824Y-6826960D01*
X274824Y-6826960D02*
X265301Y-6817436D01*
X265301Y-6817436D02*
X255777Y-6798388D01*
X255777Y-6798388D02*
X246253Y-6760293D01*
X246253Y-6760293D02*
X246253Y-6712674D01*
X246253Y-6712674D02*
X255777Y-6674579D01*
X255777Y-6674579D02*
X265301Y-6655531D01*
X265301Y-6655531D02*
X274824Y-6646008D01*
X274824Y-6646008D02*
X293872Y-6636484D01*
X446253Y-6817436D02*
X455777Y-6826960D01*
X455777Y-6826960D02*
X446253Y-6836484D01*
X446253Y-6836484D02*
X436729Y-6826960D01*
X436729Y-6826960D02*
X446253Y-6817436D01*
X446253Y-6817436D02*
X446253Y-6836484D01*
X522443Y-6636484D02*
X646253Y-6636484D01*
X646253Y-6636484D02*
X579586Y-6712674D01*
X579586Y-6712674D02*
X608158Y-6712674D01*
X608158Y-6712674D02*
X627205Y-6722198D01*
X627205Y-6722198D02*
X636729Y-6731722D01*
X636729Y-6731722D02*
X646253Y-6750769D01*
X646253Y-6750769D02*
X646253Y-6798388D01*
X646253Y-6798388D02*
X636729Y-6817436D01*
X636729Y-6817436D02*
X627205Y-6826960D01*
X627205Y-6826960D02*
X608158Y-6836484D01*
X608158Y-6836484D02*
X551015Y-6836484D01*
X551015Y-6836484D02*
X531967Y-6826960D01*
X531967Y-6826960D02*
X522443Y-6817436D01*
X770062Y-6636484D02*
X789110Y-6636484D01*
X789110Y-6636484D02*
X808158Y-6646008D01*
X808158Y-6646008D02*
X817682Y-6655531D01*
X817682Y-6655531D02*
X827205Y-6674579D01*
X827205Y-6674579D02*
X836729Y-6712674D01*
X836729Y-6712674D02*
X836729Y-6760293D01*
X836729Y-6760293D02*
X827205Y-6798388D01*
X827205Y-6798388D02*
X817682Y-6817436D01*
X817682Y-6817436D02*
X808158Y-6826960D01*
X808158Y-6826960D02*
X789110Y-6836484D01*
X789110Y-6836484D02*
X770062Y-6836484D01*
X770062Y-6836484D02*
X751015Y-6826960D01*
X751015Y-6826960D02*
X741491Y-6817436D01*
X741491Y-6817436D02*
X731967Y-6798388D01*
X731967Y-6798388D02*
X722443Y-6760293D01*
X722443Y-6760293D02*
X722443Y-6712674D01*
X722443Y-6712674D02*
X731967Y-6674579D01*
X731967Y-6674579D02*
X741491Y-6655531D01*
X741491Y-6655531D02*
X751015Y-6646008D01*
X751015Y-6646008D02*
X770062Y-6636484D01*
X960539Y-6636484D02*
X979586Y-6636484D01*
X979586Y-6636484D02*
X998634Y-6646008D01*
X998634Y-6646008D02*
X1008158Y-6655531D01*
X1008158Y-6655531D02*
X1017682Y-6674579D01*
X1017682Y-6674579D02*
X1027205Y-6712674D01*
X1027205Y-6712674D02*
X1027205Y-6760293D01*
X1027205Y-6760293D02*
X1017682Y-6798388D01*
X1017682Y-6798388D02*
X1008158Y-6817436D01*
X1008158Y-6817436D02*
X998634Y-6826960D01*
X998634Y-6826960D02*
X979586Y-6836484D01*
X979586Y-6836484D02*
X960539Y-6836484D01*
X960539Y-6836484D02*
X941491Y-6826960D01*
X941491Y-6826960D02*
X931967Y-6817436D01*
X931967Y-6817436D02*
X922443Y-6798388D01*
X922443Y-6798388D02*
X912920Y-6760293D01*
X912920Y-6760293D02*
X912920Y-6712674D01*
X912920Y-6712674D02*
X922443Y-6674579D01*
X922443Y-6674579D02*
X931967Y-6655531D01*
X931967Y-6655531D02*
X941491Y-6646008D01*
X941491Y-6646008D02*
X960539Y-6636484D01*
X1112920Y-6836484D02*
X1112920Y-6703150D01*
X1112920Y-6722198D02*
X1122444Y-6712674D01*
X1122444Y-6712674D02*
X1141491Y-6703150D01*
X1141491Y-6703150D02*
X1170063Y-6703150D01*
X1170063Y-6703150D02*
X1189110Y-6712674D01*
X1189110Y-6712674D02*
X1198634Y-6731722D01*
X1198634Y-6731722D02*
X1198634Y-6836484D01*
X1198634Y-6731722D02*
X1208158Y-6712674D01*
X1208158Y-6712674D02*
X1227205Y-6703150D01*
X1227205Y-6703150D02*
X1255777Y-6703150D01*
X1255777Y-6703150D02*
X1274825Y-6712674D01*
X1274825Y-6712674D02*
X1284348Y-6731722D01*
X1284348Y-6731722D02*
X1284348Y-6836484D01*
X1379586Y-6836484D02*
X1379586Y-6703150D01*
X1379586Y-6722198D02*
X1389110Y-6712674D01*
X1389110Y-6712674D02*
X1408158Y-6703150D01*
X1408158Y-6703150D02*
X1436729Y-6703150D01*
X1436729Y-6703150D02*
X1455777Y-6712674D01*
X1455777Y-6712674D02*
X1465301Y-6731722D01*
X1465301Y-6731722D02*
X1465301Y-6836484D01*
X1465301Y-6731722D02*
X1474824Y-6712674D01*
X1474824Y-6712674D02*
X1493872Y-6703150D01*
X1493872Y-6703150D02*
X1522443Y-6703150D01*
X1522443Y-6703150D02*
X1541491Y-6712674D01*
X1541491Y-6712674D02*
X1551015Y-6731722D01*
X1551015Y-6731722D02*
X1551015Y-6836484D01*
X1941491Y-6626960D02*
X1770063Y-6884103D01*
X2198634Y-6636484D02*
X2217682Y-6636484D01*
X2217682Y-6636484D02*
X2236729Y-6646008D01*
X2236729Y-6646008D02*
X2246253Y-6655531D01*
X2246253Y-6655531D02*
X2255777Y-6674579D01*
X2255777Y-6674579D02*
X2265301Y-6712674D01*
X2265301Y-6712674D02*
X2265301Y-6760293D01*
X2265301Y-6760293D02*
X2255777Y-6798388D01*
X2255777Y-6798388D02*
X2246253Y-6817436D01*
X2246253Y-6817436D02*
X2236729Y-6826960D01*
X2236729Y-6826960D02*
X2217682Y-6836484D01*
X2217682Y-6836484D02*
X2198634Y-6836484D01*
X2198634Y-6836484D02*
X2179587Y-6826960D01*
X2179587Y-6826960D02*
X2170063Y-6817436D01*
X2170063Y-6817436D02*
X2160539Y-6798388D01*
X2160539Y-6798388D02*
X2151015Y-6760293D01*
X2151015Y-6760293D02*
X2151015Y-6712674D01*
X2151015Y-6712674D02*
X2160539Y-6674579D01*
X2160539Y-6674579D02*
X2170063Y-6655531D01*
X2170063Y-6655531D02*
X2179587Y-6646008D01*
X2179587Y-6646008D02*
X2198634Y-6636484D01*
X2351015Y-6817436D02*
X2360539Y-6826960D01*
X2360539Y-6826960D02*
X2351015Y-6836484D01*
X2351015Y-6836484D02*
X2341491Y-6826960D01*
X2341491Y-6826960D02*
X2351015Y-6817436D01*
X2351015Y-6817436D02*
X2351015Y-6836484D01*
X2484348Y-6636484D02*
X2503396Y-6636484D01*
X2503396Y-6636484D02*
X2522444Y-6646008D01*
X2522444Y-6646008D02*
X2531968Y-6655531D01*
X2531968Y-6655531D02*
X2541491Y-6674579D01*
X2541491Y-6674579D02*
X2551015Y-6712674D01*
X2551015Y-6712674D02*
X2551015Y-6760293D01*
X2551015Y-6760293D02*
X2541491Y-6798388D01*
X2541491Y-6798388D02*
X2531968Y-6817436D01*
X2531968Y-6817436D02*
X2522444Y-6826960D01*
X2522444Y-6826960D02*
X2503396Y-6836484D01*
X2503396Y-6836484D02*
X2484348Y-6836484D01*
X2484348Y-6836484D02*
X2465301Y-6826960D01*
X2465301Y-6826960D02*
X2455777Y-6817436D01*
X2455777Y-6817436D02*
X2446253Y-6798388D01*
X2446253Y-6798388D02*
X2436729Y-6760293D01*
X2436729Y-6760293D02*
X2436729Y-6712674D01*
X2436729Y-6712674D02*
X2446253Y-6674579D01*
X2446253Y-6674579D02*
X2455777Y-6655531D01*
X2455777Y-6655531D02*
X2465301Y-6646008D01*
X2465301Y-6646008D02*
X2484348Y-6636484D01*
X2741491Y-6836484D02*
X2627206Y-6836484D01*
X2684348Y-6836484D02*
X2684348Y-6636484D01*
X2684348Y-6636484D02*
X2665301Y-6665055D01*
X2665301Y-6665055D02*
X2646253Y-6684103D01*
X2646253Y-6684103D02*
X2627206Y-6693627D01*
X2931967Y-6836484D02*
X2817682Y-6836484D01*
X2874825Y-6836484D02*
X2874825Y-6636484D01*
X2874825Y-6636484D02*
X2855777Y-6665055D01*
X2855777Y-6665055D02*
X2836729Y-6684103D01*
X2836729Y-6684103D02*
X2817682Y-6693627D01*
X3046253Y-6722198D02*
X3027206Y-6712674D01*
X3027206Y-6712674D02*
X3017682Y-6703150D01*
X3017682Y-6703150D02*
X3008158Y-6684103D01*
X3008158Y-6684103D02*
X3008158Y-6674579D01*
X3008158Y-6674579D02*
X3017682Y-6655531D01*
X3017682Y-6655531D02*
X3027206Y-6646008D01*
X3027206Y-6646008D02*
X3046253Y-6636484D01*
X3046253Y-6636484D02*
X3084348Y-6636484D01*
X3084348Y-6636484D02*
X3103396Y-6646008D01*
X3103396Y-6646008D02*
X3112920Y-6655531D01*
X3112920Y-6655531D02*
X3122444Y-6674579D01*
X3122444Y-6674579D02*
X3122444Y-6684103D01*
X3122444Y-6684103D02*
X3112920Y-6703150D01*
X3112920Y-6703150D02*
X3103396Y-6712674D01*
X3103396Y-6712674D02*
X3084348Y-6722198D01*
X3084348Y-6722198D02*
X3046253Y-6722198D01*
X3046253Y-6722198D02*
X3027206Y-6731722D01*
X3027206Y-6731722D02*
X3017682Y-6741246D01*
X3017682Y-6741246D02*
X3008158Y-6760293D01*
X3008158Y-6760293D02*
X3008158Y-6798388D01*
X3008158Y-6798388D02*
X3017682Y-6817436D01*
X3017682Y-6817436D02*
X3027206Y-6826960D01*
X3027206Y-6826960D02*
X3046253Y-6836484D01*
X3046253Y-6836484D02*
X3084348Y-6836484D01*
X3084348Y-6836484D02*
X3103396Y-6826960D01*
X3103396Y-6826960D02*
X3112920Y-6817436D01*
X3112920Y-6817436D02*
X3122444Y-6798388D01*
X3122444Y-6798388D02*
X3122444Y-6760293D01*
X3122444Y-6760293D02*
X3112920Y-6741246D01*
X3112920Y-6741246D02*
X3103396Y-6731722D01*
X3103396Y-6731722D02*
X3084348Y-6722198D01*
X3198634Y-6636484D02*
X3198634Y-6674579D01*
X3274825Y-6636484D02*
X3274825Y-6674579D01*
X3570063Y-6912674D02*
X3560539Y-6903150D01*
X3560539Y-6903150D02*
X3541491Y-6874579D01*
X3541491Y-6874579D02*
X3531968Y-6855531D01*
X3531968Y-6855531D02*
X3522444Y-6826960D01*
X3522444Y-6826960D02*
X3512920Y-6779341D01*
X3512920Y-6779341D02*
X3512920Y-6741246D01*
X3512920Y-6741246D02*
X3522444Y-6693627D01*
X3522444Y-6693627D02*
X3531968Y-6665055D01*
X3531968Y-6665055D02*
X3541491Y-6646008D01*
X3541491Y-6646008D02*
X3560539Y-6617436D01*
X3560539Y-6617436D02*
X3570063Y-6607912D01*
X3741491Y-6636484D02*
X3646253Y-6636484D01*
X3646253Y-6636484D02*
X3636729Y-6731722D01*
X3636729Y-6731722D02*
X3646253Y-6722198D01*
X3646253Y-6722198D02*
X3665301Y-6712674D01*
X3665301Y-6712674D02*
X3712920Y-6712674D01*
X3712920Y-6712674D02*
X3731968Y-6722198D01*
X3731968Y-6722198D02*
X3741491Y-6731722D01*
X3741491Y-6731722D02*
X3751015Y-6750769D01*
X3751015Y-6750769D02*
X3751015Y-6798388D01*
X3751015Y-6798388D02*
X3741491Y-6817436D01*
X3741491Y-6817436D02*
X3731968Y-6826960D01*
X3731968Y-6826960D02*
X3712920Y-6836484D01*
X3712920Y-6836484D02*
X3665301Y-6836484D01*
X3665301Y-6836484D02*
X3646253Y-6826960D01*
X3646253Y-6826960D02*
X3636729Y-6817436D01*
X3827206Y-6655531D02*
X3836729Y-6646008D01*
X3836729Y-6646008D02*
X3855777Y-6636484D01*
X3855777Y-6636484D02*
X3903396Y-6636484D01*
X3903396Y-6636484D02*
X3922444Y-6646008D01*
X3922444Y-6646008D02*
X3931968Y-6655531D01*
X3931968Y-6655531D02*
X3941491Y-6674579D01*
X3941491Y-6674579D02*
X3941491Y-6693627D01*
X3941491Y-6693627D02*
X3931968Y-6722198D01*
X3931968Y-6722198D02*
X3817682Y-6836484D01*
X3817682Y-6836484D02*
X3941491Y-6836484D01*
X4179587Y-6836484D02*
X4179587Y-6636484D01*
X4265301Y-6836484D02*
X4265301Y-6731722D01*
X4265301Y-6731722D02*
X4255777Y-6712674D01*
X4255777Y-6712674D02*
X4236730Y-6703150D01*
X4236730Y-6703150D02*
X4208158Y-6703150D01*
X4208158Y-6703150D02*
X4189110Y-6712674D01*
X4189110Y-6712674D02*
X4179587Y-6722198D01*
X4389111Y-6836484D02*
X4370063Y-6826960D01*
X4370063Y-6826960D02*
X4360539Y-6817436D01*
X4360539Y-6817436D02*
X4351015Y-6798388D01*
X4351015Y-6798388D02*
X4351015Y-6741246D01*
X4351015Y-6741246D02*
X4360539Y-6722198D01*
X4360539Y-6722198D02*
X4370063Y-6712674D01*
X4370063Y-6712674D02*
X4389111Y-6703150D01*
X4389111Y-6703150D02*
X4417682Y-6703150D01*
X4417682Y-6703150D02*
X4436730Y-6712674D01*
X4436730Y-6712674D02*
X4446253Y-6722198D01*
X4446253Y-6722198D02*
X4455777Y-6741246D01*
X4455777Y-6741246D02*
X4455777Y-6798388D01*
X4455777Y-6798388D02*
X4446253Y-6817436D01*
X4446253Y-6817436D02*
X4436730Y-6826960D01*
X4436730Y-6826960D02*
X4417682Y-6836484D01*
X4417682Y-6836484D02*
X4389111Y-6836484D01*
X4570063Y-6836484D02*
X4551015Y-6826960D01*
X4551015Y-6826960D02*
X4541492Y-6807912D01*
X4541492Y-6807912D02*
X4541492Y-6636484D01*
X4722444Y-6826960D02*
X4703396Y-6836484D01*
X4703396Y-6836484D02*
X4665301Y-6836484D01*
X4665301Y-6836484D02*
X4646253Y-6826960D01*
X4646253Y-6826960D02*
X4636730Y-6807912D01*
X4636730Y-6807912D02*
X4636730Y-6731722D01*
X4636730Y-6731722D02*
X4646253Y-6712674D01*
X4646253Y-6712674D02*
X4665301Y-6703150D01*
X4665301Y-6703150D02*
X4703396Y-6703150D01*
X4703396Y-6703150D02*
X4722444Y-6712674D01*
X4722444Y-6712674D02*
X4731968Y-6731722D01*
X4731968Y-6731722D02*
X4731968Y-6750769D01*
X4731968Y-6750769D02*
X4636730Y-6769817D01*
X4808158Y-6826960D02*
X4827206Y-6836484D01*
X4827206Y-6836484D02*
X4865301Y-6836484D01*
X4865301Y-6836484D02*
X4884349Y-6826960D01*
X4884349Y-6826960D02*
X4893873Y-6807912D01*
X4893873Y-6807912D02*
X4893873Y-6798388D01*
X4893873Y-6798388D02*
X4884349Y-6779341D01*
X4884349Y-6779341D02*
X4865301Y-6769817D01*
X4865301Y-6769817D02*
X4836730Y-6769817D01*
X4836730Y-6769817D02*
X4817682Y-6760293D01*
X4817682Y-6760293D02*
X4808158Y-6741246D01*
X4808158Y-6741246D02*
X4808158Y-6731722D01*
X4808158Y-6731722D02*
X4817682Y-6712674D01*
X4817682Y-6712674D02*
X4836730Y-6703150D01*
X4836730Y-6703150D02*
X4865301Y-6703150D01*
X4865301Y-6703150D02*
X4884349Y-6712674D01*
X4960539Y-6912674D02*
X4970063Y-6903150D01*
X4970063Y-6903150D02*
X4989111Y-6874579D01*
X4989111Y-6874579D02*
X4998634Y-6855531D01*
X4998634Y-6855531D02*
X5008158Y-6826960D01*
X5008158Y-6826960D02*
X5017682Y-6779341D01*
X5017682Y-6779341D02*
X5017682Y-6741246D01*
X5017682Y-6741246D02*
X5008158Y-6693627D01*
X5008158Y-6693627D02*
X4998634Y-6665055D01*
X4998634Y-6665055D02*
X4989111Y-6646008D01*
X4989111Y-6646008D02*
X4970063Y-6617436D01*
X4970063Y-6617436D02*
X4960539Y-6607912D01*
D10*
X-5000Y-7009000D02*
G75*
G02*
X-35000Y-7009000I-15000J0D01*
G01*
X-35000Y-7009000D02*
G75*
G02*
X-5000Y-7009000I15000J0D01*
G01*
D11*
X293872Y-6900484D02*
X312920Y-6900484D01*
X312920Y-6900484D02*
X331967Y-6910008D01*
X331967Y-6910008D02*
X341491Y-6919531D01*
X341491Y-6919531D02*
X351015Y-6938579D01*
X351015Y-6938579D02*
X360539Y-6976674D01*
X360539Y-6976674D02*
X360539Y-7024293D01*
X360539Y-7024293D02*
X351015Y-7062388D01*
X351015Y-7062388D02*
X341491Y-7081436D01*
X341491Y-7081436D02*
X331967Y-7090960D01*
X331967Y-7090960D02*
X312920Y-7100484D01*
X312920Y-7100484D02*
X293872Y-7100484D01*
X293872Y-7100484D02*
X274824Y-7090960D01*
X274824Y-7090960D02*
X265301Y-7081436D01*
X265301Y-7081436D02*
X255777Y-7062388D01*
X255777Y-7062388D02*
X246253Y-7024293D01*
X246253Y-7024293D02*
X246253Y-6976674D01*
X246253Y-6976674D02*
X255777Y-6938579D01*
X255777Y-6938579D02*
X265301Y-6919531D01*
X265301Y-6919531D02*
X274824Y-6910008D01*
X274824Y-6910008D02*
X293872Y-6900484D01*
X446253Y-7081436D02*
X455777Y-7090960D01*
X455777Y-7090960D02*
X446253Y-7100484D01*
X446253Y-7100484D02*
X436729Y-7090960D01*
X436729Y-7090960D02*
X446253Y-7081436D01*
X446253Y-7081436D02*
X446253Y-7100484D01*
X522443Y-6900484D02*
X646253Y-6900484D01*
X646253Y-6900484D02*
X579586Y-6976674D01*
X579586Y-6976674D02*
X608158Y-6976674D01*
X608158Y-6976674D02*
X627205Y-6986198D01*
X627205Y-6986198D02*
X636729Y-6995722D01*
X636729Y-6995722D02*
X646253Y-7014769D01*
X646253Y-7014769D02*
X646253Y-7062388D01*
X646253Y-7062388D02*
X636729Y-7081436D01*
X636729Y-7081436D02*
X627205Y-7090960D01*
X627205Y-7090960D02*
X608158Y-7100484D01*
X608158Y-7100484D02*
X551015Y-7100484D01*
X551015Y-7100484D02*
X531967Y-7090960D01*
X531967Y-7090960D02*
X522443Y-7081436D01*
X770062Y-6900484D02*
X789110Y-6900484D01*
X789110Y-6900484D02*
X808158Y-6910008D01*
X808158Y-6910008D02*
X817682Y-6919531D01*
X817682Y-6919531D02*
X827205Y-6938579D01*
X827205Y-6938579D02*
X836729Y-6976674D01*
X836729Y-6976674D02*
X836729Y-7024293D01*
X836729Y-7024293D02*
X827205Y-7062388D01*
X827205Y-7062388D02*
X817682Y-7081436D01*
X817682Y-7081436D02*
X808158Y-7090960D01*
X808158Y-7090960D02*
X789110Y-7100484D01*
X789110Y-7100484D02*
X770062Y-7100484D01*
X770062Y-7100484D02*
X751015Y-7090960D01*
X751015Y-7090960D02*
X741491Y-7081436D01*
X741491Y-7081436D02*
X731967Y-7062388D01*
X731967Y-7062388D02*
X722443Y-7024293D01*
X722443Y-7024293D02*
X722443Y-6976674D01*
X722443Y-6976674D02*
X731967Y-6938579D01*
X731967Y-6938579D02*
X741491Y-6919531D01*
X741491Y-6919531D02*
X751015Y-6910008D01*
X751015Y-6910008D02*
X770062Y-6900484D01*
X960539Y-6900484D02*
X979586Y-6900484D01*
X979586Y-6900484D02*
X998634Y-6910008D01*
X998634Y-6910008D02*
X1008158Y-6919531D01*
X1008158Y-6919531D02*
X1017682Y-6938579D01*
X1017682Y-6938579D02*
X1027205Y-6976674D01*
X1027205Y-6976674D02*
X1027205Y-7024293D01*
X1027205Y-7024293D02*
X1017682Y-7062388D01*
X1017682Y-7062388D02*
X1008158Y-7081436D01*
X1008158Y-7081436D02*
X998634Y-7090960D01*
X998634Y-7090960D02*
X979586Y-7100484D01*
X979586Y-7100484D02*
X960539Y-7100484D01*
X960539Y-7100484D02*
X941491Y-7090960D01*
X941491Y-7090960D02*
X931967Y-7081436D01*
X931967Y-7081436D02*
X922443Y-7062388D01*
X922443Y-7062388D02*
X912920Y-7024293D01*
X912920Y-7024293D02*
X912920Y-6976674D01*
X912920Y-6976674D02*
X922443Y-6938579D01*
X922443Y-6938579D02*
X931967Y-6919531D01*
X931967Y-6919531D02*
X941491Y-6910008D01*
X941491Y-6910008D02*
X960539Y-6900484D01*
X1112920Y-7100484D02*
X1112920Y-6967150D01*
X1112920Y-6986198D02*
X1122444Y-6976674D01*
X1122444Y-6976674D02*
X1141491Y-6967150D01*
X1141491Y-6967150D02*
X1170063Y-6967150D01*
X1170063Y-6967150D02*
X1189110Y-6976674D01*
X1189110Y-6976674D02*
X1198634Y-6995722D01*
X1198634Y-6995722D02*
X1198634Y-7100484D01*
X1198634Y-6995722D02*
X1208158Y-6976674D01*
X1208158Y-6976674D02*
X1227205Y-6967150D01*
X1227205Y-6967150D02*
X1255777Y-6967150D01*
X1255777Y-6967150D02*
X1274825Y-6976674D01*
X1274825Y-6976674D02*
X1284348Y-6995722D01*
X1284348Y-6995722D02*
X1284348Y-7100484D01*
X1379586Y-7100484D02*
X1379586Y-6967150D01*
X1379586Y-6986198D02*
X1389110Y-6976674D01*
X1389110Y-6976674D02*
X1408158Y-6967150D01*
X1408158Y-6967150D02*
X1436729Y-6967150D01*
X1436729Y-6967150D02*
X1455777Y-6976674D01*
X1455777Y-6976674D02*
X1465301Y-6995722D01*
X1465301Y-6995722D02*
X1465301Y-7100484D01*
X1465301Y-6995722D02*
X1474824Y-6976674D01*
X1474824Y-6976674D02*
X1493872Y-6967150D01*
X1493872Y-6967150D02*
X1522443Y-6967150D01*
X1522443Y-6967150D02*
X1541491Y-6976674D01*
X1541491Y-6976674D02*
X1551015Y-6995722D01*
X1551015Y-6995722D02*
X1551015Y-7100484D01*
X1941491Y-6890960D02*
X1770063Y-7148103D01*
X2198634Y-6900484D02*
X2217682Y-6900484D01*
X2217682Y-6900484D02*
X2236729Y-6910008D01*
X2236729Y-6910008D02*
X2246253Y-6919531D01*
X2246253Y-6919531D02*
X2255777Y-6938579D01*
X2255777Y-6938579D02*
X2265301Y-6976674D01*
X2265301Y-6976674D02*
X2265301Y-7024293D01*
X2265301Y-7024293D02*
X2255777Y-7062388D01*
X2255777Y-7062388D02*
X2246253Y-7081436D01*
X2246253Y-7081436D02*
X2236729Y-7090960D01*
X2236729Y-7090960D02*
X2217682Y-7100484D01*
X2217682Y-7100484D02*
X2198634Y-7100484D01*
X2198634Y-7100484D02*
X2179587Y-7090960D01*
X2179587Y-7090960D02*
X2170063Y-7081436D01*
X2170063Y-7081436D02*
X2160539Y-7062388D01*
X2160539Y-7062388D02*
X2151015Y-7024293D01*
X2151015Y-7024293D02*
X2151015Y-6976674D01*
X2151015Y-6976674D02*
X2160539Y-6938579D01*
X2160539Y-6938579D02*
X2170063Y-6919531D01*
X2170063Y-6919531D02*
X2179587Y-6910008D01*
X2179587Y-6910008D02*
X2198634Y-6900484D01*
X2351015Y-7081436D02*
X2360539Y-7090960D01*
X2360539Y-7090960D02*
X2351015Y-7100484D01*
X2351015Y-7100484D02*
X2341491Y-7090960D01*
X2341491Y-7090960D02*
X2351015Y-7081436D01*
X2351015Y-7081436D02*
X2351015Y-7100484D01*
X2484348Y-6900484D02*
X2503396Y-6900484D01*
X2503396Y-6900484D02*
X2522444Y-6910008D01*
X2522444Y-6910008D02*
X2531968Y-6919531D01*
X2531968Y-6919531D02*
X2541491Y-6938579D01*
X2541491Y-6938579D02*
X2551015Y-6976674D01*
X2551015Y-6976674D02*
X2551015Y-7024293D01*
X2551015Y-7024293D02*
X2541491Y-7062388D01*
X2541491Y-7062388D02*
X2531968Y-7081436D01*
X2531968Y-7081436D02*
X2522444Y-7090960D01*
X2522444Y-7090960D02*
X2503396Y-7100484D01*
X2503396Y-7100484D02*
X2484348Y-7100484D01*
X2484348Y-7100484D02*
X2465301Y-7090960D01*
X2465301Y-7090960D02*
X2455777Y-7081436D01*
X2455777Y-7081436D02*
X2446253Y-7062388D01*
X2446253Y-7062388D02*
X2436729Y-7024293D01*
X2436729Y-7024293D02*
X2436729Y-6976674D01*
X2436729Y-6976674D02*
X2446253Y-6938579D01*
X2446253Y-6938579D02*
X2455777Y-6919531D01*
X2455777Y-6919531D02*
X2465301Y-6910008D01*
X2465301Y-6910008D02*
X2484348Y-6900484D01*
X2741491Y-7100484D02*
X2627206Y-7100484D01*
X2684348Y-7100484D02*
X2684348Y-6900484D01*
X2684348Y-6900484D02*
X2665301Y-6929055D01*
X2665301Y-6929055D02*
X2646253Y-6948103D01*
X2646253Y-6948103D02*
X2627206Y-6957627D01*
X2931967Y-7100484D02*
X2817682Y-7100484D01*
X2874825Y-7100484D02*
X2874825Y-6900484D01*
X2874825Y-6900484D02*
X2855777Y-6929055D01*
X2855777Y-6929055D02*
X2836729Y-6948103D01*
X2836729Y-6948103D02*
X2817682Y-6957627D01*
X3046253Y-6986198D02*
X3027206Y-6976674D01*
X3027206Y-6976674D02*
X3017682Y-6967150D01*
X3017682Y-6967150D02*
X3008158Y-6948103D01*
X3008158Y-6948103D02*
X3008158Y-6938579D01*
X3008158Y-6938579D02*
X3017682Y-6919531D01*
X3017682Y-6919531D02*
X3027206Y-6910008D01*
X3027206Y-6910008D02*
X3046253Y-6900484D01*
X3046253Y-6900484D02*
X3084348Y-6900484D01*
X3084348Y-6900484D02*
X3103396Y-6910008D01*
X3103396Y-6910008D02*
X3112920Y-6919531D01*
X3112920Y-6919531D02*
X3122444Y-6938579D01*
X3122444Y-6938579D02*
X3122444Y-6948103D01*
X3122444Y-6948103D02*
X3112920Y-6967150D01*
X3112920Y-6967150D02*
X3103396Y-6976674D01*
X3103396Y-6976674D02*
X3084348Y-6986198D01*
X3084348Y-6986198D02*
X3046253Y-6986198D01*
X3046253Y-6986198D02*
X3027206Y-6995722D01*
X3027206Y-6995722D02*
X3017682Y-7005246D01*
X3017682Y-7005246D02*
X3008158Y-7024293D01*
X3008158Y-7024293D02*
X3008158Y-7062388D01*
X3008158Y-7062388D02*
X3017682Y-7081436D01*
X3017682Y-7081436D02*
X3027206Y-7090960D01*
X3027206Y-7090960D02*
X3046253Y-7100484D01*
X3046253Y-7100484D02*
X3084348Y-7100484D01*
X3084348Y-7100484D02*
X3103396Y-7090960D01*
X3103396Y-7090960D02*
X3112920Y-7081436D01*
X3112920Y-7081436D02*
X3122444Y-7062388D01*
X3122444Y-7062388D02*
X3122444Y-7024293D01*
X3122444Y-7024293D02*
X3112920Y-7005246D01*
X3112920Y-7005246D02*
X3103396Y-6995722D01*
X3103396Y-6995722D02*
X3084348Y-6986198D01*
X3198634Y-6900484D02*
X3198634Y-6938579D01*
X3274825Y-6900484D02*
X3274825Y-6938579D01*
X3570063Y-7176674D02*
X3560539Y-7167150D01*
X3560539Y-7167150D02*
X3541491Y-7138579D01*
X3541491Y-7138579D02*
X3531968Y-7119531D01*
X3531968Y-7119531D02*
X3522444Y-7090960D01*
X3522444Y-7090960D02*
X3512920Y-7043341D01*
X3512920Y-7043341D02*
X3512920Y-7005246D01*
X3512920Y-7005246D02*
X3522444Y-6957627D01*
X3522444Y-6957627D02*
X3531968Y-6929055D01*
X3531968Y-6929055D02*
X3541491Y-6910008D01*
X3541491Y-6910008D02*
X3560539Y-6881436D01*
X3560539Y-6881436D02*
X3570063Y-6871912D01*
X3751015Y-7100484D02*
X3636729Y-7100484D01*
X3693872Y-7100484D02*
X3693872Y-6900484D01*
X3693872Y-6900484D02*
X3674825Y-6929055D01*
X3674825Y-6929055D02*
X3655777Y-6948103D01*
X3655777Y-6948103D02*
X3636729Y-6957627D01*
X3827206Y-6919531D02*
X3836729Y-6910008D01*
X3836729Y-6910008D02*
X3855777Y-6900484D01*
X3855777Y-6900484D02*
X3903396Y-6900484D01*
X3903396Y-6900484D02*
X3922444Y-6910008D01*
X3922444Y-6910008D02*
X3931968Y-6919531D01*
X3931968Y-6919531D02*
X3941491Y-6938579D01*
X3941491Y-6938579D02*
X3941491Y-6957627D01*
X3941491Y-6957627D02*
X3931968Y-6986198D01*
X3931968Y-6986198D02*
X3817682Y-7100484D01*
X3817682Y-7100484D02*
X3941491Y-7100484D01*
X4179587Y-7100484D02*
X4179587Y-6900484D01*
X4265301Y-7100484D02*
X4265301Y-6995722D01*
X4265301Y-6995722D02*
X4255777Y-6976674D01*
X4255777Y-6976674D02*
X4236730Y-6967150D01*
X4236730Y-6967150D02*
X4208158Y-6967150D01*
X4208158Y-6967150D02*
X4189110Y-6976674D01*
X4189110Y-6976674D02*
X4179587Y-6986198D01*
X4389111Y-7100484D02*
X4370063Y-7090960D01*
X4370063Y-7090960D02*
X4360539Y-7081436D01*
X4360539Y-7081436D02*
X4351015Y-7062388D01*
X4351015Y-7062388D02*
X4351015Y-7005246D01*
X4351015Y-7005246D02*
X4360539Y-6986198D01*
X4360539Y-6986198D02*
X4370063Y-6976674D01*
X4370063Y-6976674D02*
X4389111Y-6967150D01*
X4389111Y-6967150D02*
X4417682Y-6967150D01*
X4417682Y-6967150D02*
X4436730Y-6976674D01*
X4436730Y-6976674D02*
X4446253Y-6986198D01*
X4446253Y-6986198D02*
X4455777Y-7005246D01*
X4455777Y-7005246D02*
X4455777Y-7062388D01*
X4455777Y-7062388D02*
X4446253Y-7081436D01*
X4446253Y-7081436D02*
X4436730Y-7090960D01*
X4436730Y-7090960D02*
X4417682Y-7100484D01*
X4417682Y-7100484D02*
X4389111Y-7100484D01*
X4570063Y-7100484D02*
X4551015Y-7090960D01*
X4551015Y-7090960D02*
X4541492Y-7071912D01*
X4541492Y-7071912D02*
X4541492Y-6900484D01*
X4722444Y-7090960D02*
X4703396Y-7100484D01*
X4703396Y-7100484D02*
X4665301Y-7100484D01*
X4665301Y-7100484D02*
X4646253Y-7090960D01*
X4646253Y-7090960D02*
X4636730Y-7071912D01*
X4636730Y-7071912D02*
X4636730Y-6995722D01*
X4636730Y-6995722D02*
X4646253Y-6976674D01*
X4646253Y-6976674D02*
X4665301Y-6967150D01*
X4665301Y-6967150D02*
X4703396Y-6967150D01*
X4703396Y-6967150D02*
X4722444Y-6976674D01*
X4722444Y-6976674D02*
X4731968Y-6995722D01*
X4731968Y-6995722D02*
X4731968Y-7014769D01*
X4731968Y-7014769D02*
X4636730Y-7033817D01*
X4808158Y-7090960D02*
X4827206Y-7100484D01*
X4827206Y-7100484D02*
X4865301Y-7100484D01*
X4865301Y-7100484D02*
X4884349Y-7090960D01*
X4884349Y-7090960D02*
X4893873Y-7071912D01*
X4893873Y-7071912D02*
X4893873Y-7062388D01*
X4893873Y-7062388D02*
X4884349Y-7043341D01*
X4884349Y-7043341D02*
X4865301Y-7033817D01*
X4865301Y-7033817D02*
X4836730Y-7033817D01*
X4836730Y-7033817D02*
X4817682Y-7024293D01*
X4817682Y-7024293D02*
X4808158Y-7005246D01*
X4808158Y-7005246D02*
X4808158Y-6995722D01*
X4808158Y-6995722D02*
X4817682Y-6976674D01*
X4817682Y-6976674D02*
X4836730Y-6967150D01*
X4836730Y-6967150D02*
X4865301Y-6967150D01*
X4865301Y-6967150D02*
X4884349Y-6976674D01*
X4960539Y-7176674D02*
X4970063Y-7167150D01*
X4970063Y-7167150D02*
X4989111Y-7138579D01*
X4989111Y-7138579D02*
X4998634Y-7119531D01*
X4998634Y-7119531D02*
X5008158Y-7090960D01*
X5008158Y-7090960D02*
X5017682Y-7043341D01*
X5017682Y-7043341D02*
X5017682Y-7005246D01*
X5017682Y-7005246D02*
X5008158Y-6957627D01*
X5008158Y-6957627D02*
X4998634Y-6929055D01*
X4998634Y-6929055D02*
X4989111Y-6910008D01*
X4989111Y-6910008D02*
X4970063Y-6881436D01*
X4970063Y-6881436D02*
X4960539Y-6871912D01*
D10*
X-25000Y-7253000D02*
X-25000Y-7293000D01*
X-45000Y-7273000D02*
X-5000Y-7273000D01*
D11*
X293872Y-7164484D02*
X312920Y-7164484D01*
X312920Y-7164484D02*
X331967Y-7174008D01*
X331967Y-7174008D02*
X341491Y-7183531D01*
X341491Y-7183531D02*
X351015Y-7202579D01*
X351015Y-7202579D02*
X360539Y-7240674D01*
X360539Y-7240674D02*
X360539Y-7288293D01*
X360539Y-7288293D02*
X351015Y-7326388D01*
X351015Y-7326388D02*
X341491Y-7345436D01*
X341491Y-7345436D02*
X331967Y-7354960D01*
X331967Y-7354960D02*
X312920Y-7364484D01*
X312920Y-7364484D02*
X293872Y-7364484D01*
X293872Y-7364484D02*
X274824Y-7354960D01*
X274824Y-7354960D02*
X265301Y-7345436D01*
X265301Y-7345436D02*
X255777Y-7326388D01*
X255777Y-7326388D02*
X246253Y-7288293D01*
X246253Y-7288293D02*
X246253Y-7240674D01*
X246253Y-7240674D02*
X255777Y-7202579D01*
X255777Y-7202579D02*
X265301Y-7183531D01*
X265301Y-7183531D02*
X274824Y-7174008D01*
X274824Y-7174008D02*
X293872Y-7164484D01*
X446253Y-7345436D02*
X455777Y-7354960D01*
X455777Y-7354960D02*
X446253Y-7364484D01*
X446253Y-7364484D02*
X436729Y-7354960D01*
X436729Y-7354960D02*
X446253Y-7345436D01*
X446253Y-7345436D02*
X446253Y-7364484D01*
X627205Y-7231150D02*
X627205Y-7364484D01*
X579586Y-7154960D02*
X531967Y-7297817D01*
X531967Y-7297817D02*
X655777Y-7297817D01*
X770062Y-7164484D02*
X789110Y-7164484D01*
X789110Y-7164484D02*
X808158Y-7174008D01*
X808158Y-7174008D02*
X817682Y-7183531D01*
X817682Y-7183531D02*
X827205Y-7202579D01*
X827205Y-7202579D02*
X836729Y-7240674D01*
X836729Y-7240674D02*
X836729Y-7288293D01*
X836729Y-7288293D02*
X827205Y-7326388D01*
X827205Y-7326388D02*
X817682Y-7345436D01*
X817682Y-7345436D02*
X808158Y-7354960D01*
X808158Y-7354960D02*
X789110Y-7364484D01*
X789110Y-7364484D02*
X770062Y-7364484D01*
X770062Y-7364484D02*
X751015Y-7354960D01*
X751015Y-7354960D02*
X741491Y-7345436D01*
X741491Y-7345436D02*
X731967Y-7326388D01*
X731967Y-7326388D02*
X722443Y-7288293D01*
X722443Y-7288293D02*
X722443Y-7240674D01*
X722443Y-7240674D02*
X731967Y-7202579D01*
X731967Y-7202579D02*
X741491Y-7183531D01*
X741491Y-7183531D02*
X751015Y-7174008D01*
X751015Y-7174008D02*
X770062Y-7164484D01*
X960539Y-7164484D02*
X979586Y-7164484D01*
X979586Y-7164484D02*
X998634Y-7174008D01*
X998634Y-7174008D02*
X1008158Y-7183531D01*
X1008158Y-7183531D02*
X1017682Y-7202579D01*
X1017682Y-7202579D02*
X1027205Y-7240674D01*
X1027205Y-7240674D02*
X1027205Y-7288293D01*
X1027205Y-7288293D02*
X1017682Y-7326388D01*
X1017682Y-7326388D02*
X1008158Y-7345436D01*
X1008158Y-7345436D02*
X998634Y-7354960D01*
X998634Y-7354960D02*
X979586Y-7364484D01*
X979586Y-7364484D02*
X960539Y-7364484D01*
X960539Y-7364484D02*
X941491Y-7354960D01*
X941491Y-7354960D02*
X931967Y-7345436D01*
X931967Y-7345436D02*
X922443Y-7326388D01*
X922443Y-7326388D02*
X912920Y-7288293D01*
X912920Y-7288293D02*
X912920Y-7240674D01*
X912920Y-7240674D02*
X922443Y-7202579D01*
X922443Y-7202579D02*
X931967Y-7183531D01*
X931967Y-7183531D02*
X941491Y-7174008D01*
X941491Y-7174008D02*
X960539Y-7164484D01*
X1112920Y-7364484D02*
X1112920Y-7231150D01*
X1112920Y-7250198D02*
X1122444Y-7240674D01*
X1122444Y-7240674D02*
X1141491Y-7231150D01*
X1141491Y-7231150D02*
X1170063Y-7231150D01*
X1170063Y-7231150D02*
X1189110Y-7240674D01*
X1189110Y-7240674D02*
X1198634Y-7259722D01*
X1198634Y-7259722D02*
X1198634Y-7364484D01*
X1198634Y-7259722D02*
X1208158Y-7240674D01*
X1208158Y-7240674D02*
X1227205Y-7231150D01*
X1227205Y-7231150D02*
X1255777Y-7231150D01*
X1255777Y-7231150D02*
X1274825Y-7240674D01*
X1274825Y-7240674D02*
X1284348Y-7259722D01*
X1284348Y-7259722D02*
X1284348Y-7364484D01*
X1379586Y-7364484D02*
X1379586Y-7231150D01*
X1379586Y-7250198D02*
X1389110Y-7240674D01*
X1389110Y-7240674D02*
X1408158Y-7231150D01*
X1408158Y-7231150D02*
X1436729Y-7231150D01*
X1436729Y-7231150D02*
X1455777Y-7240674D01*
X1455777Y-7240674D02*
X1465301Y-7259722D01*
X1465301Y-7259722D02*
X1465301Y-7364484D01*
X1465301Y-7259722D02*
X1474824Y-7240674D01*
X1474824Y-7240674D02*
X1493872Y-7231150D01*
X1493872Y-7231150D02*
X1522443Y-7231150D01*
X1522443Y-7231150D02*
X1541491Y-7240674D01*
X1541491Y-7240674D02*
X1551015Y-7259722D01*
X1551015Y-7259722D02*
X1551015Y-7364484D01*
X1941491Y-7154960D02*
X1770063Y-7412103D01*
X2198634Y-7164484D02*
X2217682Y-7164484D01*
X2217682Y-7164484D02*
X2236729Y-7174008D01*
X2236729Y-7174008D02*
X2246253Y-7183531D01*
X2246253Y-7183531D02*
X2255777Y-7202579D01*
X2255777Y-7202579D02*
X2265301Y-7240674D01*
X2265301Y-7240674D02*
X2265301Y-7288293D01*
X2265301Y-7288293D02*
X2255777Y-7326388D01*
X2255777Y-7326388D02*
X2246253Y-7345436D01*
X2246253Y-7345436D02*
X2236729Y-7354960D01*
X2236729Y-7354960D02*
X2217682Y-7364484D01*
X2217682Y-7364484D02*
X2198634Y-7364484D01*
X2198634Y-7364484D02*
X2179587Y-7354960D01*
X2179587Y-7354960D02*
X2170063Y-7345436D01*
X2170063Y-7345436D02*
X2160539Y-7326388D01*
X2160539Y-7326388D02*
X2151015Y-7288293D01*
X2151015Y-7288293D02*
X2151015Y-7240674D01*
X2151015Y-7240674D02*
X2160539Y-7202579D01*
X2160539Y-7202579D02*
X2170063Y-7183531D01*
X2170063Y-7183531D02*
X2179587Y-7174008D01*
X2179587Y-7174008D02*
X2198634Y-7164484D01*
X2351015Y-7345436D02*
X2360539Y-7354960D01*
X2360539Y-7354960D02*
X2351015Y-7364484D01*
X2351015Y-7364484D02*
X2341491Y-7354960D01*
X2341491Y-7354960D02*
X2351015Y-7345436D01*
X2351015Y-7345436D02*
X2351015Y-7364484D01*
X2484348Y-7164484D02*
X2503396Y-7164484D01*
X2503396Y-7164484D02*
X2522444Y-7174008D01*
X2522444Y-7174008D02*
X2531968Y-7183531D01*
X2531968Y-7183531D02*
X2541491Y-7202579D01*
X2541491Y-7202579D02*
X2551015Y-7240674D01*
X2551015Y-7240674D02*
X2551015Y-7288293D01*
X2551015Y-7288293D02*
X2541491Y-7326388D01*
X2541491Y-7326388D02*
X2531968Y-7345436D01*
X2531968Y-7345436D02*
X2522444Y-7354960D01*
X2522444Y-7354960D02*
X2503396Y-7364484D01*
X2503396Y-7364484D02*
X2484348Y-7364484D01*
X2484348Y-7364484D02*
X2465301Y-7354960D01*
X2465301Y-7354960D02*
X2455777Y-7345436D01*
X2455777Y-7345436D02*
X2446253Y-7326388D01*
X2446253Y-7326388D02*
X2436729Y-7288293D01*
X2436729Y-7288293D02*
X2436729Y-7240674D01*
X2436729Y-7240674D02*
X2446253Y-7202579D01*
X2446253Y-7202579D02*
X2455777Y-7183531D01*
X2455777Y-7183531D02*
X2465301Y-7174008D01*
X2465301Y-7174008D02*
X2484348Y-7164484D01*
X2741491Y-7364484D02*
X2627206Y-7364484D01*
X2684348Y-7364484D02*
X2684348Y-7164484D01*
X2684348Y-7164484D02*
X2665301Y-7193055D01*
X2665301Y-7193055D02*
X2646253Y-7212103D01*
X2646253Y-7212103D02*
X2627206Y-7221627D01*
X2922444Y-7164484D02*
X2827206Y-7164484D01*
X2827206Y-7164484D02*
X2817682Y-7259722D01*
X2817682Y-7259722D02*
X2827206Y-7250198D01*
X2827206Y-7250198D02*
X2846253Y-7240674D01*
X2846253Y-7240674D02*
X2893872Y-7240674D01*
X2893872Y-7240674D02*
X2912920Y-7250198D01*
X2912920Y-7250198D02*
X2922444Y-7259722D01*
X2922444Y-7259722D02*
X2931967Y-7278769D01*
X2931967Y-7278769D02*
X2931967Y-7326388D01*
X2931967Y-7326388D02*
X2922444Y-7345436D01*
X2922444Y-7345436D02*
X2912920Y-7354960D01*
X2912920Y-7354960D02*
X2893872Y-7364484D01*
X2893872Y-7364484D02*
X2846253Y-7364484D01*
X2846253Y-7364484D02*
X2827206Y-7354960D01*
X2827206Y-7354960D02*
X2817682Y-7345436D01*
X2998634Y-7164484D02*
X3131967Y-7164484D01*
X3131967Y-7164484D02*
X3046253Y-7364484D01*
X3198634Y-7164484D02*
X3198634Y-7202579D01*
X3274825Y-7164484D02*
X3274825Y-7202579D01*
X3570063Y-7440674D02*
X3560539Y-7431150D01*
X3560539Y-7431150D02*
X3541491Y-7402579D01*
X3541491Y-7402579D02*
X3531968Y-7383531D01*
X3531968Y-7383531D02*
X3522444Y-7354960D01*
X3522444Y-7354960D02*
X3512920Y-7307341D01*
X3512920Y-7307341D02*
X3512920Y-7269246D01*
X3512920Y-7269246D02*
X3522444Y-7221627D01*
X3522444Y-7221627D02*
X3531968Y-7193055D01*
X3531968Y-7193055D02*
X3541491Y-7174008D01*
X3541491Y-7174008D02*
X3560539Y-7145436D01*
X3560539Y-7145436D02*
X3570063Y-7135912D01*
X3731968Y-7164484D02*
X3693872Y-7164484D01*
X3693872Y-7164484D02*
X3674825Y-7174008D01*
X3674825Y-7174008D02*
X3665301Y-7183531D01*
X3665301Y-7183531D02*
X3646253Y-7212103D01*
X3646253Y-7212103D02*
X3636729Y-7250198D01*
X3636729Y-7250198D02*
X3636729Y-7326388D01*
X3636729Y-7326388D02*
X3646253Y-7345436D01*
X3646253Y-7345436D02*
X3655777Y-7354960D01*
X3655777Y-7354960D02*
X3674825Y-7364484D01*
X3674825Y-7364484D02*
X3712920Y-7364484D01*
X3712920Y-7364484D02*
X3731968Y-7354960D01*
X3731968Y-7354960D02*
X3741491Y-7345436D01*
X3741491Y-7345436D02*
X3751015Y-7326388D01*
X3751015Y-7326388D02*
X3751015Y-7278769D01*
X3751015Y-7278769D02*
X3741491Y-7259722D01*
X3741491Y-7259722D02*
X3731968Y-7250198D01*
X3731968Y-7250198D02*
X3712920Y-7240674D01*
X3712920Y-7240674D02*
X3674825Y-7240674D01*
X3674825Y-7240674D02*
X3655777Y-7250198D01*
X3655777Y-7250198D02*
X3646253Y-7259722D01*
X3646253Y-7259722D02*
X3636729Y-7278769D01*
X3989110Y-7364484D02*
X3989110Y-7164484D01*
X4074825Y-7364484D02*
X4074825Y-7259722D01*
X4074825Y-7259722D02*
X4065301Y-7240674D01*
X4065301Y-7240674D02*
X4046253Y-7231150D01*
X4046253Y-7231150D02*
X4017682Y-7231150D01*
X4017682Y-7231150D02*
X3998634Y-7240674D01*
X3998634Y-7240674D02*
X3989110Y-7250198D01*
X4198634Y-7364484D02*
X4179587Y-7354960D01*
X4179587Y-7354960D02*
X4170063Y-7345436D01*
X4170063Y-7345436D02*
X4160539Y-7326388D01*
X4160539Y-7326388D02*
X4160539Y-7269246D01*
X4160539Y-7269246D02*
X4170063Y-7250198D01*
X4170063Y-7250198D02*
X4179587Y-7240674D01*
X4179587Y-7240674D02*
X4198634Y-7231150D01*
X4198634Y-7231150D02*
X4227206Y-7231150D01*
X4227206Y-7231150D02*
X4246253Y-7240674D01*
X4246253Y-7240674D02*
X4255777Y-7250198D01*
X4255777Y-7250198D02*
X4265301Y-7269246D01*
X4265301Y-7269246D02*
X4265301Y-7326388D01*
X4265301Y-7326388D02*
X4255777Y-7345436D01*
X4255777Y-7345436D02*
X4246253Y-7354960D01*
X4246253Y-7354960D02*
X4227206Y-7364484D01*
X4227206Y-7364484D02*
X4198634Y-7364484D01*
X4379587Y-7364484D02*
X4360539Y-7354960D01*
X4360539Y-7354960D02*
X4351015Y-7335912D01*
X4351015Y-7335912D02*
X4351015Y-7164484D01*
X4531968Y-7354960D02*
X4512920Y-7364484D01*
X4512920Y-7364484D02*
X4474825Y-7364484D01*
X4474825Y-7364484D02*
X4455777Y-7354960D01*
X4455777Y-7354960D02*
X4446253Y-7335912D01*
X4446253Y-7335912D02*
X4446253Y-7259722D01*
X4446253Y-7259722D02*
X4455777Y-7240674D01*
X4455777Y-7240674D02*
X4474825Y-7231150D01*
X4474825Y-7231150D02*
X4512920Y-7231150D01*
X4512920Y-7231150D02*
X4531968Y-7240674D01*
X4531968Y-7240674D02*
X4541492Y-7259722D01*
X4541492Y-7259722D02*
X4541492Y-7278769D01*
X4541492Y-7278769D02*
X4446253Y-7297817D01*
X4617682Y-7354960D02*
X4636730Y-7364484D01*
X4636730Y-7364484D02*
X4674825Y-7364484D01*
X4674825Y-7364484D02*
X4693873Y-7354960D01*
X4693873Y-7354960D02*
X4703396Y-7335912D01*
X4703396Y-7335912D02*
X4703396Y-7326388D01*
X4703396Y-7326388D02*
X4693873Y-7307341D01*
X4693873Y-7307341D02*
X4674825Y-7297817D01*
X4674825Y-7297817D02*
X4646253Y-7297817D01*
X4646253Y-7297817D02*
X4627206Y-7288293D01*
X4627206Y-7288293D02*
X4617682Y-7269246D01*
X4617682Y-7269246D02*
X4617682Y-7259722D01*
X4617682Y-7259722D02*
X4627206Y-7240674D01*
X4627206Y-7240674D02*
X4646253Y-7231150D01*
X4646253Y-7231150D02*
X4674825Y-7231150D01*
X4674825Y-7231150D02*
X4693873Y-7240674D01*
X4770063Y-7440674D02*
X4779587Y-7431150D01*
X4779587Y-7431150D02*
X4798634Y-7402579D01*
X4798634Y-7402579D02*
X4808158Y-7383531D01*
X4808158Y-7383531D02*
X4817682Y-7354960D01*
X4817682Y-7354960D02*
X4827206Y-7307341D01*
X4827206Y-7307341D02*
X4827206Y-7269246D01*
X4827206Y-7269246D02*
X4817682Y-7221627D01*
X4817682Y-7221627D02*
X4808158Y-7193055D01*
X4808158Y-7193055D02*
X4798634Y-7174008D01*
X4798634Y-7174008D02*
X4779587Y-7145436D01*
X4779587Y-7145436D02*
X4770063Y-7135912D01*
D10*
X-13787Y-7558213D02*
X-13787Y-7515787D01*
X-56213Y-7515787D01*
X-56213Y-7558213D01*
X-13787Y-7558213D01*
D11*
X293872Y-7428484D02*
X312920Y-7428484D01*
X312920Y-7428484D02*
X331967Y-7438008D01*
X331967Y-7438008D02*
X341491Y-7447531D01*
X341491Y-7447531D02*
X351015Y-7466579D01*
X351015Y-7466579D02*
X360539Y-7504674D01*
X360539Y-7504674D02*
X360539Y-7552293D01*
X360539Y-7552293D02*
X351015Y-7590388D01*
X351015Y-7590388D02*
X341491Y-7609436D01*
X341491Y-7609436D02*
X331967Y-7618960D01*
X331967Y-7618960D02*
X312920Y-7628484D01*
X312920Y-7628484D02*
X293872Y-7628484D01*
X293872Y-7628484D02*
X274824Y-7618960D01*
X274824Y-7618960D02*
X265301Y-7609436D01*
X265301Y-7609436D02*
X255777Y-7590388D01*
X255777Y-7590388D02*
X246253Y-7552293D01*
X246253Y-7552293D02*
X246253Y-7504674D01*
X246253Y-7504674D02*
X255777Y-7466579D01*
X255777Y-7466579D02*
X265301Y-7447531D01*
X265301Y-7447531D02*
X274824Y-7438008D01*
X274824Y-7438008D02*
X293872Y-7428484D01*
X446253Y-7609436D02*
X455777Y-7618960D01*
X455777Y-7618960D02*
X446253Y-7628484D01*
X446253Y-7628484D02*
X436729Y-7618960D01*
X436729Y-7618960D02*
X446253Y-7609436D01*
X446253Y-7609436D02*
X446253Y-7628484D01*
X627205Y-7428484D02*
X589110Y-7428484D01*
X589110Y-7428484D02*
X570063Y-7438008D01*
X570063Y-7438008D02*
X560539Y-7447531D01*
X560539Y-7447531D02*
X541491Y-7476103D01*
X541491Y-7476103D02*
X531967Y-7514198D01*
X531967Y-7514198D02*
X531967Y-7590388D01*
X531967Y-7590388D02*
X541491Y-7609436D01*
X541491Y-7609436D02*
X551015Y-7618960D01*
X551015Y-7618960D02*
X570063Y-7628484D01*
X570063Y-7628484D02*
X608158Y-7628484D01*
X608158Y-7628484D02*
X627205Y-7618960D01*
X627205Y-7618960D02*
X636729Y-7609436D01*
X636729Y-7609436D02*
X646253Y-7590388D01*
X646253Y-7590388D02*
X646253Y-7542769D01*
X646253Y-7542769D02*
X636729Y-7523722D01*
X636729Y-7523722D02*
X627205Y-7514198D01*
X627205Y-7514198D02*
X608158Y-7504674D01*
X608158Y-7504674D02*
X570063Y-7504674D01*
X570063Y-7504674D02*
X551015Y-7514198D01*
X551015Y-7514198D02*
X541491Y-7523722D01*
X541491Y-7523722D02*
X531967Y-7542769D01*
X770062Y-7428484D02*
X789110Y-7428484D01*
X789110Y-7428484D02*
X808158Y-7438008D01*
X808158Y-7438008D02*
X817682Y-7447531D01*
X817682Y-7447531D02*
X827205Y-7466579D01*
X827205Y-7466579D02*
X836729Y-7504674D01*
X836729Y-7504674D02*
X836729Y-7552293D01*
X836729Y-7552293D02*
X827205Y-7590388D01*
X827205Y-7590388D02*
X817682Y-7609436D01*
X817682Y-7609436D02*
X808158Y-7618960D01*
X808158Y-7618960D02*
X789110Y-7628484D01*
X789110Y-7628484D02*
X770062Y-7628484D01*
X770062Y-7628484D02*
X751015Y-7618960D01*
X751015Y-7618960D02*
X741491Y-7609436D01*
X741491Y-7609436D02*
X731967Y-7590388D01*
X731967Y-7590388D02*
X722443Y-7552293D01*
X722443Y-7552293D02*
X722443Y-7504674D01*
X722443Y-7504674D02*
X731967Y-7466579D01*
X731967Y-7466579D02*
X741491Y-7447531D01*
X741491Y-7447531D02*
X751015Y-7438008D01*
X751015Y-7438008D02*
X770062Y-7428484D01*
X960539Y-7428484D02*
X979586Y-7428484D01*
X979586Y-7428484D02*
X998634Y-7438008D01*
X998634Y-7438008D02*
X1008158Y-7447531D01*
X1008158Y-7447531D02*
X1017682Y-7466579D01*
X1017682Y-7466579D02*
X1027205Y-7504674D01*
X1027205Y-7504674D02*
X1027205Y-7552293D01*
X1027205Y-7552293D02*
X1017682Y-7590388D01*
X1017682Y-7590388D02*
X1008158Y-7609436D01*
X1008158Y-7609436D02*
X998634Y-7618960D01*
X998634Y-7618960D02*
X979586Y-7628484D01*
X979586Y-7628484D02*
X960539Y-7628484D01*
X960539Y-7628484D02*
X941491Y-7618960D01*
X941491Y-7618960D02*
X931967Y-7609436D01*
X931967Y-7609436D02*
X922443Y-7590388D01*
X922443Y-7590388D02*
X912920Y-7552293D01*
X912920Y-7552293D02*
X912920Y-7504674D01*
X912920Y-7504674D02*
X922443Y-7466579D01*
X922443Y-7466579D02*
X931967Y-7447531D01*
X931967Y-7447531D02*
X941491Y-7438008D01*
X941491Y-7438008D02*
X960539Y-7428484D01*
X1112920Y-7628484D02*
X1112920Y-7495150D01*
X1112920Y-7514198D02*
X1122444Y-7504674D01*
X1122444Y-7504674D02*
X1141491Y-7495150D01*
X1141491Y-7495150D02*
X1170063Y-7495150D01*
X1170063Y-7495150D02*
X1189110Y-7504674D01*
X1189110Y-7504674D02*
X1198634Y-7523722D01*
X1198634Y-7523722D02*
X1198634Y-7628484D01*
X1198634Y-7523722D02*
X1208158Y-7504674D01*
X1208158Y-7504674D02*
X1227205Y-7495150D01*
X1227205Y-7495150D02*
X1255777Y-7495150D01*
X1255777Y-7495150D02*
X1274825Y-7504674D01*
X1274825Y-7504674D02*
X1284348Y-7523722D01*
X1284348Y-7523722D02*
X1284348Y-7628484D01*
X1379586Y-7628484D02*
X1379586Y-7495150D01*
X1379586Y-7514198D02*
X1389110Y-7504674D01*
X1389110Y-7504674D02*
X1408158Y-7495150D01*
X1408158Y-7495150D02*
X1436729Y-7495150D01*
X1436729Y-7495150D02*
X1455777Y-7504674D01*
X1455777Y-7504674D02*
X1465301Y-7523722D01*
X1465301Y-7523722D02*
X1465301Y-7628484D01*
X1465301Y-7523722D02*
X1474824Y-7504674D01*
X1474824Y-7504674D02*
X1493872Y-7495150D01*
X1493872Y-7495150D02*
X1522443Y-7495150D01*
X1522443Y-7495150D02*
X1541491Y-7504674D01*
X1541491Y-7504674D02*
X1551015Y-7523722D01*
X1551015Y-7523722D02*
X1551015Y-7628484D01*
X1941491Y-7418960D02*
X1770063Y-7676103D01*
X2198634Y-7428484D02*
X2217682Y-7428484D01*
X2217682Y-7428484D02*
X2236729Y-7438008D01*
X2236729Y-7438008D02*
X2246253Y-7447531D01*
X2246253Y-7447531D02*
X2255777Y-7466579D01*
X2255777Y-7466579D02*
X2265301Y-7504674D01*
X2265301Y-7504674D02*
X2265301Y-7552293D01*
X2265301Y-7552293D02*
X2255777Y-7590388D01*
X2255777Y-7590388D02*
X2246253Y-7609436D01*
X2246253Y-7609436D02*
X2236729Y-7618960D01*
X2236729Y-7618960D02*
X2217682Y-7628484D01*
X2217682Y-7628484D02*
X2198634Y-7628484D01*
X2198634Y-7628484D02*
X2179587Y-7618960D01*
X2179587Y-7618960D02*
X2170063Y-7609436D01*
X2170063Y-7609436D02*
X2160539Y-7590388D01*
X2160539Y-7590388D02*
X2151015Y-7552293D01*
X2151015Y-7552293D02*
X2151015Y-7504674D01*
X2151015Y-7504674D02*
X2160539Y-7466579D01*
X2160539Y-7466579D02*
X2170063Y-7447531D01*
X2170063Y-7447531D02*
X2179587Y-7438008D01*
X2179587Y-7438008D02*
X2198634Y-7428484D01*
X2351015Y-7609436D02*
X2360539Y-7618960D01*
X2360539Y-7618960D02*
X2351015Y-7628484D01*
X2351015Y-7628484D02*
X2341491Y-7618960D01*
X2341491Y-7618960D02*
X2351015Y-7609436D01*
X2351015Y-7609436D02*
X2351015Y-7628484D01*
X2484348Y-7428484D02*
X2503396Y-7428484D01*
X2503396Y-7428484D02*
X2522444Y-7438008D01*
X2522444Y-7438008D02*
X2531968Y-7447531D01*
X2531968Y-7447531D02*
X2541491Y-7466579D01*
X2541491Y-7466579D02*
X2551015Y-7504674D01*
X2551015Y-7504674D02*
X2551015Y-7552293D01*
X2551015Y-7552293D02*
X2541491Y-7590388D01*
X2541491Y-7590388D02*
X2531968Y-7609436D01*
X2531968Y-7609436D02*
X2522444Y-7618960D01*
X2522444Y-7618960D02*
X2503396Y-7628484D01*
X2503396Y-7628484D02*
X2484348Y-7628484D01*
X2484348Y-7628484D02*
X2465301Y-7618960D01*
X2465301Y-7618960D02*
X2455777Y-7609436D01*
X2455777Y-7609436D02*
X2446253Y-7590388D01*
X2446253Y-7590388D02*
X2436729Y-7552293D01*
X2436729Y-7552293D02*
X2436729Y-7504674D01*
X2436729Y-7504674D02*
X2446253Y-7466579D01*
X2446253Y-7466579D02*
X2455777Y-7447531D01*
X2455777Y-7447531D02*
X2465301Y-7438008D01*
X2465301Y-7438008D02*
X2484348Y-7428484D01*
X2627206Y-7447531D02*
X2636729Y-7438008D01*
X2636729Y-7438008D02*
X2655777Y-7428484D01*
X2655777Y-7428484D02*
X2703396Y-7428484D01*
X2703396Y-7428484D02*
X2722444Y-7438008D01*
X2722444Y-7438008D02*
X2731968Y-7447531D01*
X2731968Y-7447531D02*
X2741491Y-7466579D01*
X2741491Y-7466579D02*
X2741491Y-7485627D01*
X2741491Y-7485627D02*
X2731968Y-7514198D01*
X2731968Y-7514198D02*
X2617682Y-7628484D01*
X2617682Y-7628484D02*
X2741491Y-7628484D01*
X2808158Y-7428484D02*
X2931967Y-7428484D01*
X2931967Y-7428484D02*
X2865301Y-7504674D01*
X2865301Y-7504674D02*
X2893872Y-7504674D01*
X2893872Y-7504674D02*
X2912920Y-7514198D01*
X2912920Y-7514198D02*
X2922444Y-7523722D01*
X2922444Y-7523722D02*
X2931967Y-7542769D01*
X2931967Y-7542769D02*
X2931967Y-7590388D01*
X2931967Y-7590388D02*
X2922444Y-7609436D01*
X2922444Y-7609436D02*
X2912920Y-7618960D01*
X2912920Y-7618960D02*
X2893872Y-7628484D01*
X2893872Y-7628484D02*
X2836729Y-7628484D01*
X2836729Y-7628484D02*
X2817682Y-7618960D01*
X2817682Y-7618960D02*
X2808158Y-7609436D01*
X3103396Y-7428484D02*
X3065301Y-7428484D01*
X3065301Y-7428484D02*
X3046253Y-7438008D01*
X3046253Y-7438008D02*
X3036729Y-7447531D01*
X3036729Y-7447531D02*
X3017682Y-7476103D01*
X3017682Y-7476103D02*
X3008158Y-7514198D01*
X3008158Y-7514198D02*
X3008158Y-7590388D01*
X3008158Y-7590388D02*
X3017682Y-7609436D01*
X3017682Y-7609436D02*
X3027206Y-7618960D01*
X3027206Y-7618960D02*
X3046253Y-7628484D01*
X3046253Y-7628484D02*
X3084348Y-7628484D01*
X3084348Y-7628484D02*
X3103396Y-7618960D01*
X3103396Y-7618960D02*
X3112920Y-7609436D01*
X3112920Y-7609436D02*
X3122444Y-7590388D01*
X3122444Y-7590388D02*
X3122444Y-7542769D01*
X3122444Y-7542769D02*
X3112920Y-7523722D01*
X3112920Y-7523722D02*
X3103396Y-7514198D01*
X3103396Y-7514198D02*
X3084348Y-7504674D01*
X3084348Y-7504674D02*
X3046253Y-7504674D01*
X3046253Y-7504674D02*
X3027206Y-7514198D01*
X3027206Y-7514198D02*
X3017682Y-7523722D01*
X3017682Y-7523722D02*
X3008158Y-7542769D01*
X3198634Y-7428484D02*
X3198634Y-7466579D01*
X3274825Y-7428484D02*
X3274825Y-7466579D01*
X3570063Y-7704674D02*
X3560539Y-7695150D01*
X3560539Y-7695150D02*
X3541491Y-7666579D01*
X3541491Y-7666579D02*
X3531968Y-7647531D01*
X3531968Y-7647531D02*
X3522444Y-7618960D01*
X3522444Y-7618960D02*
X3512920Y-7571341D01*
X3512920Y-7571341D02*
X3512920Y-7533246D01*
X3512920Y-7533246D02*
X3522444Y-7485627D01*
X3522444Y-7485627D02*
X3531968Y-7457055D01*
X3531968Y-7457055D02*
X3541491Y-7438008D01*
X3541491Y-7438008D02*
X3560539Y-7409436D01*
X3560539Y-7409436D02*
X3570063Y-7399912D01*
X3684348Y-7428484D02*
X3703396Y-7428484D01*
X3703396Y-7428484D02*
X3722444Y-7438008D01*
X3722444Y-7438008D02*
X3731968Y-7447531D01*
X3731968Y-7447531D02*
X3741491Y-7466579D01*
X3741491Y-7466579D02*
X3751015Y-7504674D01*
X3751015Y-7504674D02*
X3751015Y-7552293D01*
X3751015Y-7552293D02*
X3741491Y-7590388D01*
X3741491Y-7590388D02*
X3731968Y-7609436D01*
X3731968Y-7609436D02*
X3722444Y-7618960D01*
X3722444Y-7618960D02*
X3703396Y-7628484D01*
X3703396Y-7628484D02*
X3684348Y-7628484D01*
X3684348Y-7628484D02*
X3665301Y-7618960D01*
X3665301Y-7618960D02*
X3655777Y-7609436D01*
X3655777Y-7609436D02*
X3646253Y-7590388D01*
X3646253Y-7590388D02*
X3636729Y-7552293D01*
X3636729Y-7552293D02*
X3636729Y-7504674D01*
X3636729Y-7504674D02*
X3646253Y-7466579D01*
X3646253Y-7466579D02*
X3655777Y-7447531D01*
X3655777Y-7447531D02*
X3665301Y-7438008D01*
X3665301Y-7438008D02*
X3684348Y-7428484D01*
X3989110Y-7628484D02*
X3989110Y-7428484D01*
X4074825Y-7628484D02*
X4074825Y-7523722D01*
X4074825Y-7523722D02*
X4065301Y-7504674D01*
X4065301Y-7504674D02*
X4046253Y-7495150D01*
X4046253Y-7495150D02*
X4017682Y-7495150D01*
X4017682Y-7495150D02*
X3998634Y-7504674D01*
X3998634Y-7504674D02*
X3989110Y-7514198D01*
X4198634Y-7628484D02*
X4179587Y-7618960D01*
X4179587Y-7618960D02*
X4170063Y-7609436D01*
X4170063Y-7609436D02*
X4160539Y-7590388D01*
X4160539Y-7590388D02*
X4160539Y-7533246D01*
X4160539Y-7533246D02*
X4170063Y-7514198D01*
X4170063Y-7514198D02*
X4179587Y-7504674D01*
X4179587Y-7504674D02*
X4198634Y-7495150D01*
X4198634Y-7495150D02*
X4227206Y-7495150D01*
X4227206Y-7495150D02*
X4246253Y-7504674D01*
X4246253Y-7504674D02*
X4255777Y-7514198D01*
X4255777Y-7514198D02*
X4265301Y-7533246D01*
X4265301Y-7533246D02*
X4265301Y-7590388D01*
X4265301Y-7590388D02*
X4255777Y-7609436D01*
X4255777Y-7609436D02*
X4246253Y-7618960D01*
X4246253Y-7618960D02*
X4227206Y-7628484D01*
X4227206Y-7628484D02*
X4198634Y-7628484D01*
X4379587Y-7628484D02*
X4360539Y-7618960D01*
X4360539Y-7618960D02*
X4351015Y-7599912D01*
X4351015Y-7599912D02*
X4351015Y-7428484D01*
X4531968Y-7618960D02*
X4512920Y-7628484D01*
X4512920Y-7628484D02*
X4474825Y-7628484D01*
X4474825Y-7628484D02*
X4455777Y-7618960D01*
X4455777Y-7618960D02*
X4446253Y-7599912D01*
X4446253Y-7599912D02*
X4446253Y-7523722D01*
X4446253Y-7523722D02*
X4455777Y-7504674D01*
X4455777Y-7504674D02*
X4474825Y-7495150D01*
X4474825Y-7495150D02*
X4512920Y-7495150D01*
X4512920Y-7495150D02*
X4531968Y-7504674D01*
X4531968Y-7504674D02*
X4541492Y-7523722D01*
X4541492Y-7523722D02*
X4541492Y-7542769D01*
X4541492Y-7542769D02*
X4446253Y-7561817D01*
X4617682Y-7618960D02*
X4636730Y-7628484D01*
X4636730Y-7628484D02*
X4674825Y-7628484D01*
X4674825Y-7628484D02*
X4693873Y-7618960D01*
X4693873Y-7618960D02*
X4703396Y-7599912D01*
X4703396Y-7599912D02*
X4703396Y-7590388D01*
X4703396Y-7590388D02*
X4693873Y-7571341D01*
X4693873Y-7571341D02*
X4674825Y-7561817D01*
X4674825Y-7561817D02*
X4646253Y-7561817D01*
X4646253Y-7561817D02*
X4627206Y-7552293D01*
X4627206Y-7552293D02*
X4617682Y-7533246D01*
X4617682Y-7533246D02*
X4617682Y-7523722D01*
X4617682Y-7523722D02*
X4627206Y-7504674D01*
X4627206Y-7504674D02*
X4646253Y-7495150D01*
X4646253Y-7495150D02*
X4674825Y-7495150D01*
X4674825Y-7495150D02*
X4693873Y-7504674D01*
X4941492Y-7552293D02*
X5093873Y-7552293D01*
X5017682Y-7628484D02*
X5017682Y-7476103D01*
X5427206Y-7495150D02*
X5427206Y-7628484D01*
X5379587Y-7418960D02*
X5331968Y-7561817D01*
X5331968Y-7561817D02*
X5455777Y-7561817D01*
X5674825Y-7618960D02*
X5693873Y-7628484D01*
X5693873Y-7628484D02*
X5731968Y-7628484D01*
X5731968Y-7628484D02*
X5751015Y-7618960D01*
X5751015Y-7618960D02*
X5760539Y-7599912D01*
X5760539Y-7599912D02*
X5760539Y-7590388D01*
X5760539Y-7590388D02*
X5751015Y-7571341D01*
X5751015Y-7571341D02*
X5731968Y-7561817D01*
X5731968Y-7561817D02*
X5703396Y-7561817D01*
X5703396Y-7561817D02*
X5684349Y-7552293D01*
X5684349Y-7552293D02*
X5674825Y-7533246D01*
X5674825Y-7533246D02*
X5674825Y-7523722D01*
X5674825Y-7523722D02*
X5684349Y-7504674D01*
X5684349Y-7504674D02*
X5703396Y-7495150D01*
X5703396Y-7495150D02*
X5731968Y-7495150D01*
X5731968Y-7495150D02*
X5751015Y-7504674D01*
X5874825Y-7628484D02*
X5855777Y-7618960D01*
X5855777Y-7618960D02*
X5846254Y-7599912D01*
X5846254Y-7599912D02*
X5846254Y-7428484D01*
X5979587Y-7628484D02*
X5960539Y-7618960D01*
X5960539Y-7618960D02*
X5951015Y-7609436D01*
X5951015Y-7609436D02*
X5941492Y-7590388D01*
X5941492Y-7590388D02*
X5941492Y-7533246D01*
X5941492Y-7533246D02*
X5951015Y-7514198D01*
X5951015Y-7514198D02*
X5960539Y-7504674D01*
X5960539Y-7504674D02*
X5979587Y-7495150D01*
X5979587Y-7495150D02*
X6008158Y-7495150D01*
X6008158Y-7495150D02*
X6027206Y-7504674D01*
X6027206Y-7504674D02*
X6036730Y-7514198D01*
X6036730Y-7514198D02*
X6046254Y-7533246D01*
X6046254Y-7533246D02*
X6046254Y-7590388D01*
X6046254Y-7590388D02*
X6036730Y-7609436D01*
X6036730Y-7609436D02*
X6027206Y-7618960D01*
X6027206Y-7618960D02*
X6008158Y-7628484D01*
X6008158Y-7628484D02*
X5979587Y-7628484D01*
X6103396Y-7495150D02*
X6179587Y-7495150D01*
X6131968Y-7428484D02*
X6131968Y-7599912D01*
X6131968Y-7599912D02*
X6141492Y-7618960D01*
X6141492Y-7618960D02*
X6160539Y-7628484D01*
X6160539Y-7628484D02*
X6179587Y-7628484D01*
X6236730Y-7618960D02*
X6255777Y-7628484D01*
X6255777Y-7628484D02*
X6293873Y-7628484D01*
X6293873Y-7628484D02*
X6312920Y-7618960D01*
X6312920Y-7618960D02*
X6322444Y-7599912D01*
X6322444Y-7599912D02*
X6322444Y-7590388D01*
X6322444Y-7590388D02*
X6312920Y-7571341D01*
X6312920Y-7571341D02*
X6293873Y-7561817D01*
X6293873Y-7561817D02*
X6265301Y-7561817D01*
X6265301Y-7561817D02*
X6246254Y-7552293D01*
X6246254Y-7552293D02*
X6236730Y-7533246D01*
X6236730Y-7533246D02*
X6236730Y-7523722D01*
X6236730Y-7523722D02*
X6246254Y-7504674D01*
X6246254Y-7504674D02*
X6265301Y-7495150D01*
X6265301Y-7495150D02*
X6293873Y-7495150D01*
X6293873Y-7495150D02*
X6312920Y-7504674D01*
X6389111Y-7704674D02*
X6398635Y-7695150D01*
X6398635Y-7695150D02*
X6417682Y-7666579D01*
X6417682Y-7666579D02*
X6427206Y-7647531D01*
X6427206Y-7647531D02*
X6436730Y-7618960D01*
X6436730Y-7618960D02*
X6446254Y-7571341D01*
X6446254Y-7571341D02*
X6446254Y-7533246D01*
X6446254Y-7533246D02*
X6436730Y-7485627D01*
X6436730Y-7485627D02*
X6427206Y-7457055D01*
X6427206Y-7457055D02*
X6417682Y-7438008D01*
X6417682Y-7438008D02*
X6398635Y-7409436D01*
X6398635Y-7409436D02*
X6389111Y-7399912D01*
D12*
X-80001Y-7876001D02*
X-5000Y-7801000D01*
X-80001Y-7725999D01*
X-155002Y-7801000D01*
X-80001Y-7876001D01*
D11*
X360539Y-7892484D02*
X246253Y-7892484D01*
X303396Y-7892484D02*
X303396Y-7692484D01*
X303396Y-7692484D02*
X284348Y-7721055D01*
X284348Y-7721055D02*
X265301Y-7740103D01*
X265301Y-7740103D02*
X246253Y-7749627D01*
X446253Y-7873436D02*
X455777Y-7882960D01*
X455777Y-7882960D02*
X446253Y-7892484D01*
X446253Y-7892484D02*
X436729Y-7882960D01*
X436729Y-7882960D02*
X446253Y-7873436D01*
X446253Y-7873436D02*
X446253Y-7892484D01*
X636729Y-7692484D02*
X541491Y-7692484D01*
X541491Y-7692484D02*
X531967Y-7787722D01*
X531967Y-7787722D02*
X541491Y-7778198D01*
X541491Y-7778198D02*
X560539Y-7768674D01*
X560539Y-7768674D02*
X608158Y-7768674D01*
X608158Y-7768674D02*
X627205Y-7778198D01*
X627205Y-7778198D02*
X636729Y-7787722D01*
X636729Y-7787722D02*
X646253Y-7806769D01*
X646253Y-7806769D02*
X646253Y-7854388D01*
X646253Y-7854388D02*
X636729Y-7873436D01*
X636729Y-7873436D02*
X627205Y-7882960D01*
X627205Y-7882960D02*
X608158Y-7892484D01*
X608158Y-7892484D02*
X560539Y-7892484D01*
X560539Y-7892484D02*
X541491Y-7882960D01*
X541491Y-7882960D02*
X531967Y-7873436D01*
X770062Y-7692484D02*
X789110Y-7692484D01*
X789110Y-7692484D02*
X808158Y-7702008D01*
X808158Y-7702008D02*
X817682Y-7711531D01*
X817682Y-7711531D02*
X827205Y-7730579D01*
X827205Y-7730579D02*
X836729Y-7768674D01*
X836729Y-7768674D02*
X836729Y-7816293D01*
X836729Y-7816293D02*
X827205Y-7854388D01*
X827205Y-7854388D02*
X817682Y-7873436D01*
X817682Y-7873436D02*
X808158Y-7882960D01*
X808158Y-7882960D02*
X789110Y-7892484D01*
X789110Y-7892484D02*
X770062Y-7892484D01*
X770062Y-7892484D02*
X751015Y-7882960D01*
X751015Y-7882960D02*
X741491Y-7873436D01*
X741491Y-7873436D02*
X731967Y-7854388D01*
X731967Y-7854388D02*
X722443Y-7816293D01*
X722443Y-7816293D02*
X722443Y-7768674D01*
X722443Y-7768674D02*
X731967Y-7730579D01*
X731967Y-7730579D02*
X741491Y-7711531D01*
X741491Y-7711531D02*
X751015Y-7702008D01*
X751015Y-7702008D02*
X770062Y-7692484D01*
X960539Y-7692484D02*
X979586Y-7692484D01*
X979586Y-7692484D02*
X998634Y-7702008D01*
X998634Y-7702008D02*
X1008158Y-7711531D01*
X1008158Y-7711531D02*
X1017682Y-7730579D01*
X1017682Y-7730579D02*
X1027205Y-7768674D01*
X1027205Y-7768674D02*
X1027205Y-7816293D01*
X1027205Y-7816293D02*
X1017682Y-7854388D01*
X1017682Y-7854388D02*
X1008158Y-7873436D01*
X1008158Y-7873436D02*
X998634Y-7882960D01*
X998634Y-7882960D02*
X979586Y-7892484D01*
X979586Y-7892484D02*
X960539Y-7892484D01*
X960539Y-7892484D02*
X941491Y-7882960D01*
X941491Y-7882960D02*
X931967Y-7873436D01*
X931967Y-7873436D02*
X922443Y-7854388D01*
X922443Y-7854388D02*
X912920Y-7816293D01*
X912920Y-7816293D02*
X912920Y-7768674D01*
X912920Y-7768674D02*
X922443Y-7730579D01*
X922443Y-7730579D02*
X931967Y-7711531D01*
X931967Y-7711531D02*
X941491Y-7702008D01*
X941491Y-7702008D02*
X960539Y-7692484D01*
X1112920Y-7892484D02*
X1112920Y-7759150D01*
X1112920Y-7778198D02*
X1122444Y-7768674D01*
X1122444Y-7768674D02*
X1141491Y-7759150D01*
X1141491Y-7759150D02*
X1170063Y-7759150D01*
X1170063Y-7759150D02*
X1189110Y-7768674D01*
X1189110Y-7768674D02*
X1198634Y-7787722D01*
X1198634Y-7787722D02*
X1198634Y-7892484D01*
X1198634Y-7787722D02*
X1208158Y-7768674D01*
X1208158Y-7768674D02*
X1227205Y-7759150D01*
X1227205Y-7759150D02*
X1255777Y-7759150D01*
X1255777Y-7759150D02*
X1274825Y-7768674D01*
X1274825Y-7768674D02*
X1284348Y-7787722D01*
X1284348Y-7787722D02*
X1284348Y-7892484D01*
X1379586Y-7892484D02*
X1379586Y-7759150D01*
X1379586Y-7778198D02*
X1389110Y-7768674D01*
X1389110Y-7768674D02*
X1408158Y-7759150D01*
X1408158Y-7759150D02*
X1436729Y-7759150D01*
X1436729Y-7759150D02*
X1455777Y-7768674D01*
X1455777Y-7768674D02*
X1465301Y-7787722D01*
X1465301Y-7787722D02*
X1465301Y-7892484D01*
X1465301Y-7787722D02*
X1474824Y-7768674D01*
X1474824Y-7768674D02*
X1493872Y-7759150D01*
X1493872Y-7759150D02*
X1522443Y-7759150D01*
X1522443Y-7759150D02*
X1541491Y-7768674D01*
X1541491Y-7768674D02*
X1551015Y-7787722D01*
X1551015Y-7787722D02*
X1551015Y-7892484D01*
X1941491Y-7682960D02*
X1770063Y-7940103D01*
X2198634Y-7692484D02*
X2217682Y-7692484D01*
X2217682Y-7692484D02*
X2236729Y-7702008D01*
X2236729Y-7702008D02*
X2246253Y-7711531D01*
X2246253Y-7711531D02*
X2255777Y-7730579D01*
X2255777Y-7730579D02*
X2265301Y-7768674D01*
X2265301Y-7768674D02*
X2265301Y-7816293D01*
X2265301Y-7816293D02*
X2255777Y-7854388D01*
X2255777Y-7854388D02*
X2246253Y-7873436D01*
X2246253Y-7873436D02*
X2236729Y-7882960D01*
X2236729Y-7882960D02*
X2217682Y-7892484D01*
X2217682Y-7892484D02*
X2198634Y-7892484D01*
X2198634Y-7892484D02*
X2179587Y-7882960D01*
X2179587Y-7882960D02*
X2170063Y-7873436D01*
X2170063Y-7873436D02*
X2160539Y-7854388D01*
X2160539Y-7854388D02*
X2151015Y-7816293D01*
X2151015Y-7816293D02*
X2151015Y-7768674D01*
X2151015Y-7768674D02*
X2160539Y-7730579D01*
X2160539Y-7730579D02*
X2170063Y-7711531D01*
X2170063Y-7711531D02*
X2179587Y-7702008D01*
X2179587Y-7702008D02*
X2198634Y-7692484D01*
X2351015Y-7873436D02*
X2360539Y-7882960D01*
X2360539Y-7882960D02*
X2351015Y-7892484D01*
X2351015Y-7892484D02*
X2341491Y-7882960D01*
X2341491Y-7882960D02*
X2351015Y-7873436D01*
X2351015Y-7873436D02*
X2351015Y-7892484D01*
X2484348Y-7692484D02*
X2503396Y-7692484D01*
X2503396Y-7692484D02*
X2522444Y-7702008D01*
X2522444Y-7702008D02*
X2531968Y-7711531D01*
X2531968Y-7711531D02*
X2541491Y-7730579D01*
X2541491Y-7730579D02*
X2551015Y-7768674D01*
X2551015Y-7768674D02*
X2551015Y-7816293D01*
X2551015Y-7816293D02*
X2541491Y-7854388D01*
X2541491Y-7854388D02*
X2531968Y-7873436D01*
X2531968Y-7873436D02*
X2522444Y-7882960D01*
X2522444Y-7882960D02*
X2503396Y-7892484D01*
X2503396Y-7892484D02*
X2484348Y-7892484D01*
X2484348Y-7892484D02*
X2465301Y-7882960D01*
X2465301Y-7882960D02*
X2455777Y-7873436D01*
X2455777Y-7873436D02*
X2446253Y-7854388D01*
X2446253Y-7854388D02*
X2436729Y-7816293D01*
X2436729Y-7816293D02*
X2436729Y-7768674D01*
X2436729Y-7768674D02*
X2446253Y-7730579D01*
X2446253Y-7730579D02*
X2455777Y-7711531D01*
X2455777Y-7711531D02*
X2465301Y-7702008D01*
X2465301Y-7702008D02*
X2484348Y-7692484D01*
X2731968Y-7692484D02*
X2636729Y-7692484D01*
X2636729Y-7692484D02*
X2627206Y-7787722D01*
X2627206Y-7787722D02*
X2636729Y-7778198D01*
X2636729Y-7778198D02*
X2655777Y-7768674D01*
X2655777Y-7768674D02*
X2703396Y-7768674D01*
X2703396Y-7768674D02*
X2722444Y-7778198D01*
X2722444Y-7778198D02*
X2731968Y-7787722D01*
X2731968Y-7787722D02*
X2741491Y-7806769D01*
X2741491Y-7806769D02*
X2741491Y-7854388D01*
X2741491Y-7854388D02*
X2731968Y-7873436D01*
X2731968Y-7873436D02*
X2722444Y-7882960D01*
X2722444Y-7882960D02*
X2703396Y-7892484D01*
X2703396Y-7892484D02*
X2655777Y-7892484D01*
X2655777Y-7892484D02*
X2636729Y-7882960D01*
X2636729Y-7882960D02*
X2627206Y-7873436D01*
X2836729Y-7892484D02*
X2874825Y-7892484D01*
X2874825Y-7892484D02*
X2893872Y-7882960D01*
X2893872Y-7882960D02*
X2903396Y-7873436D01*
X2903396Y-7873436D02*
X2922444Y-7844865D01*
X2922444Y-7844865D02*
X2931967Y-7806769D01*
X2931967Y-7806769D02*
X2931967Y-7730579D01*
X2931967Y-7730579D02*
X2922444Y-7711531D01*
X2922444Y-7711531D02*
X2912920Y-7702008D01*
X2912920Y-7702008D02*
X2893872Y-7692484D01*
X2893872Y-7692484D02*
X2855777Y-7692484D01*
X2855777Y-7692484D02*
X2836729Y-7702008D01*
X2836729Y-7702008D02*
X2827206Y-7711531D01*
X2827206Y-7711531D02*
X2817682Y-7730579D01*
X2817682Y-7730579D02*
X2817682Y-7778198D01*
X2817682Y-7778198D02*
X2827206Y-7797246D01*
X2827206Y-7797246D02*
X2836729Y-7806769D01*
X2836729Y-7806769D02*
X2855777Y-7816293D01*
X2855777Y-7816293D02*
X2893872Y-7816293D01*
X2893872Y-7816293D02*
X2912920Y-7806769D01*
X2912920Y-7806769D02*
X2922444Y-7797246D01*
X2922444Y-7797246D02*
X2931967Y-7778198D01*
X3122444Y-7892484D02*
X3008158Y-7892484D01*
X3065301Y-7892484D02*
X3065301Y-7692484D01*
X3065301Y-7692484D02*
X3046253Y-7721055D01*
X3046253Y-7721055D02*
X3027206Y-7740103D01*
X3027206Y-7740103D02*
X3008158Y-7749627D01*
X3198634Y-7692484D02*
X3198634Y-7730579D01*
X3274825Y-7692484D02*
X3274825Y-7730579D01*
X3570063Y-7968674D02*
X3560539Y-7959150D01*
X3560539Y-7959150D02*
X3541491Y-7930579D01*
X3541491Y-7930579D02*
X3531968Y-7911531D01*
X3531968Y-7911531D02*
X3522444Y-7882960D01*
X3522444Y-7882960D02*
X3512920Y-7835341D01*
X3512920Y-7835341D02*
X3512920Y-7797246D01*
X3512920Y-7797246D02*
X3522444Y-7749627D01*
X3522444Y-7749627D02*
X3531968Y-7721055D01*
X3531968Y-7721055D02*
X3541491Y-7702008D01*
X3541491Y-7702008D02*
X3560539Y-7673436D01*
X3560539Y-7673436D02*
X3570063Y-7663912D01*
X3627206Y-7692484D02*
X3751015Y-7692484D01*
X3751015Y-7692484D02*
X3684348Y-7768674D01*
X3684348Y-7768674D02*
X3712920Y-7768674D01*
X3712920Y-7768674D02*
X3731968Y-7778198D01*
X3731968Y-7778198D02*
X3741491Y-7787722D01*
X3741491Y-7787722D02*
X3751015Y-7806769D01*
X3751015Y-7806769D02*
X3751015Y-7854388D01*
X3751015Y-7854388D02*
X3741491Y-7873436D01*
X3741491Y-7873436D02*
X3731968Y-7882960D01*
X3731968Y-7882960D02*
X3712920Y-7892484D01*
X3712920Y-7892484D02*
X3655777Y-7892484D01*
X3655777Y-7892484D02*
X3636729Y-7882960D01*
X3636729Y-7882960D02*
X3627206Y-7873436D01*
X3989110Y-7892484D02*
X3989110Y-7692484D01*
X4074825Y-7892484D02*
X4074825Y-7787722D01*
X4074825Y-7787722D02*
X4065301Y-7768674D01*
X4065301Y-7768674D02*
X4046253Y-7759150D01*
X4046253Y-7759150D02*
X4017682Y-7759150D01*
X4017682Y-7759150D02*
X3998634Y-7768674D01*
X3998634Y-7768674D02*
X3989110Y-7778198D01*
X4198634Y-7892484D02*
X4179587Y-7882960D01*
X4179587Y-7882960D02*
X4170063Y-7873436D01*
X4170063Y-7873436D02*
X4160539Y-7854388D01*
X4160539Y-7854388D02*
X4160539Y-7797246D01*
X4160539Y-7797246D02*
X4170063Y-7778198D01*
X4170063Y-7778198D02*
X4179587Y-7768674D01*
X4179587Y-7768674D02*
X4198634Y-7759150D01*
X4198634Y-7759150D02*
X4227206Y-7759150D01*
X4227206Y-7759150D02*
X4246253Y-7768674D01*
X4246253Y-7768674D02*
X4255777Y-7778198D01*
X4255777Y-7778198D02*
X4265301Y-7797246D01*
X4265301Y-7797246D02*
X4265301Y-7854388D01*
X4265301Y-7854388D02*
X4255777Y-7873436D01*
X4255777Y-7873436D02*
X4246253Y-7882960D01*
X4246253Y-7882960D02*
X4227206Y-7892484D01*
X4227206Y-7892484D02*
X4198634Y-7892484D01*
X4379587Y-7892484D02*
X4360539Y-7882960D01*
X4360539Y-7882960D02*
X4351015Y-7863912D01*
X4351015Y-7863912D02*
X4351015Y-7692484D01*
X4531968Y-7882960D02*
X4512920Y-7892484D01*
X4512920Y-7892484D02*
X4474825Y-7892484D01*
X4474825Y-7892484D02*
X4455777Y-7882960D01*
X4455777Y-7882960D02*
X4446253Y-7863912D01*
X4446253Y-7863912D02*
X4446253Y-7787722D01*
X4446253Y-7787722D02*
X4455777Y-7768674D01*
X4455777Y-7768674D02*
X4474825Y-7759150D01*
X4474825Y-7759150D02*
X4512920Y-7759150D01*
X4512920Y-7759150D02*
X4531968Y-7768674D01*
X4531968Y-7768674D02*
X4541492Y-7787722D01*
X4541492Y-7787722D02*
X4541492Y-7806769D01*
X4541492Y-7806769D02*
X4446253Y-7825817D01*
X4617682Y-7882960D02*
X4636730Y-7892484D01*
X4636730Y-7892484D02*
X4674825Y-7892484D01*
X4674825Y-7892484D02*
X4693873Y-7882960D01*
X4693873Y-7882960D02*
X4703396Y-7863912D01*
X4703396Y-7863912D02*
X4703396Y-7854388D01*
X4703396Y-7854388D02*
X4693873Y-7835341D01*
X4693873Y-7835341D02*
X4674825Y-7825817D01*
X4674825Y-7825817D02*
X4646253Y-7825817D01*
X4646253Y-7825817D02*
X4627206Y-7816293D01*
X4627206Y-7816293D02*
X4617682Y-7797246D01*
X4617682Y-7797246D02*
X4617682Y-7787722D01*
X4617682Y-7787722D02*
X4627206Y-7768674D01*
X4627206Y-7768674D02*
X4646253Y-7759150D01*
X4646253Y-7759150D02*
X4674825Y-7759150D01*
X4674825Y-7759150D02*
X4693873Y-7768674D01*
X4770063Y-7968674D02*
X4779587Y-7959150D01*
X4779587Y-7959150D02*
X4798634Y-7930579D01*
X4798634Y-7930579D02*
X4808158Y-7911531D01*
X4808158Y-7911531D02*
X4817682Y-7882960D01*
X4817682Y-7882960D02*
X4827206Y-7835341D01*
X4827206Y-7835341D02*
X4827206Y-7797246D01*
X4827206Y-7797246D02*
X4817682Y-7749627D01*
X4817682Y-7749627D02*
X4808158Y-7721055D01*
X4808158Y-7721055D02*
X4798634Y-7702008D01*
X4798634Y-7702008D02*
X4779587Y-7673436D01*
X4779587Y-7673436D02*
X4770063Y-7663912D01*
M02*
