M48
; DRILL file KiCad 10.0.6 date 2026-09-20T18:33:50
; FORMAT={-:-/ absolute / metric / decimal}
; #@! TF.CreationDate,2026-09-20T18:33:50-04:00
; #@! TF.GenerationSoftware,Kicad,Pcbnew,10.0.6
; #@! TF.FileFunction,Plated,1,2,PTH
FMAT,2
METRIC
; #@! TA.AperFunction,Plated,PTH,ViaDrill
T1C0.300
; #@! TA.AperFunction,Plated,PTH,ComponentDrill
T2C0.300
; #@! TA.AperFunction,Plated,PTH,ViaDrill
T3C0.400
; #@! TA.AperFunction,Plated,PTH,ComponentDrill
T4C0.600
; #@! TA.AperFunction,Plated,PTH,ComponentDrill
T5C1.500
%
G90
G05
T1
X2.0Y-10.0
X2.0Y-25.0
X2.0Y-40.0
X4.5Y-30.6
X5.2Y-52.94
X6.0Y-40.0
X8.0Y-34.05
X9.8Y-49.6
X10.25Y-10.3
X10.55Y-49.95
X10.9Y-2.3
X10.9Y-6.3
X11.0Y-23.7
X11.243Y-29.471
X11.5Y-30.3
X11.5Y-45.2
X11.5Y-47.5
X11.8Y-52.3
X12.0Y-41.0
X13.2Y-49.6
X15.5Y-41.0
X16.999Y-36.694
X17.8Y-38.0
X18.1Y-50.45
X18.39Y-42.55
X19.5Y-50.45
X19.85Y-27.65
X20.0Y-58.5
X21.0Y-36.5
X24.0Y-23.5
X24.2Y-45.5
X27.0Y-26.5
X27.2Y-50.45
X27.96Y-45.577
X28.0Y-34.5
X28.0Y-35.45
X28.6Y-50.45
X29.3Y-32.0
X29.6Y-45.95
X30.4Y-45.95
X32.3Y-36.2
X33.1Y-31.97
X34.0Y-56.5
X34.5Y-29.0
X34.6Y-41.8
X34.6Y-43.4
X35.8Y-41.8
X35.8Y-43.4
X37.0Y-41.8
X37.0Y-43.4
X38.0Y-10.0
X38.0Y-25.0
T2
X19.1Y-8.01
X19.1Y-9.41
X19.8Y-7.31
X19.8Y-8.71
X19.8Y-10.11
X20.5Y-8.01
X20.5Y-9.41
X21.2Y-7.31
X21.2Y-8.71
X21.2Y-10.11
X21.9Y-8.01
X21.9Y-9.41
T3
X9.1Y-47.5
X9.146Y-3.347
X13.9Y-47.5
X15.693Y-4.271
X18.124Y-21.69
X19.594Y-34.723
T5
X20.5Y-55.0
X25.5Y-55.0
X30.5Y-55.0
T4
X7.18Y-53.79G85X7.18Y-54.49
G05
X7.18Y-58.15G85X7.18Y-58.55
G05
X15.82Y-53.79G85X15.82Y-54.49
G05
X15.82Y-58.15G85X15.82Y-58.55
G05
M30
