%TF.GenerationSoftware,KiCad,Pcbnew,10.0.6*%
%TF.CreationDate,2026-09-20T18:33:49-04:00*%
%TF.ProjectId,esp32-4to20ma-board,65737033-322d-4347-946f-32306d612d62,rev?*%
%TF.SameCoordinates,Original*%
%TF.FileFunction,Copper,L2,Bot*%
%TF.FilePolarity,Positive*%
%FSLAX46Y46*%
G04 Gerber Fmt 4.6, Leading zero omitted, Abs format (unit mm)*
G04 Created by KiCad (PCBNEW 10.0.6) date 2026-09-20 18:33:49*
%MOMM*%
%LPD*%
G01*
G04 APERTURE LIST*
%TA.AperFunction,ComponentPad*%
%ADD10C,0.600000*%
%TD*%
%TA.AperFunction,ComponentPad*%
%ADD11C,2.300000*%
%TD*%
%TA.AperFunction,ComponentPad*%
%ADD12O,1.100000X1.900000*%
%TD*%
%TA.AperFunction,ComponentPad*%
%ADD13O,1.200000X1.600000*%
%TD*%
%TA.AperFunction,ViaPad*%
%ADD14C,0.600000*%
%TD*%
%TA.AperFunction,ViaPad*%
%ADD15C,0.800000*%
%TD*%
%TA.AperFunction,Conductor*%
%ADD16C,0.300000*%
%TD*%
%TA.AperFunction,Conductor*%
%ADD17C,0.500000*%
%TD*%
%TA.AperFunction,Conductor*%
%ADD18C,0.400000*%
%TD*%
%TA.AperFunction,Conductor*%
%ADD19C,0.200000*%
%TD*%
G04 APERTURE END LIST*
D10*
%TO.P,U1,41*%
%TO.N,GND*%
X19100000Y-8010000D03*
X19100000Y-9410000D03*
X19800000Y-7310000D03*
X19800000Y-8710000D03*
X19800000Y-10110000D03*
X20500000Y-8010000D03*
X20500000Y-9410000D03*
X21200000Y-7310000D03*
X21200000Y-8710000D03*
X21200000Y-10110000D03*
X21900000Y-8010000D03*
X21900000Y-9410000D03*
%TD*%
D11*
%TO.P,J2,1*%
%TO.N,GND*%
X20500000Y-55000000D03*
%TO.P,J2,2*%
%TO.N,/LOOP_RTN*%
X25500000Y-55000000D03*
%TO.P,J2,3*%
%TO.N,/LOOP_V*%
X30500000Y-55000000D03*
%TD*%
D12*
%TO.P,J1,13*%
%TO.N,GND*%
X7180000Y-54140000D03*
D13*
X7180000Y-58350000D03*
D12*
%TO.P,J1,14*%
X15820000Y-54140000D03*
D13*
X15820000Y-58350000D03*
%TD*%
D14*
%TO.N,/LOOP_V*%
X27960300Y-45576700D03*
%TO.N,GND*%
X38000000Y-25000000D03*
X30400000Y-45950000D03*
X8000000Y-34050000D03*
X17800000Y-38000000D03*
X2000000Y-25000000D03*
X6000000Y-40000000D03*
X4500000Y-30600000D03*
X28000000Y-35450000D03*
X2000000Y-10000000D03*
X18390000Y-42550000D03*
X21000000Y-36500000D03*
X20000000Y-58500000D03*
X11500000Y-45200000D03*
X12000000Y-41000000D03*
X28600000Y-50450000D03*
X38000000Y-10000000D03*
X27200000Y-50450000D03*
X34500000Y-29000000D03*
X10250000Y-10300000D03*
X19500000Y-50450000D03*
X29300000Y-32000000D03*
X9800000Y-49600000D03*
X2000000Y-40000000D03*
X5200000Y-52940000D03*
X34000000Y-56500000D03*
X10900000Y-2300000D03*
X24000000Y-23500000D03*
X11000000Y-23700000D03*
X32300000Y-36200000D03*
X11500000Y-30300000D03*
X13200000Y-49600000D03*
X33100000Y-31970000D03*
X28000000Y-34500000D03*
X15500000Y-41000000D03*
X19850000Y-27650000D03*
X29600000Y-45950000D03*
X27000000Y-26500000D03*
X18100000Y-50450000D03*
X24200000Y-45500000D03*
X10900000Y-6300000D03*
D15*
%TO.N,+5V*%
X13900000Y-47500000D03*
D14*
X11500000Y-47500000D03*
D15*
X9100000Y-47500000D03*
%TO.N,+3V3*%
X9146000Y-3346700D03*
X15693300Y-4271100D03*
X19593800Y-34722600D03*
X18124300Y-21689600D03*
D14*
%TO.N,/I2C_SDA*%
X11243000Y-29471300D03*
X16999200Y-36694000D03*
%TO.N,/USB_N*%
X10550000Y-49950000D03*
X11800000Y-52300000D03*
%TO.N,/LOOP_C*%
X35800000Y-43400000D03*
X37000000Y-43400000D03*
X34600000Y-41800000D03*
X34600000Y-43400000D03*
X37000000Y-41800000D03*
X35800000Y-41800000D03*
%TD*%
%TO.N,/LOOP_V*%
D16*
X30500000Y-55000000D02*
X30500000Y-48116400D01*
X30500000Y-48116400D02*
X27960300Y-45576700D01*
%TO.N,+5V*%
D17*
X9100000Y-47500000D02*
X11500000Y-47500000D01*
X11500000Y-47500000D02*
X13900000Y-47500000D01*
%TO.N,+3V3*%
D18*
X18124300Y-21689600D02*
X18124300Y-33253100D01*
X18124300Y-21689600D02*
X15693300Y-19258600D01*
X15693300Y-4271100D02*
X10070400Y-4271100D01*
X15693300Y-19258600D02*
X15693300Y-4271100D01*
X18124300Y-33253100D02*
X19593800Y-34722600D01*
X10070400Y-4271100D02*
X9146000Y-3346700D01*
%TO.N,/I2C_SDA*%
D19*
X11548800Y-29471300D02*
X11243000Y-29471300D01*
X16999200Y-36694000D02*
X16999200Y-34921700D01*
X16999200Y-34921700D02*
X11548800Y-29471300D01*
%TO.N,/USB_N*%
X10550000Y-51050000D02*
X10550000Y-49950000D01*
X11800000Y-52300000D02*
X10550000Y-51050000D01*
%TD*%
%TA.AperFunction,Conductor*%
%TO.N,GND*%
G36*
X38996492Y-500693D02*
G01*
X39003470Y-501086D01*
X39010335Y-501664D01*
X39023878Y-503190D01*
X39090354Y-510679D01*
X39098016Y-513281D01*
X39104063Y-513009D01*
X39117556Y-516089D01*
X39130898Y-519933D01*
X39190352Y-540737D01*
X39210481Y-550430D01*
X39213734Y-551757D01*
X39213736Y-551759D01*
X39213738Y-551759D01*
X39220435Y-554493D01*
X39239540Y-564301D01*
X39293712Y-598339D01*
X39305043Y-606379D01*
X39315878Y-615020D01*
X39326235Y-624277D01*
X39375715Y-673757D01*
X39384980Y-684124D01*
X39393616Y-694953D01*
X39401663Y-706294D01*
X39438896Y-765549D01*
X39445627Y-777729D01*
X39451632Y-790201D01*
X39456949Y-803039D01*
X39480060Y-869085D01*
X39483909Y-882441D01*
X39486741Y-894849D01*
X39486991Y-895941D01*
X39489321Y-909657D01*
X39498329Y-989609D01*
X39498913Y-996529D01*
X39499304Y-1003481D01*
X39499500Y-1010444D01*
X39499500Y-59989554D01*
X39499304Y-59996517D01*
X39498913Y-60003469D01*
X39498329Y-60010389D01*
X39490106Y-60083374D01*
X39485131Y-60105168D01*
X39483383Y-60115787D01*
X39478072Y-60136596D01*
X39456949Y-60196960D01*
X39452711Y-60203844D01*
X39451632Y-60209797D01*
X39445627Y-60222269D01*
X39438896Y-60234449D01*
X39401663Y-60293704D01*
X39393616Y-60305045D01*
X39384980Y-60315874D01*
X39380788Y-60319550D01*
X39379377Y-60322420D01*
X39375715Y-60326241D01*
X39326241Y-60375715D01*
X39315874Y-60384980D01*
X39305045Y-60393616D01*
X39293704Y-60401663D01*
X39234449Y-60438896D01*
X39222269Y-60445627D01*
X39209797Y-60451632D01*
X39196959Y-60456949D01*
X39130913Y-60480060D01*
X39117557Y-60483909D01*
X39108348Y-60486011D01*
X39104053Y-60486991D01*
X39090341Y-60489321D01*
X39010389Y-60498329D01*
X39003470Y-60498913D01*
X38996519Y-60499304D01*
X38989555Y-60499500D01*
X1010445Y-60499500D01*
X1003482Y-60499304D01*
X996530Y-60498913D01*
X989610Y-60498329D01*
X916619Y-60490105D01*
X894847Y-60485135D01*
X891362Y-60484561D01*
X891361Y-60484561D01*
X891359Y-60484561D01*
X884214Y-60483385D01*
X863407Y-60478073D01*
X835463Y-60468295D01*
X803038Y-60456949D01*
X796153Y-60452711D01*
X790201Y-60451632D01*
X777729Y-60445627D01*
X765549Y-60438896D01*
X706294Y-60401663D01*
X694953Y-60393616D01*
X684124Y-60384980D01*
X680448Y-60380789D01*
X677580Y-60379379D01*
X673757Y-60375715D01*
X624283Y-60326241D01*
X615018Y-60315874D01*
X606382Y-60305045D01*
X598335Y-60293704D01*
X561099Y-60234444D01*
X554376Y-60222280D01*
X548371Y-60209810D01*
X543052Y-60196970D01*
X519933Y-60130898D01*
X516085Y-60117539D01*
X513010Y-60104068D01*
X510680Y-60090355D01*
X501669Y-60010372D01*
X501084Y-60003434D01*
X500695Y-59996498D01*
X500500Y-59989554D01*
X500500Y-57397642D01*
X2199500Y-57397642D01*
X2199500Y-57602356D01*
X2231521Y-57804530D01*
X2294780Y-57999221D01*
X2294786Y-57999234D01*
X2387708Y-58181601D01*
X2387709Y-58181602D01*
X2387715Y-58181613D01*
X2508028Y-58347213D01*
X2652786Y-58491971D01*
X2807748Y-58604555D01*
X2807749Y-58604557D01*
X2814626Y-58609552D01*
X2818390Y-58612287D01*
X2860810Y-58633901D01*
X2923405Y-58665795D01*
X2994329Y-58701933D01*
X2995929Y-58702870D01*
X2999624Y-58704660D01*
X3001637Y-58705660D01*
X3005405Y-58706723D01*
X3058088Y-58723840D01*
X3089983Y-58734203D01*
X3089984Y-58734204D01*
X3140752Y-58750699D01*
X3195465Y-58768477D01*
X3296557Y-58784488D01*
X3397648Y-58800500D01*
X3397649Y-58800500D01*
X3602351Y-58800500D01*
X3602352Y-58800500D01*
X3804534Y-58768477D01*
X3999219Y-58705220D01*
X4139538Y-58633724D01*
X6329999Y-58633724D01*
X6362659Y-58797910D01*
X6362665Y-58797937D01*
X6424408Y-58946998D01*
X6426056Y-58951604D01*
X6519764Y-59091848D01*
X6638150Y-59210234D01*
X6777368Y-59303257D01*
X6777367Y-59303257D01*
X6777369Y-59303258D01*
X6777371Y-59303259D01*
X6832059Y-59325911D01*
X6932045Y-59367327D01*
X6932050Y-59367328D01*
X6932061Y-59367333D01*
X6932071Y-59367336D01*
X7029996Y-59386814D01*
X7029998Y-59386815D01*
X7029999Y-59386815D01*
X7030000Y-59386815D01*
X7030000Y-58973999D01*
X7049685Y-58906960D01*
X7102489Y-58861205D01*
X7154000Y-58849999D01*
X7206000Y-58849999D01*
X7273039Y-58869684D01*
X7318794Y-58922488D01*
X7330000Y-58973999D01*
X7330000Y-59386814D01*
X7330000Y-59386815D01*
X7427928Y-59367336D01*
X7427938Y-59367333D01*
X7576997Y-59305590D01*
X7581605Y-59303942D01*
X7582627Y-59303259D01*
X7582628Y-59303259D01*
X7721839Y-59210241D01*
X7721847Y-59210235D01*
X7840235Y-59091847D01*
X7840241Y-59091839D01*
X7933259Y-58952628D01*
X7933259Y-58952627D01*
X7933259Y-58952624D01*
X7933940Y-58951607D01*
X7935583Y-58947015D01*
X7997334Y-58797936D01*
X7997336Y-58797928D01*
X8029566Y-58635898D01*
X8030000Y-58633901D01*
X8030000Y-58633724D01*
X14969999Y-58633724D01*
X15002659Y-58797910D01*
X15002665Y-58797937D01*
X15064408Y-58946998D01*
X15066056Y-58951604D01*
X15159764Y-59091848D01*
X15278150Y-59210234D01*
X15417368Y-59303257D01*
X15417367Y-59303257D01*
X15417369Y-59303258D01*
X15417371Y-59303259D01*
X15472059Y-59325911D01*
X15572045Y-59367327D01*
X15572050Y-59367328D01*
X15572061Y-59367333D01*
X15572071Y-59367336D01*
X15669996Y-59386814D01*
X15669998Y-59386815D01*
X15669999Y-59386815D01*
X15670000Y-59386815D01*
X15670000Y-58973999D01*
X15689685Y-58906960D01*
X15742489Y-58861205D01*
X15794000Y-58849999D01*
X15846000Y-58849999D01*
X15913039Y-58869684D01*
X15958794Y-58922488D01*
X15970000Y-58973999D01*
X15970000Y-59386814D01*
X15970000Y-59386815D01*
X16067928Y-59367336D01*
X16067938Y-59367333D01*
X16216997Y-59305590D01*
X16221605Y-59303942D01*
X16222627Y-59303259D01*
X16222628Y-59303259D01*
X16361839Y-59210241D01*
X16361847Y-59210235D01*
X16480235Y-59091847D01*
X16480241Y-59091839D01*
X16573259Y-58952628D01*
X16573259Y-58952627D01*
X16573259Y-58952624D01*
X16573940Y-58951607D01*
X16575583Y-58947015D01*
X16637334Y-58797936D01*
X16637336Y-58797928D01*
X16669566Y-58635898D01*
X16670000Y-58633901D01*
X16670000Y-58500000D01*
X16243999Y-58500000D01*
X16176960Y-58480315D01*
X16131205Y-58427511D01*
X16119999Y-58376000D01*
X16119999Y-58324000D01*
X16139684Y-58256961D01*
X16192488Y-58211206D01*
X16243999Y-58200000D01*
X16670000Y-58200000D01*
X16670000Y-58066095D01*
X16669564Y-58064090D01*
X16637341Y-57902096D01*
X16637339Y-57902088D01*
X16637336Y-57902071D01*
X16637334Y-57902063D01*
X16575586Y-57752990D01*
X16573941Y-57748392D01*
X16480234Y-57608150D01*
X16361848Y-57489764D01*
X16223978Y-57397642D01*
X35199500Y-57397642D01*
X35199500Y-57602356D01*
X35231521Y-57804530D01*
X35294780Y-57999221D01*
X35294786Y-57999234D01*
X35387708Y-58181601D01*
X35387709Y-58181602D01*
X35387715Y-58181613D01*
X35508028Y-58347213D01*
X35652786Y-58491971D01*
X35807748Y-58604555D01*
X35807749Y-58604557D01*
X35814626Y-58609552D01*
X35818390Y-58612287D01*
X35860810Y-58633901D01*
X35923405Y-58665795D01*
X35994329Y-58701933D01*
X35995929Y-58702870D01*
X35999624Y-58704660D01*
X36001637Y-58705660D01*
X36005405Y-58706723D01*
X36058088Y-58723840D01*
X36089983Y-58734203D01*
X36089984Y-58734204D01*
X36140752Y-58750699D01*
X36195465Y-58768477D01*
X36296557Y-58784488D01*
X36397648Y-58800500D01*
X36397649Y-58800500D01*
X36602351Y-58800500D01*
X36602352Y-58800500D01*
X36804534Y-58768477D01*
X36999219Y-58705220D01*
X37181610Y-58612287D01*
X37274590Y-58544732D01*
X37347213Y-58491971D01*
X37347213Y-58491969D01*
X37347272Y-58491927D01*
X37348031Y-58491153D01*
X37491153Y-58348031D01*
X37491928Y-58347271D01*
X37491981Y-58347199D01*
X37544730Y-58274593D01*
X37544732Y-58274591D01*
X37584623Y-58219685D01*
X37612287Y-58181610D01*
X37705220Y-57999219D01*
X37768477Y-57804534D01*
X37800500Y-57602352D01*
X37800500Y-57397648D01*
X37768477Y-57195466D01*
X37768476Y-57195462D01*
X37768476Y-57195461D01*
X37706722Y-57005403D01*
X37705659Y-57001637D01*
X37704662Y-56999629D01*
X37702870Y-56995930D01*
X37701932Y-56994327D01*
X37671503Y-56934607D01*
X37612287Y-56818390D01*
X37604556Y-56807749D01*
X37491971Y-56652786D01*
X37347213Y-56508028D01*
X37347212Y-56508027D01*
X37347211Y-56508026D01*
X37189507Y-56393450D01*
X37189168Y-56393161D01*
X37181603Y-56387707D01*
X37181188Y-56387498D01*
X37124654Y-56358691D01*
X37124653Y-56358691D01*
X36999223Y-56294781D01*
X36804534Y-56231522D01*
X36804532Y-56231521D01*
X36804530Y-56231521D01*
X36804529Y-56231520D01*
X36629995Y-56203878D01*
X36613409Y-56201251D01*
X36602354Y-56199500D01*
X36602352Y-56199500D01*
X36397648Y-56199500D01*
X36397647Y-56199500D01*
X36373327Y-56203351D01*
X36373326Y-56203350D01*
X36195468Y-56231521D01*
X36000777Y-56294780D01*
X36000764Y-56294786D01*
X35818397Y-56387708D01*
X35818385Y-56387715D01*
X35652787Y-56508027D01*
X35652784Y-56508029D01*
X35508029Y-56652784D01*
X35508027Y-56652787D01*
X35387715Y-56818385D01*
X35387708Y-56818397D01*
X35294786Y-57000764D01*
X35294780Y-57000777D01*
X35231521Y-57195468D01*
X35199500Y-57397642D01*
X16223978Y-57397642D01*
X16222633Y-57396743D01*
X16222621Y-57396736D01*
X16067937Y-57332665D01*
X16067906Y-57332658D01*
X15970000Y-57313183D01*
X15970000Y-57726001D01*
X15950315Y-57793040D01*
X15897511Y-57838795D01*
X15846000Y-57850001D01*
X15794000Y-57850001D01*
X15726961Y-57830316D01*
X15681206Y-57777512D01*
X15670000Y-57726001D01*
X15670000Y-57313184D01*
X15669998Y-57313182D01*
X15572092Y-57332658D01*
X15572061Y-57332665D01*
X15423000Y-57394408D01*
X15418395Y-57396055D01*
X15278150Y-57489764D01*
X15159764Y-57608150D01*
X15066055Y-57748395D01*
X15064408Y-57753000D01*
X15002665Y-57902061D01*
X15002659Y-57902088D01*
X14970000Y-58066274D01*
X14970000Y-58066277D01*
X14970000Y-58200000D01*
X15396001Y-58200000D01*
X15463040Y-58219685D01*
X15508795Y-58272489D01*
X15520001Y-58324000D01*
X15520001Y-58376000D01*
X15500316Y-58443039D01*
X15447512Y-58488794D01*
X15396001Y-58500000D01*
X14970000Y-58500000D01*
X14970000Y-58633722D01*
X14970000Y-58633724D01*
X14969999Y-58633724D01*
X8030000Y-58633724D01*
X8030000Y-58500000D01*
X7603999Y-58500000D01*
X7536960Y-58480315D01*
X7491205Y-58427511D01*
X7479999Y-58376000D01*
X7479999Y-58324000D01*
X7499684Y-58256961D01*
X7552488Y-58211206D01*
X7603999Y-58200000D01*
X8030000Y-58200000D01*
X8030000Y-58068760D01*
X8030000Y-58066279D01*
X8029999Y-58066277D01*
X7997336Y-57902071D01*
X7997334Y-57902063D01*
X7935586Y-57752990D01*
X7933941Y-57748392D01*
X7840234Y-57608150D01*
X7721848Y-57489764D01*
X7582633Y-57396743D01*
X7582621Y-57396736D01*
X7427937Y-57332665D01*
X7427906Y-57332658D01*
X7330000Y-57313183D01*
X7330000Y-57726001D01*
X7310315Y-57793040D01*
X7257511Y-57838795D01*
X7206000Y-57850001D01*
X7154000Y-57850001D01*
X7086961Y-57830316D01*
X7041206Y-57777512D01*
X7030000Y-57726001D01*
X7030000Y-57313184D01*
X7029998Y-57313182D01*
X6932092Y-57332658D01*
X6932061Y-57332665D01*
X6783000Y-57394408D01*
X6778395Y-57396055D01*
X6638150Y-57489764D01*
X6519764Y-57608150D01*
X6426055Y-57748395D01*
X6424408Y-57753000D01*
X6362665Y-57902061D01*
X6362659Y-57902088D01*
X6330000Y-58066274D01*
X6330000Y-58066277D01*
X6330000Y-58200000D01*
X6756001Y-58200000D01*
X6823040Y-58219685D01*
X6868795Y-58272489D01*
X6880001Y-58324000D01*
X6880001Y-58376000D01*
X6860316Y-58443039D01*
X6807512Y-58488794D01*
X6756001Y-58500000D01*
X6330000Y-58500000D01*
X6330000Y-58633722D01*
X6330000Y-58633724D01*
X6329999Y-58633724D01*
X4139538Y-58633724D01*
X4181610Y-58612287D01*
X4274590Y-58544732D01*
X4347213Y-58491971D01*
X4347213Y-58491969D01*
X4347272Y-58491927D01*
X4348031Y-58491153D01*
X4491153Y-58348031D01*
X4491928Y-58347271D01*
X4491981Y-58347199D01*
X4544730Y-58274593D01*
X4544732Y-58274590D01*
X4584623Y-58219685D01*
X4612287Y-58181610D01*
X4687394Y-58034205D01*
X4702838Y-58003895D01*
X4702838Y-58003894D01*
X4703268Y-58003050D01*
X4704590Y-58000663D01*
X4705080Y-57999647D01*
X4705217Y-57999222D01*
X4705220Y-57999219D01*
X4768477Y-57804534D01*
X4800500Y-57602352D01*
X4800500Y-57397648D01*
X4768477Y-57195466D01*
X4768476Y-57195462D01*
X4768476Y-57195461D01*
X4706722Y-57005403D01*
X4705659Y-57001637D01*
X4704662Y-56999629D01*
X4702870Y-56995930D01*
X4701932Y-56994327D01*
X4671503Y-56934607D01*
X4612287Y-56818390D01*
X4604556Y-56807749D01*
X4491971Y-56652786D01*
X4347213Y-56508028D01*
X4347212Y-56508027D01*
X4347211Y-56508026D01*
X4189507Y-56393450D01*
X4189168Y-56393161D01*
X4181603Y-56387707D01*
X4181188Y-56387498D01*
X4124654Y-56358691D01*
X4124653Y-56358691D01*
X3999223Y-56294781D01*
X3804534Y-56231522D01*
X3804532Y-56231521D01*
X3804530Y-56231521D01*
X3804529Y-56231520D01*
X3629995Y-56203878D01*
X3613409Y-56201251D01*
X3602354Y-56199500D01*
X3602352Y-56199500D01*
X3397648Y-56199500D01*
X3397647Y-56199500D01*
X3373327Y-56203351D01*
X3373326Y-56203350D01*
X3195468Y-56231521D01*
X3000777Y-56294780D01*
X3000764Y-56294786D01*
X2818397Y-56387708D01*
X2818385Y-56387715D01*
X2652787Y-56508027D01*
X2652784Y-56508029D01*
X2508029Y-56652784D01*
X2508027Y-56652787D01*
X2387715Y-56818385D01*
X2387708Y-56818397D01*
X2294786Y-57000764D01*
X2294780Y-57000777D01*
X2231521Y-57195468D01*
X2199500Y-57397642D01*
X500500Y-57397642D01*
X500500Y-53661198D01*
X6380000Y-53661198D01*
X6380000Y-53661202D01*
X6380000Y-53990000D01*
X6756001Y-53990000D01*
X6823040Y-54009685D01*
X6868795Y-54062489D01*
X6880001Y-54114000D01*
X6880001Y-54166000D01*
X6860316Y-54233039D01*
X6807512Y-54278794D01*
X6756001Y-54290000D01*
X6380000Y-54290000D01*
X6380000Y-54618800D01*
X6410735Y-54773317D01*
X6410743Y-54773352D01*
X6471043Y-54918933D01*
X6471048Y-54918943D01*
X6558599Y-55049971D01*
X6558600Y-55049972D01*
X6558605Y-55049978D01*
X6670020Y-55161393D01*
X6670026Y-55161398D01*
X6670030Y-55161401D01*
X6801051Y-55248947D01*
X6801056Y-55248950D01*
X6801055Y-55248950D01*
X6801065Y-55248955D01*
X6946623Y-55309246D01*
X6946629Y-55309248D01*
X6946646Y-55309255D01*
X6946656Y-55309258D01*
X6946660Y-55309258D01*
X6946661Y-55309259D01*
X7029996Y-55325836D01*
X7029999Y-55325836D01*
X7030000Y-55325836D01*
X7030000Y-54913999D01*
X7049685Y-54846960D01*
X7102489Y-54801205D01*
X7154000Y-54789999D01*
X7206000Y-54789999D01*
X7273039Y-54809684D01*
X7318794Y-54862488D01*
X7330000Y-54913999D01*
X7330000Y-55325836D01*
X7413343Y-55309258D01*
X7413353Y-55309255D01*
X7413375Y-55309246D01*
X7558933Y-55248955D01*
X7558943Y-55248950D01*
X7558944Y-55248948D01*
X7558948Y-55248947D01*
X7689969Y-55161401D01*
X7689973Y-55161398D01*
X7801398Y-55049973D01*
X7801401Y-55049969D01*
X7883482Y-54927127D01*
X7890018Y-54918230D01*
X7893184Y-54914300D01*
X7907434Y-54896609D01*
X7964818Y-54856752D01*
X8034642Y-54854245D01*
X8092191Y-54887232D01*
X8099164Y-54894287D01*
X8118358Y-54919452D01*
X8135663Y-54949425D01*
X8155193Y-54983252D01*
X8169489Y-55008013D01*
X8169491Y-55008015D01*
X8271985Y-55110509D01*
X8272674Y-55111005D01*
X8275178Y-55112353D01*
X8394069Y-55180995D01*
X8397087Y-55182869D01*
X8397514Y-55182983D01*
X8397515Y-55182984D01*
X8537525Y-55220500D01*
X8537528Y-55220500D01*
X8682472Y-55220500D01*
X8682475Y-55220500D01*
X8822485Y-55182984D01*
X8948015Y-55110509D01*
X9050509Y-55008015D01*
X9122984Y-54882485D01*
X9160500Y-54742475D01*
X9160500Y-54597525D01*
X13839500Y-54597525D01*
X13839500Y-54742475D01*
X13846756Y-54769555D01*
X13872543Y-54865793D01*
X13877016Y-54882486D01*
X13877018Y-54882491D01*
X13947635Y-55004802D01*
X13949123Y-55007568D01*
X13949353Y-55007877D01*
X14051985Y-55110509D01*
X14052674Y-55111005D01*
X14055178Y-55112353D01*
X14174069Y-55180995D01*
X14177087Y-55182869D01*
X14177514Y-55182983D01*
X14177515Y-55182984D01*
X14317525Y-55220500D01*
X14317528Y-55220500D01*
X14462472Y-55220500D01*
X14462475Y-55220500D01*
X14602485Y-55182984D01*
X14728015Y-55110509D01*
X14830509Y-55008015D01*
X14880704Y-54921075D01*
X14902517Y-54893337D01*
X14911548Y-54884726D01*
X14973650Y-54852712D01*
X15043204Y-54859354D01*
X15095937Y-54899569D01*
X15111992Y-54920751D01*
X15116273Y-54926762D01*
X15198599Y-55049971D01*
X15198600Y-55049972D01*
X15198605Y-55049978D01*
X15310020Y-55161393D01*
X15310026Y-55161398D01*
X15310030Y-55161401D01*
X15441051Y-55248947D01*
X15441056Y-55248950D01*
X15441055Y-55248950D01*
X15441065Y-55248955D01*
X15586623Y-55309246D01*
X15586629Y-55309248D01*
X15586646Y-55309255D01*
X15586656Y-55309258D01*
X15586660Y-55309258D01*
X15586661Y-55309259D01*
X15669996Y-55325836D01*
X15669999Y-55325836D01*
X15670000Y-55325836D01*
X15670000Y-54913999D01*
X15689685Y-54846960D01*
X15742489Y-54801205D01*
X15794000Y-54789999D01*
X15846000Y-54789999D01*
X15913039Y-54809684D01*
X15958794Y-54862488D01*
X15970000Y-54913999D01*
X15970000Y-55325836D01*
X16053343Y-55309258D01*
X16053353Y-55309255D01*
X16053375Y-55309246D01*
X16198933Y-55248955D01*
X16198943Y-55248950D01*
X16198944Y-55248948D01*
X16198948Y-55248947D01*
X16329969Y-55161401D01*
X16329973Y-55161398D01*
X16441398Y-55049973D01*
X16441401Y-55049969D01*
X16528947Y-54918948D01*
X16528954Y-54918935D01*
X16541015Y-54889818D01*
X19100000Y-54889818D01*
X19100000Y-55110181D01*
X19111215Y-55180991D01*
X19134473Y-55327836D01*
X19202565Y-55537407D01*
X19202571Y-55537420D01*
X19302613Y-55733761D01*
X19302614Y-55733762D01*
X19302803Y-55734022D01*
X19408442Y-55879423D01*
X19408443Y-55879423D01*
X19775915Y-55511950D01*
X19837236Y-55478467D01*
X19906927Y-55483451D01*
X19951275Y-55511952D01*
X19988045Y-55548722D01*
X20021530Y-55610045D01*
X20016546Y-55679737D01*
X19988045Y-55724084D01*
X19620574Y-56091554D01*
X19620574Y-56091555D01*
X19620580Y-56091561D01*
X19766235Y-56197384D01*
X19766237Y-56197385D01*
X19962578Y-56297427D01*
X19962591Y-56297433D01*
X20067376Y-56331479D01*
X20172164Y-56365526D01*
X20389819Y-56400000D01*
X20610180Y-56400000D01*
X20610181Y-56400000D01*
X20827835Y-56365526D01*
X21037410Y-56297432D01*
X21233763Y-56197384D01*
X21379423Y-56091557D01*
X21379424Y-56091555D01*
X21379423Y-56091553D01*
X21011953Y-55724084D01*
X20978468Y-55662761D01*
X20983452Y-55593070D01*
X21011951Y-55548724D01*
X21048724Y-55511951D01*
X21110045Y-55478468D01*
X21179737Y-55483452D01*
X21224084Y-55511953D01*
X21591553Y-55879423D01*
X21591555Y-55879424D01*
X21591557Y-55879423D01*
X21697384Y-55733763D01*
X21760422Y-55610045D01*
X21797427Y-55537420D01*
X21797433Y-55537407D01*
X21837671Y-55413564D01*
X21865526Y-55327835D01*
X21900000Y-55110181D01*
X21900000Y-54889818D01*
X21899993Y-54889776D01*
X24099500Y-54889776D01*
X24099500Y-55110222D01*
X24099529Y-55110404D01*
X24099537Y-55110512D01*
X24099546Y-55110511D01*
X24133985Y-55327955D01*
X24202094Y-55537579D01*
X24202102Y-55537602D01*
X24202104Y-55537606D01*
X24266838Y-55664651D01*
X24266839Y-55664652D01*
X24302096Y-55733848D01*
X24302183Y-55734020D01*
X24302185Y-55734023D01*
X24407823Y-55879422D01*
X24431752Y-55912358D01*
X24431756Y-55912363D01*
X24431761Y-55912369D01*
X24587627Y-56068235D01*
X24587636Y-56068243D01*
X24587660Y-56068261D01*
X24743189Y-56181259D01*
X24743192Y-56181260D01*
X24754585Y-56189537D01*
X24765976Y-56197814D01*
X24765978Y-56197815D01*
X24894375Y-56263237D01*
X24962393Y-56297895D01*
X24962396Y-56297896D01*
X24962433Y-56297908D01*
X24962468Y-56297920D01*
X25067221Y-56331955D01*
X25172049Y-56366015D01*
X25389778Y-56400500D01*
X25389779Y-56400500D01*
X25610221Y-56400500D01*
X25610222Y-56400500D01*
X25827951Y-56366015D01*
X26037606Y-56297895D01*
X26234022Y-56197815D01*
X26412365Y-56068242D01*
X26568242Y-55912365D01*
X26697815Y-55734022D01*
X26797895Y-55537606D01*
X26866015Y-55327951D01*
X26900500Y-55110222D01*
X26900500Y-54889778D01*
X26866015Y-54672049D01*
X26831955Y-54567221D01*
X26797904Y-54462419D01*
X26797896Y-54462396D01*
X26797895Y-54462393D01*
X26738873Y-54346558D01*
X26697815Y-54265978D01*
X26618650Y-54157016D01*
X26568247Y-54087641D01*
X26568243Y-54087636D01*
X26568242Y-54087635D01*
X26568235Y-54087627D01*
X26412369Y-53931761D01*
X26412364Y-53931757D01*
X26412363Y-53931756D01*
X26412358Y-53931752D01*
X26380274Y-53908442D01*
X26241916Y-53807919D01*
X26241583Y-53807635D01*
X26234009Y-53802175D01*
X26233602Y-53801970D01*
X26171098Y-53770123D01*
X26171096Y-53770122D01*
X26037606Y-53702104D01*
X26037602Y-53702102D01*
X26037579Y-53702094D01*
X25827954Y-53633985D01*
X25827955Y-53633985D01*
X25649973Y-53605796D01*
X25631202Y-53602823D01*
X25610222Y-53599500D01*
X25610221Y-53599500D01*
X25389779Y-53599500D01*
X25389778Y-53599500D01*
X25368798Y-53602823D01*
X25350027Y-53605796D01*
X25172043Y-53633985D01*
X24962419Y-53702094D01*
X24962396Y-53702102D01*
X24962392Y-53702104D01*
X24765972Y-53802187D01*
X24587658Y-53931739D01*
X24587629Y-53931761D01*
X24431761Y-54087629D01*
X24431739Y-54087658D01*
X24302187Y-54265972D01*
X24202104Y-54462392D01*
X24202102Y-54462396D01*
X24202094Y-54462419D01*
X24133985Y-54672043D01*
X24122830Y-54742474D01*
X24104060Y-54860986D01*
X24102606Y-54870169D01*
X24099500Y-54889776D01*
X21899993Y-54889776D01*
X21865526Y-54672164D01*
X21814964Y-54516547D01*
X21797433Y-54462591D01*
X21797427Y-54462578D01*
X21697385Y-54266237D01*
X21697384Y-54266235D01*
X21591561Y-54120580D01*
X21591555Y-54120574D01*
X21224084Y-54488045D01*
X21162761Y-54521530D01*
X21093069Y-54516546D01*
X21048722Y-54488045D01*
X21011952Y-54451275D01*
X20978467Y-54389952D01*
X20983451Y-54320260D01*
X21011950Y-54275915D01*
X21379423Y-53908443D01*
X21379423Y-53908442D01*
X21233762Y-53802614D01*
X21233761Y-53802613D01*
X21037420Y-53702571D01*
X21037407Y-53702565D01*
X20827836Y-53634473D01*
X20719008Y-53617236D01*
X20610181Y-53600000D01*
X20610180Y-53600000D01*
X20389814Y-53600000D01*
X20172162Y-53634473D01*
X19962591Y-53702565D01*
X19962588Y-53702566D01*
X19766246Y-53802609D01*
X19766243Y-53802610D01*
X19766243Y-53802611D01*
X19759328Y-53807635D01*
X19620575Y-53908443D01*
X19988046Y-54275914D01*
X20021531Y-54337237D01*
X20016547Y-54406929D01*
X19988046Y-54451276D01*
X19951276Y-54488046D01*
X19889953Y-54521531D01*
X19820261Y-54516547D01*
X19775914Y-54488046D01*
X19408443Y-54120575D01*
X19302616Y-54266237D01*
X19302609Y-54266246D01*
X19202566Y-54462588D01*
X19202565Y-54462591D01*
X19134473Y-54672162D01*
X19104566Y-54860987D01*
X19100000Y-54889818D01*
X16541015Y-54889818D01*
X16562688Y-54837494D01*
X16562688Y-54837493D01*
X16589256Y-54773351D01*
X16589258Y-54773343D01*
X16619278Y-54622420D01*
X16619615Y-54621165D01*
X16620000Y-54618795D01*
X16620000Y-54290000D01*
X16243999Y-54290000D01*
X16176960Y-54270315D01*
X16131205Y-54217511D01*
X16119999Y-54166000D01*
X16119999Y-54114000D01*
X16139684Y-54046961D01*
X16192488Y-54001206D01*
X16243999Y-53990000D01*
X16620000Y-53990000D01*
X16620000Y-53661204D01*
X16619909Y-53660466D01*
X16619408Y-53658231D01*
X16589263Y-53506681D01*
X16589262Y-53506680D01*
X16589258Y-53506656D01*
X16589256Y-53506648D01*
X16552335Y-53417512D01*
X16528955Y-53361065D01*
X16528950Y-53361055D01*
X16441399Y-53230027D01*
X16441398Y-53230026D01*
X16441393Y-53230020D01*
X16329978Y-53118605D01*
X16329972Y-53118600D01*
X16329971Y-53118599D01*
X16198942Y-53031048D01*
X16198943Y-53031048D01*
X16198933Y-53031043D01*
X16053360Y-52970746D01*
X16053339Y-52970739D01*
X16053330Y-52970737D01*
X15970000Y-52954161D01*
X15970000Y-53366001D01*
X15950315Y-53433040D01*
X15897511Y-53478795D01*
X15846000Y-53490001D01*
X15794000Y-53490001D01*
X15726961Y-53470316D01*
X15681206Y-53417512D01*
X15670000Y-53366001D01*
X15670000Y-52954163D01*
X15669998Y-52954161D01*
X15586665Y-52970738D01*
X15586659Y-52970739D01*
X15586638Y-52970746D01*
X15441065Y-53031043D01*
X15441055Y-53031048D01*
X15310027Y-53118599D01*
X15310026Y-53118600D01*
X15310020Y-53118605D01*
X15198605Y-53230020D01*
X15198600Y-53230026D01*
X15198599Y-53230027D01*
X15111048Y-53361055D01*
X15111043Y-53361065D01*
X15050743Y-53506646D01*
X15050735Y-53506681D01*
X15020000Y-53661198D01*
X15020000Y-53661202D01*
X15020000Y-53990000D01*
X15396001Y-53990000D01*
X15463040Y-54009685D01*
X15508795Y-54062489D01*
X15520001Y-54114000D01*
X15520001Y-54166000D01*
X15500316Y-54233039D01*
X15447512Y-54278794D01*
X15396001Y-54290000D01*
X15020000Y-54290000D01*
X15004549Y-54305451D01*
X14976294Y-54326601D01*
X14962573Y-54334093D01*
X14894313Y-54348945D01*
X14892507Y-54348816D01*
X14834306Y-54329448D01*
X14827791Y-54325261D01*
X14807159Y-54308635D01*
X14728017Y-54229493D01*
X14728014Y-54229490D01*
X14728006Y-54229485D01*
X14674243Y-54198445D01*
X14645808Y-54168624D01*
X14591007Y-54153939D01*
X14591007Y-54153940D01*
X14526740Y-54136720D01*
X14462475Y-54119500D01*
X14462474Y-54119500D01*
X14317525Y-54119500D01*
X14188994Y-54153939D01*
X14188993Y-54153940D01*
X14181338Y-54155991D01*
X14177510Y-54157017D01*
X14051991Y-54229485D01*
X14051984Y-54229490D01*
X14051968Y-54229505D01*
X13949505Y-54331968D01*
X13949490Y-54331984D01*
X13949485Y-54331992D01*
X13877017Y-54457509D01*
X13877004Y-54457541D01*
X13876909Y-54457914D01*
X13839500Y-54597525D01*
X9160500Y-54597525D01*
X9122984Y-54457515D01*
X9061800Y-54351542D01*
X9057418Y-54343952D01*
X9050512Y-54331989D01*
X9050510Y-54331986D01*
X9050506Y-54331982D01*
X9050502Y-54331978D01*
X9050493Y-54331968D01*
X8948030Y-54229505D01*
X8948014Y-54229490D01*
X8948006Y-54229485D01*
X8894243Y-54198445D01*
X8865808Y-54168624D01*
X8811007Y-54153939D01*
X8811007Y-54153940D01*
X8746740Y-54136720D01*
X8682475Y-54119500D01*
X8682474Y-54119500D01*
X8537525Y-54119500D01*
X8408994Y-54153939D01*
X8408993Y-54153940D01*
X8401338Y-54155991D01*
X8397510Y-54157017D01*
X8271991Y-54229485D01*
X8271984Y-54229490D01*
X8271968Y-54229505D01*
X8196023Y-54305451D01*
X8167765Y-54326604D01*
X8154047Y-54334094D01*
X8085789Y-54348945D01*
X8083983Y-54348816D01*
X8025782Y-54329448D01*
X8019267Y-54325261D01*
X7998631Y-54308631D01*
X7980000Y-54290000D01*
X7603999Y-54290000D01*
X7536960Y-54270315D01*
X7491205Y-54217511D01*
X7479999Y-54166000D01*
X7479999Y-54114000D01*
X7499684Y-54046961D01*
X7552488Y-54001206D01*
X7603999Y-53990000D01*
X7980000Y-53990000D01*
X7980000Y-53661204D01*
X7979909Y-53660466D01*
X7979408Y-53658231D01*
X7949263Y-53506681D01*
X7949262Y-53506680D01*
X7949258Y-53506656D01*
X7949256Y-53506648D01*
X7912335Y-53417512D01*
X7888955Y-53361065D01*
X7888950Y-53361055D01*
X7801399Y-53230027D01*
X7801398Y-53230026D01*
X7801393Y-53230020D01*
X7689978Y-53118605D01*
X7689972Y-53118600D01*
X7689971Y-53118599D01*
X7558942Y-53031048D01*
X7558943Y-53031048D01*
X7558933Y-53031043D01*
X7413360Y-52970746D01*
X7413339Y-52970739D01*
X7413330Y-52970737D01*
X7330000Y-52954161D01*
X7330000Y-53366001D01*
X7310315Y-53433040D01*
X7257511Y-53478795D01*
X7206000Y-53490001D01*
X7154000Y-53490001D01*
X7086961Y-53470316D01*
X7041206Y-53417512D01*
X7030000Y-53366001D01*
X7030000Y-52954163D01*
X7029998Y-52954161D01*
X6946665Y-52970738D01*
X6946659Y-52970739D01*
X6946638Y-52970746D01*
X6801065Y-53031043D01*
X6801055Y-53031048D01*
X6670027Y-53118599D01*
X6670026Y-53118600D01*
X6670020Y-53118605D01*
X6558605Y-53230020D01*
X6558600Y-53230026D01*
X6558599Y-53230027D01*
X6471048Y-53361055D01*
X6471043Y-53361065D01*
X6410743Y-53506646D01*
X6410735Y-53506681D01*
X6380000Y-53661198D01*
X500500Y-53661198D01*
X500500Y-49884108D01*
X10049500Y-49884108D01*
X10049500Y-50015891D01*
X10066554Y-50079539D01*
X10083608Y-50143188D01*
X10116554Y-50200250D01*
X10149500Y-50257314D01*
X10149502Y-50257316D01*
X10200573Y-50308387D01*
X10221723Y-50336639D01*
X10234331Y-50359728D01*
X10249500Y-50419157D01*
X10249500Y-51089563D01*
X10263150Y-51140509D01*
X10263151Y-51140509D01*
X10263152Y-51140513D01*
X10269979Y-51165990D01*
X10269980Y-51165991D01*
X10269981Y-51165995D01*
X10270004Y-51166050D01*
X10270488Y-51166872D01*
X10309535Y-51234504D01*
X10309541Y-51234512D01*
X10309544Y-51234515D01*
X10309545Y-51234517D01*
X11250573Y-52175544D01*
X11271723Y-52203796D01*
X11284331Y-52226885D01*
X11299500Y-52286314D01*
X11299500Y-52365891D01*
X11316554Y-52429539D01*
X11333608Y-52493188D01*
X11366554Y-52550250D01*
X11399500Y-52607314D01*
X11492686Y-52700500D01*
X11606814Y-52766392D01*
X11734108Y-52800500D01*
X11734110Y-52800500D01*
X11865890Y-52800500D01*
X11865892Y-52800500D01*
X11993186Y-52766392D01*
X12107314Y-52700500D01*
X12200500Y-52607314D01*
X12266392Y-52493186D01*
X12300500Y-52365892D01*
X12300500Y-52234108D01*
X12266392Y-52106814D01*
X12200500Y-51992686D01*
X12107314Y-51899500D01*
X12050250Y-51866554D01*
X11993187Y-51833608D01*
X11929539Y-51816554D01*
X11865892Y-51799500D01*
X11865891Y-51799500D01*
X11793663Y-51799500D01*
X11758727Y-51794477D01*
X11733485Y-51787065D01*
X11680740Y-51755769D01*
X10899426Y-50974455D01*
X10878274Y-50946199D01*
X10865667Y-50923110D01*
X10850500Y-50863685D01*
X10850500Y-50426505D01*
X10855522Y-50391572D01*
X10862934Y-50366327D01*
X10894227Y-50313586D01*
X10950500Y-50257314D01*
X11016392Y-50143186D01*
X11050500Y-50015892D01*
X11050500Y-49884108D01*
X11016392Y-49756814D01*
X11016387Y-49756806D01*
X11007563Y-49741521D01*
X10950500Y-49642686D01*
X10857314Y-49549500D01*
X10800250Y-49516554D01*
X10743187Y-49483608D01*
X10679539Y-49466554D01*
X10615892Y-49449500D01*
X10615891Y-49449500D01*
X10484108Y-49449500D01*
X10356808Y-49483609D01*
X10356806Y-49483610D01*
X10242696Y-49549493D01*
X10242682Y-49549502D01*
X10242677Y-49549506D01*
X10149506Y-49642677D01*
X10149502Y-49642682D01*
X10149493Y-49642696D01*
X10083610Y-49756806D01*
X10083609Y-49756808D01*
X10083608Y-49756812D01*
X10049500Y-49884108D01*
X500500Y-49884108D01*
X500500Y-47420943D01*
X8499500Y-47420943D01*
X8499500Y-47579056D01*
X8523126Y-47667230D01*
X8540422Y-47731780D01*
X8540424Y-47731787D01*
X8540425Y-47731788D01*
X8540428Y-47731793D01*
X8617629Y-47865513D01*
X8619012Y-47868084D01*
X8619398Y-47868634D01*
X8731336Y-47980572D01*
X8731852Y-47980952D01*
X8734475Y-47982363D01*
X8868209Y-48059573D01*
X8868216Y-48059577D01*
X9020943Y-48100500D01*
X9020945Y-48100500D01*
X9179055Y-48100500D01*
X9179057Y-48100500D01*
X9331784Y-48059577D01*
X9468716Y-47980520D01*
X9468717Y-47980517D01*
X9471830Y-47978721D01*
X9489096Y-47970459D01*
X9519151Y-47958840D01*
X9563858Y-47950500D01*
X11229739Y-47950500D01*
X11261834Y-47954726D01*
X11293760Y-47963281D01*
X11339417Y-47975515D01*
X11344316Y-47976440D01*
X11434108Y-48000500D01*
X11434110Y-48000500D01*
X11565890Y-48000500D01*
X11565892Y-48000500D01*
X11655644Y-47976451D01*
X11656969Y-47976482D01*
X11701248Y-47964617D01*
X11701249Y-47964618D01*
X11738169Y-47954724D01*
X11770263Y-47950500D01*
X13432239Y-47950500D01*
X13467175Y-47955523D01*
X13496058Y-47964004D01*
X13523415Y-47977901D01*
X13524248Y-47976459D01*
X13529694Y-47979603D01*
X13532890Y-47981512D01*
X13539532Y-47985617D01*
X13542152Y-47986795D01*
X13668209Y-48059573D01*
X13668216Y-48059577D01*
X13820943Y-48100500D01*
X13820945Y-48100500D01*
X13979055Y-48100500D01*
X13979057Y-48100500D01*
X14131784Y-48059577D01*
X14268716Y-47980520D01*
X14380520Y-47868716D01*
X14459577Y-47731784D01*
X14500500Y-47579057D01*
X14500500Y-47420943D01*
X14459577Y-47268216D01*
X14459573Y-47268209D01*
X14380524Y-47131290D01*
X14380518Y-47131282D01*
X14380514Y-47131278D01*
X14380513Y-47131276D01*
X14268722Y-47019485D01*
X14268720Y-47019484D01*
X14268717Y-47019481D01*
X14268709Y-47019475D01*
X14234111Y-46999500D01*
X14131807Y-46940435D01*
X14131783Y-46940422D01*
X14019979Y-46910464D01*
X13979057Y-46899500D01*
X13979056Y-46899500D01*
X13820943Y-46899500D01*
X13668218Y-46940422D01*
X13668211Y-46940424D01*
X13668210Y-46940425D01*
X13668205Y-46940428D01*
X13528161Y-47021281D01*
X13510880Y-47029549D01*
X13502207Y-47032902D01*
X13480856Y-47041156D01*
X13436142Y-47049500D01*
X11770263Y-47049500D01*
X11738167Y-47045274D01*
X11722800Y-47041156D01*
X11660599Y-47024487D01*
X11655634Y-47023546D01*
X11637542Y-47018698D01*
X11565892Y-46999500D01*
X11565891Y-46999500D01*
X11434108Y-46999500D01*
X11344343Y-47023552D01*
X11343010Y-47023520D01*
X11261833Y-47045274D01*
X11229736Y-47049500D01*
X9567761Y-47049500D01*
X9532823Y-47044476D01*
X9503384Y-47035831D01*
X9472334Y-47021315D01*
X9472225Y-47021505D01*
X9470033Y-47020239D01*
X9469435Y-47019960D01*
X9468710Y-47019475D01*
X9331797Y-46940430D01*
X9331783Y-46940422D01*
X9219979Y-46910464D01*
X9179057Y-46899500D01*
X9179056Y-46899500D01*
X9020943Y-46899500D01*
X8868218Y-46940422D01*
X8868211Y-46940424D01*
X8868210Y-46940425D01*
X8868200Y-46940430D01*
X8731298Y-47019470D01*
X8731294Y-47019472D01*
X8731290Y-47019475D01*
X8731282Y-47019481D01*
X8731278Y-47019484D01*
X8731276Y-47019485D01*
X8619485Y-47131276D01*
X8619484Y-47131278D01*
X8619481Y-47131281D01*
X8619481Y-47131282D01*
X8619475Y-47131290D01*
X8619472Y-47131294D01*
X8619470Y-47131298D01*
X8540430Y-47268200D01*
X8540425Y-47268210D01*
X8540424Y-47268211D01*
X8540422Y-47268218D01*
X8527881Y-47315022D01*
X8499500Y-47420943D01*
X500500Y-47420943D01*
X500500Y-45504225D01*
X27409800Y-45504225D01*
X27409800Y-45511625D01*
X27409800Y-45649174D01*
X27447313Y-45789177D01*
X27447317Y-45789188D01*
X27447318Y-45789189D01*
X27517935Y-45911502D01*
X27519423Y-45914268D01*
X27519653Y-45914577D01*
X27622285Y-46017209D01*
X27622974Y-46017705D01*
X27625478Y-46019053D01*
X27744369Y-46087695D01*
X27747387Y-46089569D01*
X27747814Y-46089683D01*
X27747815Y-46089684D01*
X27887825Y-46127200D01*
X27887828Y-46127200D01*
X27887932Y-46127228D01*
X27906498Y-46131150D01*
X27935393Y-46139635D01*
X27988137Y-46170930D01*
X30050573Y-48233366D01*
X30071723Y-48261618D01*
X30084331Y-48284707D01*
X30099500Y-48344136D01*
X30099500Y-53549635D01*
X30094475Y-53584579D01*
X30090070Y-53599577D01*
X30052300Y-53658344D01*
X30044432Y-53665162D01*
X30001546Y-53689382D01*
X29962395Y-53702103D01*
X29962391Y-53702104D01*
X29765972Y-53802187D01*
X29587658Y-53931739D01*
X29587629Y-53931761D01*
X29431761Y-54087629D01*
X29431739Y-54087658D01*
X29302187Y-54265972D01*
X29202104Y-54462392D01*
X29202102Y-54462396D01*
X29202094Y-54462419D01*
X29133985Y-54672043D01*
X29122830Y-54742474D01*
X29104060Y-54860986D01*
X29102606Y-54870169D01*
X29099500Y-54889776D01*
X29099500Y-55110222D01*
X29099529Y-55110404D01*
X29099537Y-55110512D01*
X29099546Y-55110511D01*
X29133985Y-55327955D01*
X29202094Y-55537579D01*
X29202102Y-55537602D01*
X29202104Y-55537606D01*
X29266838Y-55664651D01*
X29266839Y-55664652D01*
X29302096Y-55733848D01*
X29302183Y-55734020D01*
X29302185Y-55734023D01*
X29407823Y-55879422D01*
X29431752Y-55912358D01*
X29431756Y-55912363D01*
X29431761Y-55912369D01*
X29587627Y-56068235D01*
X29587636Y-56068243D01*
X29587660Y-56068261D01*
X29743189Y-56181259D01*
X29743192Y-56181260D01*
X29754585Y-56189537D01*
X29765976Y-56197814D01*
X29765978Y-56197815D01*
X29894375Y-56263237D01*
X29962393Y-56297895D01*
X29962396Y-56297896D01*
X29962433Y-56297908D01*
X29962468Y-56297920D01*
X30067221Y-56331955D01*
X30172049Y-56366015D01*
X30389778Y-56400500D01*
X30389779Y-56400500D01*
X30610221Y-56400500D01*
X30610222Y-56400500D01*
X30827951Y-56366015D01*
X31037606Y-56297895D01*
X31234022Y-56197815D01*
X31412365Y-56068242D01*
X31568242Y-55912365D01*
X31697815Y-55734022D01*
X31797895Y-55537606D01*
X31866015Y-55327951D01*
X31900500Y-55110222D01*
X31900500Y-54889778D01*
X31866015Y-54672049D01*
X31831955Y-54567221D01*
X31797904Y-54462419D01*
X31797896Y-54462396D01*
X31797895Y-54462393D01*
X31738873Y-54346558D01*
X31697815Y-54265978D01*
X31618650Y-54157016D01*
X31568247Y-54087641D01*
X31568243Y-54087636D01*
X31568242Y-54087635D01*
X31568235Y-54087627D01*
X31412369Y-53931761D01*
X31412364Y-53931757D01*
X31412363Y-53931756D01*
X31412358Y-53931752D01*
X31380274Y-53908442D01*
X31241916Y-53807919D01*
X31241583Y-53807635D01*
X31234015Y-53802179D01*
X31233651Y-53801996D01*
X31132593Y-53750504D01*
X31132593Y-53750503D01*
X31132591Y-53750503D01*
X31038521Y-53702571D01*
X31037601Y-53702102D01*
X31037600Y-53702101D01*
X31037595Y-53702099D01*
X31003138Y-53690904D01*
X30971469Y-53675335D01*
X30970714Y-53674819D01*
X30958564Y-53666511D01*
X30914335Y-53612426D01*
X30910277Y-53602823D01*
X30900500Y-53554561D01*
X30900500Y-48063675D01*
X30900500Y-48063673D01*
X30873207Y-47961812D01*
X30820480Y-47870487D01*
X28559726Y-45609733D01*
X28538574Y-45581477D01*
X28525967Y-45558388D01*
X28514124Y-45511987D01*
X28511861Y-45512285D01*
X28510800Y-45504228D01*
X28510800Y-45504227D01*
X28510800Y-45504225D01*
X28473284Y-45364215D01*
X28400809Y-45238685D01*
X28298315Y-45136191D01*
X28298177Y-45136053D01*
X28297868Y-45135823D01*
X28295102Y-45134335D01*
X28244543Y-45105145D01*
X28216108Y-45075324D01*
X28161307Y-45060639D01*
X28161307Y-45060640D01*
X28097040Y-45043420D01*
X28032775Y-45026200D01*
X28032774Y-45026200D01*
X27887825Y-45026200D01*
X27759294Y-45060639D01*
X27759293Y-45060640D01*
X27751638Y-45062691D01*
X27747810Y-45063717D01*
X27622291Y-45136185D01*
X27622284Y-45136190D01*
X27622268Y-45136205D01*
X27519805Y-45238668D01*
X27519790Y-45238684D01*
X27519785Y-45238692D01*
X27447317Y-45364209D01*
X27447304Y-45364241D01*
X27447209Y-45364614D01*
X27409800Y-45504225D01*
X500500Y-45504225D01*
X500500Y-38323998D01*
X33494500Y-38323998D01*
X33494500Y-47176002D01*
X33500338Y-47230312D01*
X33511543Y-47281818D01*
X33511546Y-47281827D01*
X33518779Y-47308192D01*
X33518783Y-47308203D01*
X33568105Y-47394818D01*
X33568110Y-47394825D01*
X33568112Y-47394828D01*
X33590741Y-47420943D01*
X33613863Y-47447628D01*
X33613866Y-47447631D01*
X33613867Y-47447632D01*
X33646641Y-47479257D01*
X33734976Y-47525465D01*
X33734977Y-47525465D01*
X33734977Y-47525466D01*
X33779218Y-47538456D01*
X33802015Y-47545150D01*
X33802019Y-47545150D01*
X33802021Y-47545151D01*
X33813652Y-47546823D01*
X33874000Y-47555500D01*
X38626000Y-47555500D01*
X38680313Y-47549661D01*
X38731824Y-47538455D01*
X38758198Y-47531219D01*
X38787074Y-47514775D01*
X38844818Y-47481894D01*
X38844819Y-47481892D01*
X38844828Y-47481888D01*
X38897632Y-47436133D01*
X38929257Y-47403359D01*
X38975465Y-47315024D01*
X38977470Y-47308198D01*
X38989211Y-47268210D01*
X38995150Y-47247985D01*
X39005500Y-47176000D01*
X39005500Y-38324000D01*
X38999661Y-38269687D01*
X38988455Y-38218176D01*
X38981219Y-38191802D01*
X38977332Y-38184976D01*
X38931894Y-38105181D01*
X38931890Y-38105176D01*
X38931888Y-38105172D01*
X38896097Y-38063867D01*
X38886136Y-38052371D01*
X38853359Y-38020743D01*
X38765022Y-37974534D01*
X38765022Y-37974533D01*
X38697990Y-37954851D01*
X38697978Y-37954848D01*
X38626001Y-37944500D01*
X38626000Y-37944500D01*
X33874000Y-37944500D01*
X33873997Y-37944500D01*
X33819687Y-37950338D01*
X33768181Y-37961543D01*
X33768172Y-37961546D01*
X33741807Y-37968779D01*
X33741796Y-37968783D01*
X33655181Y-38018105D01*
X33655173Y-38018111D01*
X33602371Y-38063863D01*
X33570743Y-38096640D01*
X33524534Y-38184977D01*
X33524533Y-38184977D01*
X33504851Y-38252009D01*
X33504848Y-38252021D01*
X33494500Y-38323998D01*
X500500Y-38323998D01*
X500500Y-29405408D01*
X10742500Y-29405408D01*
X10742500Y-29537190D01*
X10776608Y-29664488D01*
X10809554Y-29721550D01*
X10842500Y-29778614D01*
X10935686Y-29871800D01*
X11049814Y-29937692D01*
X11177108Y-29971800D01*
X11177110Y-29971800D01*
X11308890Y-29971800D01*
X11308892Y-29971800D01*
X11436186Y-29937692D01*
X11436192Y-29937688D01*
X11443699Y-29934580D01*
X11443748Y-29934699D01*
X11468755Y-29924684D01*
X11483955Y-29920996D01*
X11553742Y-29924319D01*
X11562119Y-29927218D01*
X11609247Y-29956718D01*
X16649773Y-34997244D01*
X16670923Y-35025496D01*
X16683531Y-35048585D01*
X16698700Y-35108014D01*
X16698700Y-36217493D01*
X16693676Y-36252432D01*
X16686263Y-36277675D01*
X16654968Y-36330417D01*
X16598700Y-36386684D01*
X16532810Y-36500806D01*
X16532809Y-36500808D01*
X16532808Y-36500812D01*
X16498700Y-36628108D01*
X16498700Y-36759891D01*
X16515754Y-36823539D01*
X16532808Y-36887188D01*
X16565754Y-36944250D01*
X16598700Y-37001314D01*
X16691886Y-37094500D01*
X16806014Y-37160392D01*
X16933308Y-37194500D01*
X16933310Y-37194500D01*
X17065090Y-37194500D01*
X17065092Y-37194500D01*
X17192386Y-37160392D01*
X17306514Y-37094500D01*
X17399700Y-37001314D01*
X17465592Y-36887186D01*
X17499700Y-36759892D01*
X17499700Y-36628108D01*
X17465592Y-36500814D01*
X17465587Y-36500806D01*
X17456763Y-36485521D01*
X17399700Y-36386686D01*
X17348625Y-36335611D01*
X17327472Y-36307353D01*
X17314866Y-36284265D01*
X17299700Y-36224842D01*
X17299700Y-34882137D01*
X17299438Y-34880147D01*
X17298377Y-34863961D01*
X17298377Y-34856437D01*
X17293542Y-34851052D01*
X17285638Y-34829656D01*
X17279223Y-34805715D01*
X17279223Y-34805714D01*
X17279222Y-34805713D01*
X17279222Y-34805712D01*
X17271053Y-34791562D01*
X17241199Y-34739855D01*
X17239660Y-34737189D01*
X11733311Y-29230840D01*
X11733310Y-29230839D01*
X11733307Y-29230837D01*
X11733308Y-29230837D01*
X11733303Y-29230834D01*
X11699411Y-29211267D01*
X11673719Y-29191550D01*
X11630050Y-29147870D01*
X11628887Y-29147444D01*
X11614953Y-29135439D01*
X11550314Y-29070800D01*
X11493250Y-29037854D01*
X11436187Y-29004908D01*
X11372539Y-28987854D01*
X11308892Y-28970800D01*
X11308891Y-28970800D01*
X11177108Y-28970800D01*
X11049808Y-29004909D01*
X11049806Y-29004910D01*
X10935696Y-29070793D01*
X10935682Y-29070802D01*
X10935677Y-29070806D01*
X10842506Y-29163977D01*
X10842502Y-29163982D01*
X10842493Y-29163996D01*
X10776610Y-29278106D01*
X10776609Y-29278108D01*
X10742500Y-29405408D01*
X500500Y-29405408D01*
X500500Y-16697642D01*
X2199500Y-16697642D01*
X2199500Y-16902356D01*
X2231521Y-17104530D01*
X2294780Y-17299221D01*
X2294786Y-17299234D01*
X2387708Y-17481601D01*
X2387709Y-17481602D01*
X2387715Y-17481613D01*
X2508028Y-17647213D01*
X2652786Y-17791971D01*
X2807748Y-17904555D01*
X2807749Y-17904557D01*
X2814626Y-17909552D01*
X2818390Y-17912287D01*
X2934607Y-17971503D01*
X2994327Y-18001932D01*
X2995930Y-18002870D01*
X2999629Y-18004662D01*
X3001637Y-18005660D01*
X3005403Y-18006722D01*
X3045488Y-18019746D01*
X3105135Y-18039126D01*
X3105136Y-18039127D01*
X3148612Y-18053253D01*
X3195465Y-18068477D01*
X3296557Y-18084488D01*
X3397648Y-18100500D01*
X3397649Y-18100500D01*
X3602351Y-18100500D01*
X3602352Y-18100500D01*
X3804534Y-18068477D01*
X3999219Y-18005220D01*
X4181610Y-17912287D01*
X4274590Y-17844732D01*
X4347213Y-17791971D01*
X4347213Y-17791969D01*
X4347272Y-17791927D01*
X4348031Y-17791153D01*
X4491153Y-17648031D01*
X4491928Y-17647271D01*
X4491981Y-17647199D01*
X4544730Y-17574593D01*
X4544732Y-17574591D01*
X4568172Y-17542327D01*
X4612287Y-17481610D01*
X4705220Y-17299219D01*
X4768477Y-17104534D01*
X4800500Y-16902352D01*
X4800500Y-16697648D01*
X4768477Y-16495466D01*
X4768476Y-16495462D01*
X4768476Y-16495461D01*
X4706722Y-16305403D01*
X4705659Y-16301637D01*
X4704662Y-16299629D01*
X4702870Y-16295930D01*
X4701932Y-16294327D01*
X4671503Y-16234607D01*
X4612287Y-16118390D01*
X4604556Y-16107749D01*
X4491971Y-15952786D01*
X4347213Y-15808028D01*
X4347212Y-15808027D01*
X4347211Y-15808026D01*
X4189507Y-15693450D01*
X4189168Y-15693161D01*
X4181603Y-15687707D01*
X4181188Y-15687498D01*
X4124654Y-15658691D01*
X4124653Y-15658691D01*
X3999223Y-15594781D01*
X3804534Y-15531522D01*
X3804532Y-15531521D01*
X3804530Y-15531521D01*
X3804529Y-15531520D01*
X3629995Y-15503878D01*
X3613409Y-15501251D01*
X3602354Y-15499500D01*
X3602352Y-15499500D01*
X3397648Y-15499500D01*
X3397647Y-15499500D01*
X3373327Y-15503351D01*
X3373326Y-15503350D01*
X3195468Y-15531521D01*
X3000777Y-15594780D01*
X3000764Y-15594786D01*
X2818397Y-15687708D01*
X2818385Y-15687715D01*
X2652787Y-15808027D01*
X2652784Y-15808029D01*
X2508029Y-15952784D01*
X2508027Y-15952787D01*
X2387715Y-16118385D01*
X2387708Y-16118397D01*
X2294786Y-16300764D01*
X2294780Y-16300777D01*
X2231521Y-16495468D01*
X2199500Y-16697642D01*
X500500Y-16697642D01*
X500500Y-3267643D01*
X8545500Y-3267643D01*
X8545500Y-3425755D01*
X8586422Y-3578480D01*
X8586424Y-3578487D01*
X8586425Y-3578488D01*
X8586428Y-3578493D01*
X8663629Y-3712213D01*
X8665012Y-3714784D01*
X8665398Y-3715334D01*
X8777336Y-3827272D01*
X8777852Y-3827652D01*
X8780475Y-3829063D01*
X8852421Y-3870600D01*
X8907469Y-3902382D01*
X8907473Y-3902384D01*
X8914216Y-3906277D01*
X9066943Y-3947200D01*
X9110915Y-3947200D01*
X9145847Y-3952221D01*
X9171091Y-3959634D01*
X9223837Y-3990930D01*
X9824487Y-4591580D01*
X9915812Y-4644307D01*
X10017673Y-4671600D01*
X10123127Y-4671600D01*
X15150970Y-4671600D01*
X15185906Y-4676623D01*
X15200904Y-4681027D01*
X15259655Y-4718772D01*
X15260842Y-4720141D01*
X15288318Y-4775002D01*
X15289963Y-4782560D01*
X15292800Y-4808931D01*
X15292800Y-19311329D01*
X15320091Y-19413186D01*
X15320093Y-19413189D01*
X15346456Y-19458850D01*
X15372820Y-19504513D01*
X15372822Y-19504515D01*
X17474873Y-21606566D01*
X17496023Y-21634818D01*
X17508631Y-21657907D01*
X17523800Y-21717336D01*
X17523800Y-21768656D01*
X17547426Y-21856830D01*
X17564722Y-21921380D01*
X17564724Y-21921387D01*
X17564725Y-21921388D01*
X17564730Y-21921398D01*
X17624750Y-22025356D01*
X17643775Y-22058309D01*
X17643781Y-22058317D01*
X17674875Y-22089411D01*
X17696025Y-22117664D01*
X17708632Y-22140752D01*
X17723800Y-22200179D01*
X17723800Y-33305829D01*
X17751091Y-33407686D01*
X17751093Y-33407689D01*
X17777456Y-33453350D01*
X17803820Y-33499013D01*
X17803822Y-33499015D01*
X18944373Y-34639566D01*
X18965523Y-34667818D01*
X18978131Y-34690907D01*
X18993300Y-34750336D01*
X18993300Y-34801657D01*
X19000803Y-34829656D01*
X19013538Y-34877184D01*
X19034223Y-34954384D01*
X19034224Y-34954387D01*
X19034225Y-34954388D01*
X19034228Y-34954393D01*
X19111429Y-35088113D01*
X19112812Y-35090684D01*
X19113198Y-35091234D01*
X19225136Y-35203172D01*
X19225652Y-35203552D01*
X19228275Y-35204963D01*
X19362009Y-35282173D01*
X19362016Y-35282177D01*
X19514743Y-35323100D01*
X19514745Y-35323100D01*
X19672855Y-35323100D01*
X19672857Y-35323100D01*
X19825584Y-35282177D01*
X19962516Y-35203120D01*
X20074320Y-35091316D01*
X20153377Y-34954384D01*
X20194300Y-34801657D01*
X20194300Y-34643543D01*
X20153377Y-34490816D01*
X20153373Y-34490809D01*
X20074324Y-34353890D01*
X20074318Y-34353882D01*
X20074314Y-34353878D01*
X20074313Y-34353876D01*
X19962522Y-34242085D01*
X19962520Y-34242084D01*
X19962517Y-34242081D01*
X19962509Y-34242075D01*
X19935947Y-34226740D01*
X19825607Y-34163035D01*
X19825583Y-34163022D01*
X19713779Y-34133064D01*
X19672857Y-34122100D01*
X19672856Y-34122100D01*
X19628885Y-34122100D01*
X19593949Y-34117077D01*
X19568707Y-34109665D01*
X19515962Y-34078369D01*
X18573726Y-33136133D01*
X18552574Y-33107877D01*
X18539967Y-33084788D01*
X18524800Y-33025363D01*
X18524800Y-22207527D01*
X18529822Y-22172594D01*
X18537234Y-22147349D01*
X18568529Y-22094606D01*
X18604820Y-22058316D01*
X18683877Y-21921384D01*
X18724800Y-21768657D01*
X18724800Y-21610543D01*
X18683877Y-21457816D01*
X18683873Y-21457809D01*
X18604824Y-21320890D01*
X18604818Y-21320882D01*
X18604814Y-21320878D01*
X18604813Y-21320876D01*
X18493022Y-21209085D01*
X18493020Y-21209084D01*
X18493017Y-21209081D01*
X18493009Y-21209075D01*
X18466447Y-21193740D01*
X18356107Y-21130035D01*
X18356083Y-21130022D01*
X18244279Y-21100064D01*
X18203357Y-21089100D01*
X18203356Y-21089100D01*
X18159385Y-21089100D01*
X18124449Y-21084077D01*
X18099207Y-21076665D01*
X18046462Y-21045369D01*
X16142726Y-19141633D01*
X16121574Y-19113377D01*
X16108967Y-19090288D01*
X16093800Y-19030863D01*
X16093800Y-16697642D01*
X35199500Y-16697642D01*
X35199500Y-16902356D01*
X35231521Y-17104530D01*
X35294780Y-17299221D01*
X35294786Y-17299234D01*
X35387708Y-17481601D01*
X35387709Y-17481602D01*
X35387715Y-17481613D01*
X35508028Y-17647213D01*
X35652786Y-17791971D01*
X35807748Y-17904555D01*
X35807749Y-17904557D01*
X35814626Y-17909552D01*
X35818390Y-17912287D01*
X35934607Y-17971503D01*
X35994327Y-18001932D01*
X35995930Y-18002870D01*
X35999629Y-18004662D01*
X36001637Y-18005660D01*
X36005403Y-18006722D01*
X36045488Y-18019746D01*
X36105135Y-18039126D01*
X36105136Y-18039127D01*
X36148612Y-18053253D01*
X36195465Y-18068477D01*
X36296557Y-18084488D01*
X36397648Y-18100500D01*
X36397649Y-18100500D01*
X36602351Y-18100500D01*
X36602352Y-18100500D01*
X36804534Y-18068477D01*
X36999219Y-18005220D01*
X37181610Y-17912287D01*
X37274590Y-17844732D01*
X37347213Y-17791971D01*
X37347213Y-17791969D01*
X37347272Y-17791927D01*
X37348031Y-17791153D01*
X37491153Y-17648031D01*
X37491928Y-17647271D01*
X37491981Y-17647199D01*
X37544730Y-17574593D01*
X37544732Y-17574591D01*
X37568172Y-17542327D01*
X37612287Y-17481610D01*
X37705220Y-17299219D01*
X37768477Y-17104534D01*
X37800500Y-16902352D01*
X37800500Y-16697648D01*
X37768477Y-16495466D01*
X37768476Y-16495462D01*
X37768476Y-16495461D01*
X37706722Y-16305403D01*
X37705659Y-16301637D01*
X37704662Y-16299629D01*
X37702870Y-16295930D01*
X37701932Y-16294327D01*
X37671503Y-16234607D01*
X37612287Y-16118390D01*
X37604556Y-16107749D01*
X37491971Y-15952786D01*
X37347213Y-15808028D01*
X37347212Y-15808027D01*
X37347211Y-15808026D01*
X37189507Y-15693450D01*
X37189168Y-15693161D01*
X37181603Y-15687707D01*
X37181188Y-15687498D01*
X37124654Y-15658691D01*
X37124653Y-15658691D01*
X36999223Y-15594781D01*
X36804534Y-15531522D01*
X36804532Y-15531521D01*
X36804530Y-15531521D01*
X36804529Y-15531520D01*
X36629995Y-15503878D01*
X36613409Y-15501251D01*
X36602354Y-15499500D01*
X36602352Y-15499500D01*
X36397648Y-15499500D01*
X36397647Y-15499500D01*
X36373327Y-15503351D01*
X36373326Y-15503350D01*
X36195468Y-15531521D01*
X36000777Y-15594780D01*
X36000764Y-15594786D01*
X35818397Y-15687708D01*
X35818385Y-15687715D01*
X35652787Y-15808027D01*
X35652784Y-15808029D01*
X35508029Y-15952784D01*
X35508027Y-15952787D01*
X35387715Y-16118385D01*
X35387708Y-16118397D01*
X35294786Y-16300764D01*
X35294780Y-16300777D01*
X35231521Y-16495468D01*
X35199500Y-16697642D01*
X16093800Y-16697642D01*
X16093800Y-4789027D01*
X16098822Y-4754094D01*
X16101760Y-4744089D01*
X16106234Y-4728849D01*
X16137536Y-4676099D01*
X16142037Y-4671599D01*
X16173820Y-4639816D01*
X16252877Y-4502884D01*
X16293800Y-4350157D01*
X16293800Y-4192043D01*
X16252877Y-4039316D01*
X16220663Y-3983519D01*
X16173824Y-3902390D01*
X16173818Y-3902382D01*
X16173814Y-3902378D01*
X16173813Y-3902376D01*
X16062022Y-3790585D01*
X16062020Y-3790584D01*
X16062017Y-3790581D01*
X16062009Y-3790575D01*
X16035447Y-3775240D01*
X15925107Y-3711535D01*
X15925083Y-3711522D01*
X15813279Y-3681564D01*
X15772357Y-3670600D01*
X15772356Y-3670600D01*
X15614243Y-3670600D01*
X15461518Y-3711522D01*
X15461511Y-3711524D01*
X15461510Y-3711525D01*
X15461500Y-3711530D01*
X15324598Y-3790570D01*
X15324582Y-3790580D01*
X15324576Y-3790586D01*
X15293489Y-3821674D01*
X15265237Y-3842824D01*
X15242150Y-3855431D01*
X15182721Y-3870600D01*
X10305485Y-3870600D01*
X10270549Y-3865577D01*
X10245307Y-3858165D01*
X10192562Y-3826869D01*
X9795426Y-3429733D01*
X9774274Y-3401477D01*
X9761667Y-3378388D01*
X9746500Y-3318963D01*
X9746500Y-3267645D01*
X9746500Y-3267643D01*
X9705577Y-3114916D01*
X9705573Y-3114909D01*
X9626524Y-2977990D01*
X9626518Y-2977982D01*
X9626514Y-2977978D01*
X9626513Y-2977976D01*
X9514722Y-2866185D01*
X9514720Y-2866184D01*
X9514717Y-2866181D01*
X9514709Y-2866175D01*
X9488147Y-2850840D01*
X9377807Y-2787135D01*
X9377783Y-2787122D01*
X9265979Y-2757164D01*
X9225057Y-2746200D01*
X9225056Y-2746200D01*
X9066943Y-2746200D01*
X8914218Y-2787122D01*
X8914211Y-2787124D01*
X8914210Y-2787125D01*
X8914200Y-2787130D01*
X8777298Y-2866170D01*
X8777294Y-2866172D01*
X8777290Y-2866175D01*
X8777282Y-2866181D01*
X8777278Y-2866184D01*
X8777276Y-2866185D01*
X8665485Y-2977976D01*
X8665484Y-2977978D01*
X8665481Y-2977981D01*
X8665481Y-2977982D01*
X8665475Y-2977990D01*
X8665472Y-2977994D01*
X8665470Y-2977998D01*
X8586430Y-3114900D01*
X8586425Y-3114910D01*
X8586424Y-3114911D01*
X8586422Y-3114918D01*
X8545500Y-3267643D01*
X500500Y-3267643D01*
X500500Y-1010444D01*
X500695Y-1003492D01*
X501086Y-996529D01*
X501671Y-989599D01*
X509893Y-916620D01*
X514862Y-894849D01*
X515435Y-891365D01*
X515437Y-891362D01*
X515436Y-891358D01*
X516614Y-884213D01*
X521925Y-863407D01*
X543055Y-803022D01*
X547292Y-796138D01*
X548372Y-790186D01*
X554376Y-777716D01*
X561086Y-765574D01*
X598353Y-706265D01*
X606374Y-694961D01*
X615016Y-684124D01*
X619202Y-680453D01*
X620612Y-677588D01*
X624252Y-673788D01*
X673774Y-624266D01*
X684114Y-615024D01*
X694961Y-606374D01*
X706265Y-598353D01*
X765574Y-561086D01*
X777716Y-554376D01*
X790198Y-548366D01*
X803014Y-543058D01*
X869098Y-519933D01*
X882444Y-516088D01*
X895955Y-513004D01*
X909641Y-510680D01*
X962386Y-504737D01*
X978755Y-502893D01*
X978755Y-502894D01*
X978759Y-502892D01*
X989662Y-501664D01*
X996549Y-501085D01*
X1003503Y-500695D01*
X1010446Y-500500D01*
X38989554Y-500500D01*
X38996492Y-500693D01*
G37*
%TD.AperFunction*%
%TD*%
%TA.AperFunction,Conductor*%
%TO.N,/LOOP_C*%
G36*
X38693039Y-38219685D02*
G01*
X38738794Y-38272489D01*
X38750000Y-38324000D01*
X38750000Y-47176000D01*
X38730315Y-47243039D01*
X38677511Y-47288794D01*
X38626000Y-47300000D01*
X33874000Y-47300000D01*
X33806961Y-47280315D01*
X33761206Y-47227511D01*
X33750000Y-47176000D01*
X33750000Y-38324000D01*
X33769685Y-38256961D01*
X33822489Y-38211206D01*
X33874000Y-38200000D01*
X38626000Y-38200000D01*
X38693039Y-38219685D01*
G37*
%TD.AperFunction*%
%TD*%
M02*
