#VRML V2.0 utf8
# 3D model generated by easyeda2kicad.py (https://github.com/uPesy/easyeda2kicad.py)

Shape{
    appearance Appearance {
        material  Material 	{
            diffuseColor 0.0 0.5019607843137255 0.25098039215686274
            specularColor 0.0 0.25098039215686274 0.12549019607843137
            ambientIntensity 0.3233
            transparency 0.0
            shininess 0.5
        }
    }
    geometry IndexedFaceSet {
        ccw TRUE
        solid FALSE
        coord DEF co Coordinate {
            point [
                -2.3029 -1.9675 3.3966, -2.4063 -1.8945 3.4279, -2.6043 -2.25 3.2756, -2.4857 -1.7994 3.4686, -2.5356 -1.6887 3.5161, -2.5526 -1.5699 3.567, -2.5356 -1.4511 3.6179, -2.5453 -0.932 3.8404, -2.4857 -1.3404 3.6654, -2.4063 -1.2453 3.7061, -2.3029 -1.1724 3.7374, -1.5537 -1.5699 3.567, -1.5707 -1.6887 3.5161, -1.5413 -2.25 3.2756, -1.6206 -1.7994 3.4686, -1.7 -1.8945 3.4279, -1.8034 -1.9675 3.3966, -2.1824 -1.1265 3.757, -2.0531 -1.1109 3.7637, -1.6004 -0.932 3.8404, -1.9239 -1.1265 3.757, -1.8034 -1.1724 3.7374, -1.7 -1.2453 3.7061, -1.6206 -1.3404 3.6654, -1.9239 -2.0133 3.377, -2.0531 -2.029 3.3703, -2.1824 -2.0133 3.377, -1.5413 -0.0968 4.1983, -1.5707 -1.4511 3.6179, -2.6043 -0.0968 4.1983, -2.5453 -0.2318 4.1404, -1.6004 -0.2318 4.1404, 0.3978 -1.4511 3.6179, 0.4148 -1.5699 3.567, 0.3681 -0.932 3.8404, -1.2264 -2.25 3.2756, 0.4272 -2.25 3.2756, -0.0846 -2.029 3.3703, -0.2139 -2.0133 3.377, -0.3344 -1.9675 3.3966, -0.4378 -1.8945 3.4279, 0.3978 -1.6887 3.5161, 0.3479 -1.7994 3.4686, 0.2685 -1.8945 3.4279, 0.1651 -1.1724 3.7374, 0.2685 -1.2453 3.7061, 0.3479 -1.3404 3.6654, 0.4272 -0.0968 4.1983, 0.1651 -1.9675 3.3966, 0.0446 -2.0133 3.377, -0.5172 -1.7994 3.4686, -0.5671 -1.6887 3.5161, -0.5841 -1.5699 3.567, -0.5768 -0.932 3.8404, -0.2139 -1.1265 3.757, -0.0846 -1.1109 3.7637, 0.0446 -1.1265 3.757, -0.5671 -1.4511 3.6179, -0.5172 -1.3404 3.6654, -0.4378 -1.2453 3.7061, -0.3344 -1.1724 3.7374, -1.2264 -0.0968 4.1983, -0.5768 -0.2318 4.1404, 0.3681 -0.2318 4.1404
            ]
        }
        coordIndex [
            0,1,2,-1,2,1,3,-1,2,3,4,-1,5,6,7,-1,6,8,7,-1,7,8,9,-1,7,9,10,-1,11,12,13,-1,12,14,13,-1,13,14,15,-1,13,15,16,-1,10,17,7,-1,7,17,18,-1,7,18,19,-1,19,18,20,-1,20,21,19,-1,19,21,22,-1,19,22,23,-1,16,24,13,-1,13,24,25,-1,13,25,2,-1,2,25,26,-1,2,26,0,-1,13,27,11,-1,11,27,19,-1,11,19,28,-1,28,19,23,-1,4,5,2,-1,2,5,7,-1,2,7,29,-1,29,7,30,-1,29,30,27,-1,27,30,31,-1,27,31,19,-1,32,33,34,-1,35,36,37,-1,37,38,35,-1,35,38,39,-1,35,39,40,-1,41,42,36,-1,36,42,43,-1,44,45,34,-1,34,45,46,-1,34,46,32,-1,41,36,33,-1,33,36,47,-1,33,47,34,-1,43,48,36,-1,36,48,49,-1,36,49,37,-1,40,50,35,-1,35,50,51,-1,35,51,52,-1,53,54,55,-1,53,55,34,-1,34,55,56,-1,34,56,44,-1,57,58,53,-1,58,59,53,-1,53,59,60,-1,53,60,54,-1,52,57,35,-1,35,57,53,-1,35,53,61,-1,61,53,62,-1,61,62,47,-1,47,62,63,-1,47,63,34,-1,
        ]
    }
}
Shape{
    appearance Appearance {
        material  Material 	{
            diffuseColor 0.7529411764705882 0.7529411764705882 0.7529411764705882
            specularColor 0.3764705882352941 0.3764705882352941 0.3764705882352941
            ambientIntensity 0.7529
            transparency 0.0
            shininess 0.5
        }
    }
    geometry IndexedFaceSet {
        ccw TRUE
        solid FALSE
        coord DEF co Coordinate {
            point [
                -2.1713 -0.1142 -1.0779, -2.1713 0.1024 -1.0779, -2.0357 -0.1142 -1.378, -2.0357 0.1024 -1.378, -1.9131 0.1024 -1.378, -1.9131 -0.1142 -1.378, -1.7776 -0.1142 -1.0779, -1.7776 0.1024 -1.0779, -2.1713 -0.1142 0.0, -1.7776 -0.1142 0.0, -1.7776 0.1024 0.0, -2.1713 0.1024 0.0
            ]
        }
        coordIndex [
            0,1,2,-1,2,1,3,-1,4,5,3,-1,3,5,2,-1,5,4,6,-1,6,4,7,-1,2,5,0,-1,0,5,6,-1,0,6,8,-1,8,6,9,-1,7,10,6,-1,6,10,9,-1,11,10,1,-1,1,10,7,-1,1,7,3,-1,3,7,4,-1,0,8,1,-1,1,8,11,-1,
        ]
    }
}
Shape{
    appearance Appearance {
        material  Material 	{
            diffuseColor 0.0 0.5019607843137255 0.25098039215686274
            specularColor 0.0 0.25098039215686274 0.12549019607843137
            ambientIntensity 0.3233
            transparency 0.0
            shininess 0.5
        }
    }
    geometry IndexedFaceSet {
        ccw TRUE
        solid FALSE
        coord DEF co Coordinate {
            point [
                1.6479 -0.3769 0.0, 1.6479 -0.7302 0.0, 1.4965 -0.7302 0.0, 1.7245 -2.25 0.0, 1.4738 -2.25 0.0, 1.4738 -0.7756 0.0, 2.5925 -2.25 0.0, 1.7245 -0.7756 0.0, -2.6833 -2.2106 0.0, -2.8799 -2.2106 0.0, -2.8799 -0.7756 0.0, 0.1909 -0.1142 0.0, 0.2557 -0.2405 0.0, -0.1279 -0.1142 0.0, -0.1279 -0.2405 0.0, -0.2028 -0.1142 0.0, -0.9902 -0.2405 0.0, -0.2028 0.1024 0.0, -0.9902 1.6083 0.0, -0.1279 0.1024 0.0, -0.1279 1.6083 0.0, 0.1909 0.1024 0.0, 0.2557 1.6083 0.0, 1.2392 -0.3668 0.0, 1.0271 -0.2405 0.0, 1.2707 -0.3687 0.0, 1.4738 -0.2405 0.0, 1.284 -0.3718 0.0, 1.3002 -0.7736 0.0, 1.3473 -0.7555 0.0, 1.3853 -0.7282 0.0, 1.4011 -0.7118 0.0, 1.4297 -0.6687 0.0, 1.4285 -0.4759 0.0, 1.4014 -0.4372 0.0, 1.4738 -0.3718 0.0, 1.3604 -0.4012 0.0, 1.3187 -0.3801 0.0, 1.4455 -0.6234 0.0, 1.451 -0.5714 0.0, 1.4445 -0.5177 0.0, 1.2828 -0.7756 0.0, 1.2387 -0.7807 0.0, 1.2191 -0.78 0.0, 1.0271 -2.25 0.0, 1.189 -0.7756 0.0, 1.0674 -0.6981 0.0, 1.1022 -0.7345 0.0, 1.0271 -0.7756 0.0, 1.143 -0.7602 0.0, 1.1877 -0.7754 0.0, 1.1953 -0.3718 0.0, 1.1819 -0.3734 0.0, 1.0271 -0.3718 0.0, 1.146 -0.3857 0.0, 1.1031 -0.4117 0.0, 1.079 -0.4346 0.0, 1.0674 -0.4491 0.0, 1.4148 -0.5556 0.0, 1.4157 -0.5741 0.0, 1.2414 -0.4072 0.0, 1.4064 -0.5174 0.0, 1.3769 -0.681 0.0, 1.3484 -0.707 0.0, 1.0984 -0.6747 0.0, 1.1299 -0.4422 0.0, 1.1201 -0.6967 0.0, 1.1669 -0.4213 0.0, 1.155 -0.7205 0.0, 1.1929 -0.7349 0.0, 1.288 -0.4129 0.0, 1.3282 -0.4285 0.0, 1.4105 -0.6175 0.0, 1.3981 -0.6502 0.0, 1.1842 -0.4152 0.0, 1.2277 -0.4076 0.0, 1.2703 -0.7382 0.0, 1.3103 -0.7278 0.0, 1.239 -0.7403 0.0, 1.3644 -0.4539 0.0, 1.3888 -0.4825 0.0, -2.5256 -0.7756 0.0, -2.5256 -2.25 0.0, -2.6833 -2.25 0.0, 0.1286 -0.3769 0.0, -0.0531 -0.7706 0.0, -0.1279 -0.7756 0.0, -0.0147 -0.7706 0.0, 0.2557 -0.7756 0.0, 0.222 -0.6444 0.0, 0.2557 -0.7154 0.0, 0.0435 -0.6444 0.0, 0.2818 -0.7706 0.0, 0.3457 -0.7756 0.0, 0.3204 -0.7706 0.0, 0.3457 -0.3718 0.0, 0.2557 -0.6341 0.0, 0.2557 -0.3718 0.0, -0.9902 -2.25 0.0, -0.9902 -0.7756 0.0, -0.1279 -2.25 0.0, 0.2557 -2.25 0.0, 0.3457 -2.25 0.0, 0.7293 -2.25 0.0, 0.7293 -0.7756 0.0, 2.5925 -0.7756 0.0, 1.7245 -0.3718 0.0, 2.5925 -0.3718 0.0, 1.6832 -0.7706 0.0, 1.6832 -0.3769 0.0, 1.4965 -0.7706 0.0, 0.7293 -0.3718 0.0, 0.7646 -0.4173 0.0, 0.7646 -0.3769 0.0, 0.9867 -0.3769 0.0, 0.9867 -0.7706 0.0, 0.7646 -0.5788 0.0, 0.9513 -0.5788 0.0, 0.9513 -0.7302 0.0, 0.7646 -0.7302 0.0, 0.7646 -0.5384 0.0, 0.9513 -0.5384 0.0, 0.9513 -0.4173 0.0, 0.7646 -0.7706 0.0, 1.0984 -0.4728 0.0, 0.4895 -0.3911 0.0, 0.4497 -0.4112 0.0, 0.6144 -0.3769 0.0, 0.5514 -0.3793 0.0, 0.3918 -0.6752 0.0, 0.4187 -0.7157 0.0, 0.4481 -0.7417 0.0, 0.4778 -0.757 0.0, 0.4209 -0.4362 0.0, 0.3958 -0.4717 0.0, 0.3794 -0.5128 0.0, 0.5258 -0.768 0.0, 0.5719 -0.7706 0.0, 0.6939 -0.7706 0.0, 0.6939 -0.3769 0.0, 0.3714 -0.5605 0.0, 0.3709 -0.5787 0.0, 0.3764 -0.6313 0.0, -0.9902 -0.3718 0.0, -0.1279 -0.3718 0.0, 0.1337 -0.3769 0.0, 1.7245 -0.2405 0.0, 2.5925 -0.2405 0.0, 0.3457 -0.2405 0.0, 0.7293 -0.2405 0.0, 1.7657 0.1024 0.0, 1.7657 -0.1142 0.0, 2.1594 -0.1142 0.0, 2.1594 0.1024 0.0, 2.5925 1.6083 0.0, 1.7245 1.6083 0.0, 0.3457 1.6083 0.0, 0.7293 1.6083 0.0, 1.0271 1.6083 0.0, 1.4738 1.6083 0.0, -2.5256 -0.2405 0.0, -2.1713 -0.1142 0.0, -1.7776 -0.1142 0.0, -2.1713 0.1024 0.0, -2.5256 1.6083 0.0, -1.7776 0.1024 0.0, -2.5256 -0.3718 0.0, -2.8799 -0.3718 0.0, -2.8799 -0.2405 0.0, -2.8799 1.6083 0.0, 2.3164 -1.3404 3.6654, 2.3833 -1.5699 3.567, 2.3366 -0.932 3.8404, 1.3844 -1.5699 3.567, 1.4513 -1.3404 3.6654, 1.3917 -0.932 3.8404, 2.3164 -1.7994 3.4686, 2.1336 -1.9675 3.3966, 2.3957 -2.25 3.2756, 1.8839 -2.029 3.3703, 0.7421 -2.25 3.2756, 1.6341 -1.9675 3.3966, 1.4513 -1.7994 3.4686, 1.6341 -1.1724 3.7374, 1.8839 -1.1109 3.7637, 2.1336 -1.1724 3.7374, 2.3957 -0.0968 4.1983, 0.7421 -0.0968 4.1983, 1.3917 -0.2318 4.1404, 2.3366 -0.2318 4.1404, 2.6713 1.2881 0.5989, 2.6713 1.2685 0.5428, 2.6713 1.6083 0.0787, 2.6713 -1.5121 2.8021, 2.6713 -1.4532 2.8087, 2.6713 0.3111 3.304, 2.6713 1.0297 2.8087, 2.6713 1.6083 3.304, 2.6713 1.0887 2.8021, 2.6713 1.1447 2.7825, 2.6713 1.195 2.7509, 2.6713 1.2369 2.709, 2.6713 1.2685 2.6587, 2.6713 1.2881 2.6027, 2.6713 1.2948 2.5437, 2.6713 1.2948 0.6578, 2.6713 1.2369 0.4926, 2.6713 1.195 0.4506, 2.6713 1.1447 0.419, 2.6713 1.0887 0.3994, 2.6713 1.0297 0.3928, 2.6713 -2.1713 0.0787, 2.6713 -1.7116 2.6027, 2.6713 -1.692 2.6587, 2.6713 -2.1713 3.7581, 2.6713 -1.6604 2.709, 2.6713 -1.6184 2.7509, 2.6713 -1.4532 0.3928, 2.6713 -1.5121 0.3994, 2.6713 -1.5682 0.419, 2.6713 -0.1738 4.7703, 2.6713 -1.5682 2.7825, 2.6713 -1.6184 0.4506, 2.6713 -1.6604 0.4926, 2.6713 -1.692 0.5428, 2.6713 -1.7116 0.5989, 2.6713 -1.7182 0.6578, 2.6713 -1.7182 2.5437, -2.8012 1.687 3.304, 2.5925 1.687 3.304, -2.8012 1.687 0.0787, 2.5925 1.687 0.0787, -2.8799 -0.2094 4.8405, -2.8799 -0.1351 4.8389, -2.8799 -0.1196 4.8274, -2.8799 -1.5121 2.8021, -2.8799 -0.0991 4.795, -2.8799 -1.4532 2.8087, -2.8799 0.368 3.3827, -2.8799 1.0887 0.3994, -2.8799 1.1447 0.419, -2.8799 -0.1913 4.8471, -2.8799 -0.1721 4.849, -2.8799 -0.153 4.8462, -2.8799 -0.1073 4.8125, -2.8799 -2.25 3.8064, -2.8799 -2.2106 2.4192, -2.8799 -2.25 2.4192, -2.8799 -1.692 2.6587, -2.8799 -1.7116 2.6027, -2.8799 -1.7182 2.5437, -2.8799 -1.5682 2.7825, -2.8799 -1.6184 2.7509, -2.8799 -1.6604 2.709, -2.8799 -1.7182 0.6578, -2.8799 -1.7116 0.5989, -2.8799 -1.692 0.5428, -2.8799 -1.6604 0.4926, -2.8799 -1.6184 0.4506, -2.8799 -1.5682 0.419, -2.8799 1.2881 2.6027, -2.8799 1.2685 2.6587, -2.8799 1.6083 3.3827, -2.8799 1.2369 2.709, -2.8799 1.195 2.7509, -2.8799 1.1447 2.7825, -2.8799 1.0887 2.8021, -2.8799 1.0297 2.8087, -2.8799 -1.5121 0.3994, -2.8799 -1.4532 0.3928, -2.8799 1.195 0.4506, -2.8799 1.2369 0.4926, -2.8799 1.2685 0.5428, -2.8799 1.0297 0.3928, -2.8799 1.2881 0.5989, -2.8799 1.2948 0.6578, -2.8799 1.2948 2.5437, 2.5925 -2.25 3.8064, 2.3957 -2.25 3.8064, -1.2264 -2.25 3.2756, -1.2264 -2.25 3.8064, -1.5413 -2.25 3.8064, 0.7421 -2.25 3.8064, 0.4272 -2.25 3.8064, 0.4272 -2.25 3.2756, -2.6043 -2.25 3.8064, -2.6043 -2.25 3.2756, -1.5413 -2.25 3.2756, -2.6833 -2.25 2.4192, -1.5413 -0.319 4.785, -2.6043 -0.319 4.785, -1.2264 -0.319 4.785, 0.4272 -0.319 4.785, 0.7421 -0.319 4.785, 2.3957 -0.319 4.785, 2.5925 -0.2094 4.8405, 0.1909 0.7489 3.3827, 0.1909 0.368 3.3827, 1.7657 0.368 3.3827, 2.1594 0.368 3.3827, 2.5925 0.368 3.3827, 2.1594 0.7489 3.3827, 2.5925 1.6083 3.3827, 1.7657 0.7489 3.3827, -2.1713 0.368 3.3827, -2.1713 0.7489 3.3827, -1.7776 0.7489 3.3827, -1.7776 0.368 3.3827, -0.2028 0.368 3.3827, -0.2028 0.7489 3.3827, 2.5925 -0.0991 4.795
            ]
        }
        coordIndex [
            0,1,2,-1,3,4,5,-1,6,3,7,-1,8,9,10,-1,11,12,13,-1,13,12,14,-1,13,14,15,-1,15,14,16,-1,15,16,17,-1,17,16,18,-1,17,18,19,-1,19,18,20,-1,19,20,21,-1,21,20,22,-1,23,24,25,-1,25,24,26,-1,25,26,27,-1,28,29,5,-1,29,30,5,-1,5,30,31,-1,5,31,32,-1,33,34,35,-1,35,34,36,-1,35,36,37,-1,32,38,5,-1,5,38,39,-1,5,39,35,-1,35,39,40,-1,35,40,33,-1,28,5,41,-1,41,5,4,-1,41,4,42,-1,42,4,43,-1,43,4,44,-1,43,44,45,-1,46,47,48,-1,48,47,49,-1,48,49,50,-1,51,52,53,-1,53,52,54,-1,54,55,53,-1,53,55,56,-1,53,56,57,-1,58,59,60,-1,58,60,61,-1,60,62,63,-1,64,65,66,-1,66,65,67,-1,66,67,68,-1,68,67,69,-1,60,70,71,-1,59,72,60,-1,60,72,73,-1,60,73,62,-1,74,75,76,-1,76,75,60,-1,76,60,77,-1,77,60,63,-1,74,76,67,-1,67,76,78,-1,67,78,69,-1,71,79,60,-1,60,79,80,-1,60,80,61,-1,81,82,8,-1,8,82,83,-1,84,85,86,-1,86,85,87,-1,86,87,88,-1,89,90,91,-1,91,90,87,-1,87,90,88,-1,88,90,92,-1,88,92,93,-1,93,92,94,-1,93,94,95,-1,95,94,96,-1,95,96,97,-1,98,99,100,-1,100,99,86,-1,100,86,101,-1,101,86,88,-1,101,88,102,-1,102,88,93,-1,102,93,103,-1,103,93,104,-1,103,104,44,-1,44,104,48,-1,44,48,45,-1,45,48,50,-1,6,7,105,-1,105,7,106,-1,105,106,107,-1,3,5,7,-1,7,5,108,-1,7,108,106,-1,108,109,106,-1,106,109,0,-1,106,0,35,-1,35,0,2,-1,35,2,5,-1,5,2,110,-1,5,110,108,-1,104,111,112,-1,112,111,113,-1,113,111,114,-1,114,111,53,-1,114,53,115,-1,116,117,118,-1,118,119,116,-1,116,119,104,-1,116,104,120,-1,120,104,112,-1,120,112,121,-1,121,112,122,-1,119,123,104,-1,104,123,115,-1,104,115,48,-1,48,115,53,-1,48,53,46,-1,46,53,57,-1,46,57,64,-1,64,57,124,-1,64,124,65,-1,95,125,126,-1,111,127,95,-1,95,127,128,-1,95,128,125,-1,129,130,93,-1,93,130,131,-1,93,131,132,-1,126,133,95,-1,95,133,134,-1,95,134,135,-1,132,136,93,-1,93,136,137,-1,93,137,104,-1,104,137,138,-1,104,138,111,-1,111,138,139,-1,111,139,127,-1,135,140,95,-1,95,140,141,-1,95,141,93,-1,93,141,142,-1,93,142,129,-1,99,143,86,-1,86,143,144,-1,86,144,84,-1,84,144,97,-1,84,97,145,-1,145,97,96,-1,37,27,35,-1,35,27,26,-1,35,26,106,-1,106,26,146,-1,106,146,107,-1,107,146,147,-1,143,16,144,-1,144,16,14,-1,144,14,97,-1,97,14,12,-1,97,12,95,-1,95,12,148,-1,95,148,111,-1,111,148,149,-1,111,149,53,-1,53,149,24,-1,53,24,51,-1,51,24,23,-1,150,151,146,-1,146,151,152,-1,146,152,147,-1,147,152,153,-1,147,153,154,-1,154,153,155,-1,11,21,12,-1,12,21,22,-1,12,22,148,-1,148,22,156,-1,148,156,149,-1,149,156,157,-1,149,157,24,-1,24,157,158,-1,24,158,26,-1,26,158,159,-1,26,159,146,-1,146,159,155,-1,146,155,150,-1,150,155,153,-1,160,161,162,-1,161,160,163,-1,163,160,164,-1,163,164,165,-1,165,164,18,-1,165,18,162,-1,162,18,16,-1,162,16,160,-1,160,16,143,-1,160,143,166,-1,166,143,99,-1,166,99,81,-1,81,99,98,-1,81,98,82,-1,8,10,81,-1,81,10,167,-1,81,167,166,-1,166,167,168,-1,166,168,160,-1,160,168,169,-1,160,169,164,-1,170,171,172,-1,173,174,175,-1,176,177,178,-1,178,177,179,-1,178,179,180,-1,180,179,181,-1,180,181,182,-1,174,183,175,-1,175,183,184,-1,175,184,172,-1,172,184,185,-1,172,185,170,-1,176,178,171,-1,171,178,186,-1,171,186,172,-1,182,173,180,-1,180,173,175,-1,180,175,187,-1,187,175,188,-1,187,188,186,-1,186,188,189,-1,186,189,172,-1,190,191,192,-1,193,194,195,-1,195,194,196,-1,195,196,197,-1,197,196,198,-1,197,198,199,-1,199,200,197,-1,197,200,201,-1,197,201,202,-1,202,203,197,-1,197,203,204,-1,197,204,192,-1,192,204,205,-1,192,205,190,-1,191,206,192,-1,192,206,207,-1,192,207,208,-1,208,209,192,-1,192,209,210,-1,192,210,211,-1,212,213,214,-1,214,213,215,-1,214,215,216,-1,210,217,211,-1,211,217,218,-1,211,218,219,-1,195,220,193,-1,193,220,214,-1,193,214,221,-1,221,214,216,-1,219,222,211,-1,211,222,223,-1,211,223,224,-1,224,225,211,-1,211,225,226,-1,211,226,214,-1,214,226,227,-1,214,227,212,-1,228,229,230,-1,230,229,231,-1,232,233,234,-1,235,236,237,-1,237,236,238,-1,239,240,169,-1,232,241,233,-1,233,241,242,-1,233,242,243,-1,234,244,232,-1,232,244,236,-1,232,236,245,-1,245,236,246,-1,245,246,247,-1,248,249,246,-1,246,249,250,-1,246,250,9,-1,235,251,236,-1,236,251,252,-1,236,252,246,-1,246,252,253,-1,246,253,248,-1,250,254,9,-1,9,254,255,-1,9,255,256,-1,256,257,9,-1,9,257,258,-1,9,258,259,-1,260,261,262,-1,262,261,263,-1,262,263,264,-1,264,265,262,-1,262,265,266,-1,262,266,238,-1,238,266,267,-1,238,267,237,-1,259,268,9,-1,9,268,269,-1,9,269,10,-1,240,270,169,-1,169,270,271,-1,169,271,272,-1,239,169,273,-1,273,169,168,-1,273,168,269,-1,269,168,167,-1,269,167,10,-1,272,274,169,-1,169,274,275,-1,169,275,262,-1,262,275,276,-1,262,276,260,-1,83,6,178,-1,178,6,277,-1,178,277,278,-1,279,280,281,-1,282,283,180,-1,180,283,284,-1,285,245,286,-1,286,245,247,-1,286,247,287,-1,287,247,288,-1,281,287,279,-1,279,287,288,-1,279,288,284,-1,284,288,83,-1,284,83,180,-1,180,83,178,-1,289,281,280,-1,232,245,285,-1,285,290,232,-1,232,290,289,-1,232,289,291,-1,291,289,280,-1,283,282,292,-1,292,282,293,-1,278,277,294,-1,294,277,295,-1,294,295,293,-1,293,295,232,-1,293,232,292,-1,292,232,291,-1,296,297,298,-1,299,300,301,-1,301,300,302,-1,301,302,303,-1,303,302,262,-1,238,304,262,-1,262,304,305,-1,262,305,306,-1,307,308,306,-1,306,308,309,-1,306,309,262,-1,262,309,296,-1,262,296,303,-1,303,296,298,-1,310,300,299,-1,299,298,310,-1,310,298,297,-1,310,297,236,-1,236,297,308,-1,308,307,236,-1,236,307,304,-1,236,304,238,-1,
        ]
    }
}
Shape{
    appearance Appearance {
        material  Material 	{
            diffuseColor 0.7529411764705882 0.7529411764705882 0.7529411764705882
            specularColor 0.3764705882352941 0.3764705882352941 0.3764705882352941
            ambientIntensity 0.7529
            transparency 0.0
            shininess 0.5
        }
    }
    geometry IndexedFaceSet {
        ccw TRUE
        solid FALSE
        coord DEF co Coordinate {
            point [
                1.7657 -0.1142 -1.0779, 1.7657 -0.1142 0.0, 1.7657 0.1024 -1.0779, 1.7657 0.1024 0.0, 2.1594 0.1024 0.0, 2.1594 0.1024 -1.0779, 1.9013 0.1024 -1.378, 2.0239 0.1024 -1.378, 2.1594 -0.1142 -1.0779, 2.1594 -0.1142 0.0, 1.9013 -0.1142 -1.378, 2.0239 -0.1142 -1.378
            ]
        }
        coordIndex [
            0,1,2,-1,2,1,3,-1,3,4,2,-1,2,4,5,-1,2,5,6,-1,6,5,7,-1,5,4,8,-1,8,4,9,-1,10,11,0,-1,0,11,8,-1,0,8,1,-1,1,8,9,-1,7,11,6,-1,6,11,10,-1,11,7,8,-1,8,7,5,-1,0,2,10,-1,10,2,6,-1,
        ]
    }
}
Shape{
    appearance Appearance {
        material  Material 	{
            diffuseColor 0.0 0.5019607843137255 0.25098039215686274
            specularColor 0.0 0.25098039215686274 0.12549019607843137
            ambientIntensity 0.3233
            transparency 0.0
            shininess 0.5
        }
    }
    geometry IndexedFaceSet {
        ccw TRUE
        solid FALSE
        coord DEF co Coordinate {
            point [
                0.7421 -0.319 4.785, 0.7421 -0.0968 4.1983, 2.3957 -0.319 4.785, 2.3957 -0.0968 4.1983, 2.3957 -2.25 3.2756, 2.3957 -2.25 3.8064, 1.8839 -1.7188 2.6465, 1.8839 -2.029 3.3703, 2.1336 -1.6573 2.6729, 2.1336 -1.9675 3.3966, 2.3164 -1.4893 2.7449, 2.3164 -1.7994 3.4686, 2.3833 -1.2598 2.8433, 2.3833 -1.5699 3.567, 2.3164 -1.0302 2.9416, 2.3164 -1.3404 3.6654, 2.1336 -0.8622 3.0136, 2.1336 -1.1724 3.7374, 1.8839 -0.8007 3.04, 1.8839 -1.1109 3.7637, 1.6341 -0.8622 3.0136, 1.6341 -1.1724 3.7374, 1.4513 -1.0302 2.9416, 1.4513 -1.3404 3.6654, 1.3844 -1.2598 2.8433, 1.3844 -1.5699 3.567, 1.4513 -1.4893 2.7449, 1.4513 -1.7994 3.4686, 1.6341 -1.6573 2.6729, 1.6341 -1.9675 3.3966, 1.8839 -1.2598 2.8433
            ]
        }
        coordIndex [
            0,1,2,-1,2,1,3,-1,3,4,2,-1,2,4,5,-1,6,7,8,-1,8,7,9,-1,8,9,10,-1,10,9,11,-1,10,11,12,-1,12,11,13,-1,12,13,14,-1,14,13,15,-1,14,15,16,-1,16,15,17,-1,16,17,18,-1,18,17,19,-1,18,19,20,-1,20,19,21,-1,20,21,22,-1,22,21,23,-1,22,23,24,-1,24,23,25,-1,24,25,26,-1,26,25,27,-1,26,27,28,-1,28,27,29,-1,28,29,6,-1,6,29,7,-1,26,28,30,-1,30,28,6,-1,30,6,8,-1,20,22,30,-1,30,22,24,-1,30,24,26,-1,14,16,30,-1,30,16,18,-1,30,18,20,-1,8,10,30,-1,30,10,12,-1,30,12,14,-1,
        ]
    }
}
Shape{
    appearance Appearance {
        material  Material 	{
            diffuseColor 1.0 0.5019607843137255 0.0
            specularColor 0.5019607843137255 0.25098039215686274 0.0
            ambientIntensity 0.5937
            transparency 0.0
            shininess 0.5
        }
    }
    geometry IndexedFaceSet {
        ccw TRUE
        solid FALSE
        coord DEF co Coordinate {
            point [
                1.3917 -0.2318 4.1404, 1.3917 -0.3889 4.5624, 2.3366 -0.2318 4.1404, 2.3366 -0.3889 4.5624, 2.3366 -0.932 3.8404, 2.3366 -1.0842 4.2494, 1.3917 -0.932 3.8404, 1.3917 -1.0842 4.2494, 2.3366 -1.0689 4.3601, 2.3366 -1.0905 4.3067, 2.3366 -0.7522 4.142, 2.3366 -0.8078 4.1675, 2.3366 -0.5523 4.2773, 2.3366 -0.563 4.2325, 2.3366 -0.8432 4.2173, 2.3366 -0.883 4.3242, 2.3366 -0.5597 4.3228, 2.3366 -1.0246 4.397, 2.3366 -0.967 4.3981, 2.3366 -0.9157 4.3717, 2.3366 -0.5899 4.1951, 2.3366 -0.6292 4.1709, 2.3366 -0.6913 4.1478, 2.3366 -0.4161 4.6048, 2.3366 -0.4585 4.6319, 2.3366 -0.5631 4.6211, 2.3366 -0.6041 4.5836, 2.3366 -0.6234 4.5315, 2.3366 -0.6168 4.4764, 2.3366 -0.5565 4.6247, 2.3366 -0.5083 4.639, 1.3917 -0.4585 4.6319, 1.3917 -0.4161 4.6048, 1.3917 -0.8078 4.1675, 1.3917 -0.8432 4.2173, 1.3917 -1.0905 4.3067, 1.3917 -1.0689 4.3601, 1.3917 -1.0246 4.397, 1.3917 -0.967 4.3981, 1.3917 -0.9157 4.3717, 1.3917 -0.883 4.3242, 1.3917 -0.7522 4.142, 1.3917 -0.6913 4.1478, 1.3917 -0.6292 4.1709, 1.3917 -0.5899 4.1951, 1.3917 -0.6168 4.4764, 1.3917 -0.6234 4.5315, 1.3917 -0.6041 4.5836, 1.3917 -0.563 4.2325, 1.3917 -0.5523 4.2773, 1.3917 -0.5597 4.3228, 1.3917 -0.5631 4.6211, 1.3917 -0.5565 4.6247, 1.3917 -0.5083 4.639
            ]
        }
        coordIndex [
            0,1,2,-1,2,1,3,-1,4,5,6,-1,6,5,7,-1,8,9,5,-1,10,11,4,-1,12,13,2,-1,4,11,5,-1,5,11,14,-1,5,14,15,-1,12,2,16,-1,17,8,18,-1,18,8,5,-1,18,5,19,-1,19,5,15,-1,13,20,2,-1,2,20,21,-1,2,21,4,-1,4,21,22,-1,4,22,10,-1,2,3,16,-1,16,3,23,-1,16,23,24,-1,25,26,27,-1,27,28,25,-1,25,28,16,-1,25,16,29,-1,29,16,24,-1,29,24,30,-1,31,32,1,-1,33,6,34,-1,34,6,7,-1,35,36,37,-1,37,38,35,-1,35,38,39,-1,35,39,7,-1,7,39,40,-1,7,40,34,-1,33,41,6,-1,6,41,42,-1,6,42,0,-1,0,42,43,-1,0,43,44,-1,45,46,47,-1,44,48,0,-1,0,48,49,-1,0,49,1,-1,1,49,50,-1,1,50,31,-1,47,51,45,-1,45,51,52,-1,45,52,50,-1,50,52,53,-1,50,53,31,-1,3,1,32,-1,3,32,23,-1,23,32,31,-1,23,31,24,-1,24,31,53,-1,24,53,30,-1,30,53,52,-1,30,52,29,-1,25,29,51,-1,51,29,52,-1,25,51,47,-1,25,47,26,-1,26,47,46,-1,26,46,27,-1,27,46,45,-1,27,45,28,-1,16,28,50,-1,50,28,45,-1,16,50,12,-1,12,50,49,-1,12,49,13,-1,13,49,48,-1,13,48,20,-1,20,48,44,-1,20,44,21,-1,21,44,43,-1,22,21,42,-1,42,21,43,-1,22,42,10,-1,10,42,41,-1,10,41,11,-1,11,41,33,-1,11,33,14,-1,14,33,34,-1,15,14,40,-1,40,14,34,-1,15,40,39,-1,15,39,19,-1,19,39,38,-1,19,38,18,-1,18,38,37,-1,18,37,17,-1,17,37,36,-1,17,36,8,-1,8,36,35,-1,8,35,9,-1,9,35,7,-1,9,7,5,-1,
        ]
    }
}
Shape{
    appearance Appearance {
        material  Material 	{
            diffuseColor 0.0 0.5019607843137255 0.25098039215686274
            specularColor 0.0 0.25098039215686274 0.12549019607843137
            ambientIntensity 0.3233
            transparency 0.0
            shininess 0.5
        }
    }
    geometry IndexedFaceSet {
        ccw TRUE
        solid FALSE
        coord DEF co Coordinate {
            point [
                1.7657 0.7489 3.3827, 1.7657 0.7489 2.9287, 2.1594 0.7489 3.3827, 2.1594 0.7489 2.9287, 1.7657 0.5299 2.9287, 2.1594 0.5299 2.9287, 1.7657 0.368 3.3827, 2.1594 0.368 3.3827
            ]
        }
        coordIndex [
            0,1,2,-1,2,1,3,-1,1,4,3,-1,3,4,5,-1,4,6,5,-1,5,6,7,-1,4,1,6,-1,6,1,0,-1,3,5,2,-1,2,5,7,-1,
        ]
    }
}
Shape{
    appearance Appearance {
        material  Material 	{
            diffuseColor 0.7529411764705882 0.7529411764705882 0.7529411764705882
            specularColor 0.3764705882352941 0.3764705882352941 0.3764705882352941
            ambientIntensity 0.7529
            transparency 0.0
            shininess 0.5
        }
    }
    geometry IndexedFaceSet {
        ccw TRUE
        solid FALSE
        coord DEF co Coordinate {
            point [
                0.1337 -0.3769 0.0394, 0.1286 -0.3769 0.0394, 0.1337 -0.3769 0.0, 0.1286 -0.3769 0.0, -0.0531 -0.7706 0.0394, -0.0531 -0.7706 0.0, -0.0147 -0.7706 0.0394, -0.0147 -0.7706 0.0, 0.0435 -0.6444 0.0394, 0.0435 -0.6444 0.0, 0.222 -0.6444 0.0394, 0.222 -0.6444 0.0, 0.2818 -0.7706 0.0394, 0.2818 -0.7706 0.0, 0.3204 -0.7706 0.0394, 0.3204 -0.7706 0.0, 0.0621 -0.604 0.0394, 0.2028 -0.604 0.0394, 0.1315 -0.4536 0.0394, 0.0621 -0.604 0.0, 0.1315 -0.4536 0.0, 0.2028 -0.604 0.0, 0.5719 -0.7706 0.0394, 0.6939 -0.7706 0.0394, 0.5719 -0.7706 0.0, 0.6939 -0.7706 0.0, 0.6939 -0.3769 0.0394, 0.6939 -0.3769 0.0, 0.6144 -0.3769 0.0394, 0.6144 -0.3769 0.0, 0.4895 -0.3911 0.0394, 0.4895 -0.3911 0.0, 0.5514 -0.3793 0.0, 0.5514 -0.3793 0.0394, 0.3709 -0.5787 0.0394, 0.3709 -0.5787 0.0, 0.3783 -0.5168 0.0, 0.3783 -0.5168 0.0394, 0.4186 -0.4388 0.0, 0.4186 -0.4388 0.0394, 0.5294 -0.7684 0.0, 0.5294 -0.7684 0.0394, 0.4501 -0.743 0.0, 0.4501 -0.743 0.0394, 0.3931 -0.6777 0.0, 0.3931 -0.6777 0.0394, 0.4125 -0.6276 0.0394, 0.4446 -0.6853 0.0394, 0.5009 -0.7202 0.0394, 0.5568 -0.7286 0.0394, 0.6134 -0.7302 0.0394, 0.6586 -0.7302 0.0394, 0.6586 -0.4173 0.0394, 0.6309 -0.4173 0.0394, 0.57 -0.4191 0.0394, 0.5099 -0.4283 0.0394, 0.4664 -0.4493 0.0394, 0.4235 -0.5 0.0394, 0.4062 -0.5786 0.0394, 0.6586 -0.4173 0.0, 0.6586 -0.7302 0.0, 0.6309 -0.4173 0.0, 0.57 -0.4191 0.0, 0.5099 -0.4283 0.0, 0.4664 -0.4493 0.0, 0.4235 -0.5 0.0, 0.4062 -0.5786 0.0, 0.4125 -0.6276 0.0, 0.4446 -0.6853 0.0, 0.5009 -0.7202 0.0, 0.5568 -0.7286 0.0, 0.6134 -0.7302 0.0, 0.9867 -0.7706 0.0394, 0.9867 -0.3769 0.0394, 0.9867 -0.7706 0.0, 0.9867 -0.3769 0.0, 0.7646 -0.3769 0.0394, 0.7646 -0.3769 0.0, 0.7646 -0.4173 0.0394, 0.7646 -0.4173 0.0, 0.9513 -0.4173 0.0394, 0.9513 -0.4173 0.0, 0.9513 -0.5384 0.0394, 0.9513 -0.5384 0.0, 0.7646 -0.5384 0.0394, 0.7646 -0.5384 0.0, 0.7646 -0.5788 0.0394, 0.7646 -0.5788 0.0, 0.9513 -0.5788 0.0394, 0.9513 -0.5788 0.0, 0.9513 -0.7302 0.0394, 0.9513 -0.7302 0.0, 0.7646 -0.7302 0.0394, 0.7646 -0.7302 0.0, 0.7646 -0.7706 0.0394, 0.7646 -0.7706 0.0, 1.0674 -0.4491 0.0394, 1.0674 -0.4491 0.0, 1.0798 -0.4337 0.0, 1.0798 -0.4337 0.0394, 1.1028 -0.4119 0.0, 1.1028 -0.4119 0.0394, 1.1431 -0.387 0.0, 1.1431 -0.387 0.0394, 1.2392 -0.3668 0.0394, 1.2152 -0.3718 0.0, 1.2392 -0.3668 0.0, 1.0984 -0.4728 0.0394, 1.0984 -0.4728 0.0, 1.2414 -0.4072 0.0394, 1.2414 -0.4072 0.0, 1.2251 -0.4078 0.0, 1.2251 -0.4078 0.0394, 1.1993 -0.4114 0.0, 1.1993 -0.4114 0.0394, 1.1622 -0.4234 0.0, 1.1622 -0.4234 0.0394, 1.4157 -0.5741 0.0394, 1.4157 -0.5741 0.0, 1.4151 -0.5583 0.0, 1.4151 -0.5583 0.0394, 1.3897 -0.4837 0.0, 1.3897 -0.4837 0.0394, 1.3287 -0.4288 0.0, 1.3287 -0.4288 0.0394, 1.239 -0.7403 0.0394, 1.239 -0.7403 0.0, 1.2638 -0.739 0.0, 1.2638 -0.739 0.0394, 1.341 -0.7121 0.0, 1.341 -0.7121 0.0394, 1.3953 -0.6553 0.0, 1.3953 -0.6553 0.0394, 1.0984 -0.6747 0.0394, 1.0984 -0.6747 0.0, 1.1612 -0.7236 0.0, 1.1612 -0.7236 0.0394, 1.0674 -0.6981 0.0394, 1.0674 -0.6981 0.0, 1.2387 -0.7807 0.0394, 1.2387 -0.7807 0.0, 1.219 -0.78 0.0, 1.219 -0.78 0.0394, 1.189 -0.7756 0.0, 1.1877 -0.7754 0.0394, 1.1877 -0.7754 0.0, 1.1429 -0.7602 0.0, 1.1429 -0.7602 0.0394, 1.4011 -0.7118 0.0394, 1.4011 -0.7118 0.0, 1.3886 -0.7251 0.0, 1.3886 -0.7251 0.0394, 1.3662 -0.7437 0.0, 1.3662 -0.7437 0.0394, 1.3279 -0.7647 0.0, 1.3279 -0.7647 0.0394, 1.2668 -0.7756 0.0, 1.451 -0.5714 0.0394, 1.451 -0.5714 0.0, 1.439 -0.6463 0.0, 1.439 -0.6463 0.0394, 1.2566 -0.3674 0.0, 1.2566 -0.3674 0.0394, 1.2705 -0.3718 0.0, 1.3584 -0.3999 0.0394, 1.3584 -0.3999 0.0, 1.4257 -0.4709 0.0, 1.4257 -0.4709 0.0394, 1.6832 -0.7706 0.0394, 1.6832 -0.3769 0.0394, 1.6832 -0.7706 0.0, 1.6832 -0.3769 0.0, 1.6479 -0.3769 0.0394, 1.6479 -0.3769 0.0, 1.6479 -0.7302 0.0394, 1.6479 -0.7302 0.0, 1.4965 -0.7302 0.0394, 1.4965 -0.7302 0.0, 1.4965 -0.7706 0.0394, 1.4965 -0.7706 0.0
            ]
        }
        coordIndex [
            0,1,2,-1,2,1,3,-1,1,4,3,-1,3,4,5,-1,4,6,5,-1,5,6,7,-1,6,8,7,-1,7,8,9,-1,8,10,9,-1,9,10,11,-1,10,12,11,-1,11,12,13,-1,12,14,13,-1,13,14,15,-1,14,0,15,-1,15,0,2,-1,16,4,1,-1,0,17,1,-1,1,17,18,-1,1,18,16,-1,14,12,10,-1,6,4,8,-1,8,4,16,-1,8,16,10,-1,10,16,17,-1,10,17,14,-1,14,17,0,-1,16,18,19,-1,19,18,20,-1,17,16,21,-1,21,16,19,-1,18,17,20,-1,20,17,21,-1,22,23,24,-1,24,23,25,-1,23,26,25,-1,25,26,27,-1,26,28,27,-1,27,28,29,-1,30,31,32,-1,30,32,33,-1,33,32,29,-1,33,29,28,-1,34,35,36,-1,34,36,37,-1,37,36,38,-1,37,38,39,-1,39,38,31,-1,39,31,30,-1,22,24,40,-1,22,40,41,-1,41,40,42,-1,41,42,43,-1,43,42,44,-1,43,44,45,-1,45,44,35,-1,45,35,34,-1,46,47,43,-1,43,47,48,-1,43,48,41,-1,41,48,49,-1,41,49,22,-1,22,49,50,-1,22,50,23,-1,23,50,51,-1,23,51,26,-1,26,51,52,-1,26,52,28,-1,28,52,53,-1,28,53,33,-1,33,53,54,-1,33,54,30,-1,30,54,55,-1,30,55,39,-1,39,55,56,-1,39,56,37,-1,37,56,57,-1,37,57,34,-1,34,57,58,-1,34,58,45,-1,45,58,46,-1,45,46,43,-1,52,51,59,-1,59,51,60,-1,53,52,61,-1,61,52,59,-1,53,61,62,-1,53,62,54,-1,54,62,63,-1,54,63,55,-1,55,63,64,-1,55,64,56,-1,56,64,65,-1,56,65,57,-1,57,65,66,-1,57,66,58,-1,58,66,67,-1,58,67,46,-1,46,67,68,-1,46,68,47,-1,47,68,69,-1,47,69,48,-1,48,69,70,-1,48,70,49,-1,49,70,71,-1,49,71,50,-1,51,50,60,-1,60,50,71,-1,72,73,74,-1,74,73,75,-1,73,76,75,-1,75,76,77,-1,76,78,77,-1,77,78,79,-1,78,80,79,-1,79,80,81,-1,80,82,81,-1,81,82,83,-1,82,84,83,-1,83,84,85,-1,84,86,85,-1,85,86,87,-1,86,88,87,-1,87,88,89,-1,88,90,89,-1,89,90,91,-1,90,92,91,-1,91,92,93,-1,92,94,93,-1,93,94,95,-1,94,72,95,-1,95,72,74,-1,72,94,92,-1,92,90,72,-1,72,90,88,-1,72,88,73,-1,78,76,80,-1,80,76,73,-1,80,73,82,-1,82,73,88,-1,82,88,84,-1,84,88,86,-1,96,97,98,-1,96,98,99,-1,99,98,100,-1,99,100,101,-1,101,100,102,-1,101,102,103,-1,103,102,104,-1,104,102,105,-1,104,105,106,-1,96,107,97,-1,97,107,108,-1,109,110,111,-1,109,111,112,-1,112,111,113,-1,112,113,114,-1,114,113,115,-1,114,115,116,-1,116,115,108,-1,116,108,107,-1,117,118,119,-1,117,119,120,-1,120,119,121,-1,120,121,122,-1,122,121,123,-1,122,123,124,-1,124,123,110,-1,124,110,109,-1,125,126,127,-1,125,127,128,-1,128,127,129,-1,128,129,130,-1,130,129,131,-1,130,131,132,-1,132,131,118,-1,132,118,117,-1,133,134,135,-1,133,135,136,-1,136,135,126,-1,136,126,125,-1,133,137,134,-1,134,137,138,-1,139,140,141,-1,139,141,142,-1,142,141,143,-1,142,143,144,-1,143,145,144,-1,144,145,146,-1,144,146,147,-1,147,146,138,-1,147,138,137,-1,148,149,150,-1,148,150,151,-1,151,150,152,-1,151,152,153,-1,153,152,154,-1,153,154,155,-1,155,154,139,-1,139,154,156,-1,139,156,140,-1,157,158,159,-1,157,159,160,-1,160,159,149,-1,160,149,148,-1,104,106,161,-1,104,161,162,-1,162,161,163,-1,162,163,164,-1,163,165,164,-1,164,165,166,-1,164,166,167,-1,167,166,158,-1,167,158,157,-1,137,133,147,-1,147,133,136,-1,157,160,132,-1,132,160,130,-1,130,160,148,-1,130,148,151,-1,107,96,99,-1,107,99,116,-1,116,99,101,-1,116,101,103,-1,151,153,130,-1,130,153,155,-1,130,155,128,-1,128,155,139,-1,128,139,125,-1,125,139,142,-1,125,142,136,-1,136,142,144,-1,136,144,147,-1,132,117,157,-1,157,117,120,-1,157,120,167,-1,167,120,122,-1,167,122,164,-1,164,122,124,-1,164,124,162,-1,162,124,109,-1,162,109,104,-1,104,109,112,-1,104,112,103,-1,103,112,114,-1,103,114,116,-1,168,169,170,-1,170,169,171,-1,169,172,171,-1,171,172,173,-1,172,174,173,-1,173,174,175,-1,174,176,175,-1,175,176,177,-1,176,178,177,-1,177,178,179,-1,178,168,179,-1,179,168,170,-1,172,169,174,-1,174,169,168,-1,174,168,176,-1,176,168,178,-1,
        ]
    }
}
Shape{
    appearance Appearance {
        material  Material 	{
            diffuseColor 0.0 0.5019607843137255 0.25098039215686274
            specularColor 0.0 0.25098039215686274 0.12549019607843137
            ambientIntensity 0.3233
            transparency 0.0
            shininess 0.5
        }
    }
    geometry IndexedFaceSet {
        ccw TRUE
        solid FALSE
        coord DEF co Coordinate {
            point [
                0.1315 -0.4536 0.0, 0.2028 -0.604 0.0, 0.0621 -0.604 0.0, 0.6586 -0.4173 0.0, 0.6586 -0.7302 0.0, 0.6309 -0.4173 0.0, 0.6134 -0.7302 0.0, 0.57 -0.4191 0.0, 0.5568 -0.7286 0.0, 0.5099 -0.4283 0.0, 0.5009 -0.7202 0.0, 0.4446 -0.6853 0.0, 0.4125 -0.6276 0.0, 0.4062 -0.5786 0.0, 0.4235 -0.5 0.0, 0.4664 -0.4493 0.0, -2.8799 -2.2106 2.4192, -2.6833 -2.2106 2.4192, -2.8799 -2.25 2.4192, -2.6833 -2.25 2.4192, -2.6833 -2.2106 0.0, -2.6833 -2.25 0.0, -2.8799 -2.2106 0.0, -2.8406 1.2216 2.5875, -2.8406 1.2266 2.5437, -2.8406 1.0297 2.7406, -2.8406 -1.4532 2.7406, -2.8406 1.1151 2.7211, -2.8406 1.1525 2.6976, -2.8406 1.1836 2.6664, -2.8406 -1.6071 2.6664, -2.8406 -1.65 2.5437, -2.8406 -1.6305 2.6291, -2.8406 -1.6451 2.5875, -2.8406 -1.5759 2.6976, -2.8406 -1.5386 2.7211, -2.8406 -1.497 2.7356, -2.8406 1.0735 2.7356, -2.8406 1.0297 0.461, -2.8406 -1.4532 0.461, -2.8406 -1.65 0.6578, -2.8406 1.2071 2.6291, -2.8406 1.2266 0.6578, -2.8406 1.2216 0.614, -2.8406 1.2071 0.5724, -2.8406 1.1836 0.5351, -2.8406 1.1525 0.5039, -2.8406 1.0735 0.4659, -2.8406 1.1151 0.4805, -2.8406 -1.497 0.4659, -2.8406 -1.5386 0.4805, -2.8406 -1.5759 0.5039, -2.8406 -1.6071 0.5351, -2.8406 -1.6305 0.5724, -2.8406 -1.6451 0.614, 2.6319 1.1151 0.4805, 2.6319 1.1525 0.5039, 2.6319 1.2266 0.6578, 2.6319 1.2266 2.5437, 2.6319 1.0297 2.7406, 2.6319 -1.4532 2.7406, 2.6319 -1.4532 0.461, 2.6319 1.0297 0.461, 2.6319 1.0735 0.4659, 2.6319 1.1836 0.5351, 2.6319 1.2071 0.5724, 2.6319 1.2216 0.614, 2.6319 -1.6451 0.614, 2.6319 -1.6305 0.5724, 2.6319 1.2216 2.5875, 2.6319 1.2071 2.6291, 2.6319 1.1836 2.6664, 2.6319 1.1525 2.6976, 2.6319 1.1151 2.7211, 2.6319 1.0735 2.7356, 2.6319 -1.497 2.7356, 2.6319 -1.65 2.5437, 2.6319 -1.5386 2.7211, 2.6319 -1.5759 2.6976, 2.6319 -1.6071 2.6664, 2.6319 -1.6305 2.6291, 2.6319 -1.6451 2.5875, 2.6319 -1.65 0.6578, 2.6319 -1.6071 0.5351, 2.6319 -1.5759 0.5039, 2.6319 -1.497 0.4659, 2.6319 -1.5386 0.4805, 0.7421 -2.25 3.8064, 0.7421 -2.25 3.2756, 0.7421 -0.319 4.785, 0.7421 -0.0968 4.1983
            ]
        }
        coordIndex [
            0,1,2,-1,3,4,5,-1,5,4,6,-1,5,6,7,-1,7,6,8,-1,7,8,9,-1,10,11,8,-1,8,11,12,-1,8,12,13,-1,13,14,8,-1,8,14,15,-1,8,15,9,-1,16,17,18,-1,18,17,19,-1,17,20,19,-1,19,20,21,-1,20,17,22,-1,22,17,16,-1,23,24,25,-1,25,24,26,-1,27,28,29,-1,30,31,32,-1,32,31,33,-1,30,34,31,-1,31,34,35,-1,31,35,36,-1,27,29,37,-1,38,39,40,-1,37,29,25,-1,25,29,41,-1,25,41,23,-1,36,26,31,-1,31,26,24,-1,31,24,40,-1,40,24,42,-1,40,42,38,-1,38,42,43,-1,38,43,44,-1,44,45,38,-1,38,45,46,-1,38,46,47,-1,47,46,48,-1,49,50,39,-1,39,50,51,-1,39,51,52,-1,52,53,39,-1,39,53,54,-1,39,54,40,-1,55,56,57,-1,57,58,59,-1,60,61,59,-1,59,61,62,-1,59,62,57,-1,57,62,63,-1,57,63,55,-1,56,64,57,-1,57,64,65,-1,57,65,66,-1,67,68,61,-1,58,69,59,-1,59,69,70,-1,59,70,71,-1,71,72,59,-1,59,72,73,-1,59,73,74,-1,60,75,76,-1,76,75,77,-1,76,77,78,-1,78,79,76,-1,76,79,80,-1,76,80,81,-1,60,76,61,-1,61,76,82,-1,61,82,67,-1,68,83,61,-1,61,83,84,-1,61,84,85,-1,85,84,86,-1,87,88,89,-1,89,88,90,-1,
        ]
    }
}
Shape{
    appearance Appearance {
        material  Material 	{
            diffuseColor 0.7529411764705882 0.7529411764705882 0.7529411764705882
            specularColor 0.3764705882352941 0.3764705882352941 0.3764705882352941
            ambientIntensity 0.7529
            transparency 0.0
            shininess 0.5
        }
    }
    geometry IndexedFaceSet {
        ccw TRUE
        solid FALSE
        coord DEF co Coordinate {
            point [
                -0.2028 -0.1142 -1.0779, -0.2028 -0.1142 0.0, -0.2028 0.1024 -1.0779, -0.2028 0.1024 0.0, 0.1909 0.1024 -1.0779, 0.0554 0.1024 -1.378, -0.0672 0.1024 -1.378, 0.1909 0.1024 0.0, -0.1279 0.1024 0.0, 0.1909 -0.1142 -1.0779, 0.1909 -0.1142 0.0, -0.1279 -0.1142 0.0, -0.0672 -0.1142 -1.378, 0.0554 -0.1142 -1.378
            ]
        }
        coordIndex [
            0,1,2,-1,2,1,3,-1,4,5,6,-1,7,4,8,-1,8,4,6,-1,8,6,3,-1,3,6,2,-1,4,7,9,-1,9,7,10,-1,1,0,11,-1,11,0,12,-1,12,13,11,-1,11,13,9,-1,11,9,10,-1,13,5,9,-1,9,5,4,-1,5,13,6,-1,6,13,12,-1,0,2,12,-1,12,2,6,-1,
        ]
    }
}
Shape{
    appearance Appearance {
        material  Material 	{
            diffuseColor 0.0 0.5019607843137255 0.25098039215686274
            specularColor 0.0 0.25098039215686274 0.12549019607843137
            ambientIntensity 0.3233
            transparency 0.0
            shininess 0.5
        }
    }
    geometry IndexedFaceSet {
        ccw TRUE
        solid FALSE
        coord DEF co Coordinate {
            point [
                -2.6043 -0.319 4.785, -2.6043 -0.0968 4.1983, -1.5413 -0.319 4.785, -1.5413 -0.0968 4.1983, -2.6043 -2.25 3.2756, -2.6043 -2.25 3.8064, -1.5413 -2.25 3.2756, -1.5413 -2.25 3.8064, -1.2264 -0.319 4.785, -1.2264 -0.0968 4.1983, 0.4272 -0.319 4.785, 0.4272 -0.0968 4.1983, 0.4272 -2.25 3.2756, 0.4272 -2.25 3.8064, -0.0846 -1.7188 2.6465, -0.0846 -2.029 3.3703, 0.0446 -1.7032 2.6532, 0.0446 -2.0133 3.377, 0.1651 -1.6573 2.6729, 0.1651 -1.9675 3.3966, 0.2685 -1.5844 2.7042, 0.2685 -1.8945 3.4279, 0.3479 -1.4893 2.7449, 0.3479 -1.7994 3.4686, 0.3978 -1.3786 2.7923, 0.3978 -1.6887 3.5161, 0.4148 -1.2598 2.8433, 0.4148 -1.5699 3.567, 0.3978 -1.1409 2.8942, 0.3978 -1.4511 3.6179, 0.3479 -1.0302 2.9416, 0.3479 -1.3404 3.6654, 0.2685 -0.9352 2.9824, 0.2685 -1.2453 3.7061, 0.1651 -0.8622 3.0136, 0.1651 -1.1724 3.7374, 0.0446 -0.8163 3.0333, 0.0446 -1.1265 3.757, -0.0846 -0.8007 3.04, -0.0846 -1.1109 3.7637, -0.2139 -0.8163 3.0333, -0.2139 -1.1265 3.757, -0.3344 -0.8622 3.0136, -0.3344 -1.1724 3.7374, -0.4378 -0.9352 2.9824, -0.4378 -1.2453 3.7061, -0.5172 -1.0302 2.9416, -0.5172 -1.3404 3.6654, -0.5671 -1.1409 2.8942, -0.5671 -1.4511 3.6179, -0.5841 -1.2598 2.8433, -0.5841 -1.5699 3.567, -0.5671 -1.3786 2.7923, -0.5671 -1.6887 3.5161, -0.5172 -1.4893 2.7449, -0.5172 -1.7994 3.4686, -0.4378 -1.5844 2.7042, -0.4378 -1.8945 3.4279, -0.3344 -1.6573 2.6729, -0.3344 -1.9675 3.3966, -0.2139 -1.7032 2.6532, -0.2139 -2.0133 3.377, -0.0846 -1.2598 2.8433, -2.0531 -1.7188 2.6465, -2.0531 -2.029 3.3703, -1.9239 -1.7032 2.6532, -1.9239 -2.0133 3.377, -1.8034 -1.6573 2.6729, -1.8034 -1.9675 3.3966, -1.7 -1.5844 2.7042, -1.7 -1.8945 3.4279, -1.6206 -1.4893 2.7449, -1.6206 -1.7994 3.4686, -1.5707 -1.3786 2.7923, -1.5707 -1.6887 3.5161, -1.5537 -1.2598 2.8433, -1.5537 -1.5699 3.567, -1.5707 -1.1409 2.8942, -1.5707 -1.4511 3.6179, -1.6206 -1.0302 2.9416, -1.6206 -1.3404 3.6654, -1.7 -0.9352 2.9824, -1.7 -1.2453 3.7061, -1.8034 -0.8622 3.0136, -1.8034 -1.1724 3.7374, -1.9239 -0.8163 3.0333, -1.9239 -1.1265 3.757, -2.0531 -0.8007 3.04, -2.0531 -1.1109 3.7637, -2.1824 -0.8163 3.0333, -2.1824 -1.1265 3.757, -2.3029 -0.8622 3.0136, -2.3029 -1.1724 3.7374, -2.4063 -0.9352 2.9824, -2.4063 -1.2453 3.7061, -2.4857 -1.0302 2.9416, -2.4857 -1.3404 3.6654, -2.5356 -1.1409 2.8942, -2.5356 -1.4511 3.6179, -2.5526 -1.2598 2.8433, -2.5526 -1.5699 3.567, -2.5356 -1.3786 2.7923, -2.5356 -1.6887 3.5161, -2.4857 -1.4893 2.7449, -2.4857 -1.7994 3.4686, -2.4063 -1.5844 2.7042, -2.4063 -1.8945 3.4279, -2.3029 -1.6573 2.6729, -2.3029 -1.9675 3.3966, -2.1824 -1.7032 2.6532, -2.1824 -2.0133 3.377, -2.0531 -1.2598 2.8433
            ]
        }
        coordIndex [
            0,1,2,-1,2,1,3,-1,4,1,5,-1,5,1,0,-1,3,6,2,-1,2,6,7,-1,8,9,10,-1,10,9,11,-1,11,12,10,-1,10,12,13,-1,14,15,16,-1,16,15,17,-1,16,17,18,-1,18,17,19,-1,18,19,20,-1,20,19,21,-1,20,21,22,-1,22,21,23,-1,22,23,24,-1,24,23,25,-1,24,25,26,-1,26,25,27,-1,26,27,28,-1,28,27,29,-1,28,29,30,-1,30,29,31,-1,30,31,32,-1,32,31,33,-1,32,33,34,-1,34,33,35,-1,34,35,36,-1,36,35,37,-1,36,37,38,-1,38,37,39,-1,38,39,40,-1,40,39,41,-1,40,41,42,-1,42,41,43,-1,42,43,44,-1,44,43,45,-1,44,45,46,-1,46,45,47,-1,46,47,48,-1,48,47,49,-1,48,49,50,-1,50,49,51,-1,50,51,52,-1,52,51,53,-1,52,53,54,-1,54,53,55,-1,54,55,56,-1,56,55,57,-1,56,57,58,-1,58,57,59,-1,58,59,60,-1,60,59,61,-1,60,61,14,-1,14,61,15,-1,58,60,62,-1,62,60,14,-1,62,14,16,-1,52,54,62,-1,62,54,56,-1,62,56,58,-1,46,48,62,-1,62,48,50,-1,62,50,52,-1,40,42,62,-1,62,42,44,-1,62,44,46,-1,34,36,62,-1,62,36,38,-1,62,38,40,-1,28,30,62,-1,62,30,32,-1,62,32,34,-1,22,24,62,-1,62,24,26,-1,62,26,28,-1,16,18,62,-1,62,18,20,-1,62,20,22,-1,63,64,65,-1,65,64,66,-1,65,66,67,-1,67,66,68,-1,67,68,69,-1,69,68,70,-1,69,70,71,-1,71,70,72,-1,71,72,73,-1,73,72,74,-1,73,74,75,-1,75,74,76,-1,75,76,77,-1,77,76,78,-1,77,78,79,-1,79,78,80,-1,79,80,81,-1,81,80,82,-1,81,82,83,-1,83,82,84,-1,83,84,85,-1,85,84,86,-1,85,86,87,-1,87,86,88,-1,87,88,89,-1,89,88,90,-1,89,90,91,-1,91,90,92,-1,91,92,93,-1,93,92,94,-1,93,94,95,-1,95,94,96,-1,95,96,97,-1,97,96,98,-1,97,98,99,-1,99,98,100,-1,99,100,101,-1,101,100,102,-1,101,102,103,-1,103,102,104,-1,103,104,105,-1,105,104,106,-1,105,106,107,-1,107,106,108,-1,107,108,109,-1,109,108,110,-1,109,110,63,-1,63,110,64,-1,107,109,111,-1,111,109,63,-1,111,63,65,-1,101,103,111,-1,111,103,105,-1,111,105,107,-1,95,97,111,-1,111,97,99,-1,111,99,101,-1,89,91,111,-1,111,91,93,-1,111,93,95,-1,83,85,111,-1,111,85,87,-1,111,87,89,-1,77,79,111,-1,111,79,81,-1,111,81,83,-1,71,73,111,-1,111,73,75,-1,111,75,77,-1,65,67,111,-1,111,67,69,-1,111,69,71,-1,
        ]
    }
}
Shape{
    appearance Appearance {
        material  Material 	{
            diffuseColor 1.0 0.5019607843137255 0.0
            specularColor 0.5019607843137255 0.25098039215686274 0.0
            ambientIntensity 0.5937
            transparency 0.0
            shininess 0.5
        }
    }
    geometry IndexedFaceSet {
        ccw TRUE
        solid FALSE
        coord DEF co Coordinate {
            point [
                -0.5768 -0.2318 4.1404, -0.5768 -0.3889 4.5624, 0.3681 -0.2318 4.1404, 0.3681 -0.3889 4.5624, 0.3681 -0.932 3.8404, 0.3681 -1.0842 4.2494, -0.5768 -0.932 3.8404, -0.5768 -1.0842 4.2494, 0.3681 -0.5533 4.2972, 0.3681 -0.5528 4.2707, 0.3681 -0.7817 4.1511, 0.3681 -0.7522 4.142, 0.3681 -0.7214 4.1409, 0.3681 -0.5581 4.2448, 0.3681 -0.5691 4.2208, 0.3681 -0.5852 4.1998, 0.3681 -0.6056 4.1829, 0.3681 -0.6292 4.1709, 0.3681 -0.6913 4.1478, 0.3681 -0.8078 4.1675, 0.3681 -0.8288 4.19, 0.3681 -0.8432 4.2173, 0.3681 -0.5297 4.6354, 0.3681 -0.5565 4.6247, 0.3681 -0.5597 4.3228, 0.3681 -0.5631 4.6211, 0.3681 -0.6168 4.4764, 0.3681 -0.4214 4.6097, 0.3681 -0.4452 4.6261, 0.3681 -0.883 4.3242, 0.3681 -0.8964 4.35, 0.3681 -0.9157 4.3717, 0.3681 -0.4022 4.5881, 0.3681 -0.4723 4.6361, 0.3681 -0.501 4.6393, 0.3681 -0.6041 4.5836, 0.3681 -0.6169 4.5587, 0.3681 -0.5858 4.6048, 0.3681 -0.6234 4.5315, 0.3681 -0.6234 4.5036, 0.3681 -0.9397 4.3881, 0.3681 -0.967 4.3981, 0.3681 -0.9959 4.4011, 0.3681 -1.0246 4.397, 0.3681 -1.0491 4.3813, 0.3681 -1.0689 4.3601, 0.3681 -1.083 4.3347, 0.3681 -1.0905 4.3067, 0.3681 -1.0909 4.2776, -0.5768 -0.8288 4.19, -0.5768 -0.8078 4.1675, -0.5768 -0.7817 4.1511, -0.5768 -0.7522 4.142, -0.5768 -0.8432 4.2173, -0.5768 -0.883 4.3242, -0.5768 -0.6056 4.1829, -0.5768 -0.5852 4.1998, -0.5768 -0.5691 4.2208, -0.5768 -0.5581 4.2448, -0.5768 -0.9397 4.3881, -0.5768 -0.9157 4.3717, -0.5768 -0.8964 4.35, -0.5768 -0.7214 4.1409, -0.5768 -0.6913 4.1478, -0.5768 -0.6292 4.1709, -0.5768 -0.5528 4.2707, -0.5768 -0.5533 4.2972, -0.5768 -0.5597 4.3228, -0.5768 -0.6168 4.4764, -0.5768 -1.083 4.3347, -0.5768 -0.9959 4.4011, -0.5768 -1.0905 4.3067, -0.5768 -1.0909 4.2776, -0.5768 -1.0689 4.3601, -0.5768 -1.0491 4.3813, -0.5768 -1.0246 4.397, -0.5768 -0.967 4.3981, -0.5768 -0.5631 4.6211, -0.5768 -0.5565 4.6247, -0.5768 -0.6234 4.5036, -0.5768 -0.6234 4.5315, -0.5768 -0.6169 4.5587, -0.5768 -0.5297 4.6354, -0.5768 -0.501 4.6393, -0.5768 -0.4723 4.6361, -0.5768 -0.4452 4.6261, -0.5768 -0.4214 4.6097, -0.5768 -0.4022 4.5881, -0.5768 -0.6041 4.5836, -0.5768 -0.5858 4.6048, -2.5453 -0.2318 4.1404, -2.5453 -0.3889 4.5624, -1.6004 -0.2318 4.1404, -1.6004 -0.3889 4.5624, -1.6004 -0.932 3.8404, -1.6004 -1.0842 4.2494, -2.5453 -0.932 3.8404, -2.5453 -1.0842 4.2494, -1.6004 -0.5533 4.2972, -1.6004 -0.5528 4.2707, -1.6004 -0.7817 4.1511, -1.6004 -0.7522 4.142, -1.6004 -0.7214 4.1409, -1.6004 -0.5581 4.2448, -1.6004 -0.5691 4.2208, -1.6004 -0.5852 4.1998, -1.6004 -0.6056 4.1829, -1.6004 -0.6292 4.1709, -1.6004 -0.6913 4.1478, -1.6004 -0.8078 4.1675, -1.6004 -0.8288 4.19, -1.6004 -0.8432 4.2173, -1.6004 -0.5297 4.6354, -1.6004 -0.5565 4.6247, -1.6004 -0.5597 4.3228, -1.6004 -0.5631 4.6211, -1.6004 -0.6168 4.4764, -1.6004 -0.4214 4.6097, -1.6004 -0.4452 4.6261, -1.6004 -0.883 4.3242, -1.6004 -0.8964 4.35, -1.6004 -0.9157 4.3717, -1.6004 -0.4022 4.5881, -1.6004 -0.4723 4.6361, -1.6004 -0.501 4.6393, -1.6004 -0.6041 4.5836, -1.6004 -0.6169 4.5587, -1.6004 -0.5858 4.6048, -1.6004 -0.6234 4.5315, -1.6004 -0.6234 4.5036, -1.6004 -0.9397 4.3881, -1.6004 -0.967 4.3981, -1.6004 -0.9959 4.4011, -1.6004 -1.0246 4.397, -1.6004 -1.0491 4.3813, -1.6004 -1.0689 4.3601, -1.6004 -1.083 4.3347, -1.6004 -1.0905 4.3067, -1.6004 -1.0909 4.2776, -2.5453 -0.8288 4.19, -2.5453 -0.8078 4.1675, -2.5453 -0.7817 4.1511, -2.5453 -0.7522 4.142, -2.5453 -0.8432 4.2173, -2.5453 -0.883 4.3242, -2.5453 -0.6056 4.1829, -2.5453 -0.5852 4.1998, -2.5453 -0.5691 4.2208, -2.5453 -0.5581 4.2448, -2.5453 -0.9397 4.3881, -2.5453 -0.9157 4.3717, -2.5453 -0.8964 4.35, -2.5453 -0.7214 4.1409, -2.5453 -0.6913 4.1478, -2.5453 -0.6292 4.1709, -2.5453 -0.5528 4.2707, -2.5453 -0.5533 4.2972, -2.5453 -0.5597 4.3228, -2.5453 -0.6168 4.4764, -2.5453 -1.083 4.3347, -2.5453 -0.9959 4.4011, -2.5453 -1.0905 4.3067, -2.5453 -1.0909 4.2776, -2.5453 -1.0689 4.3601, -2.5453 -1.0491 4.3813, -2.5453 -1.0246 4.397, -2.5453 -0.967 4.3981, -2.5453 -0.5631 4.6211, -2.5453 -0.5565 4.6247, -2.5453 -0.6234 4.5036, -2.5453 -0.6234 4.5315, -2.5453 -0.6169 4.5587, -2.5453 -0.5297 4.6354, -2.5453 -0.501 4.6393, -2.5453 -0.4723 4.6361, -2.5453 -0.4452 4.6261, -2.5453 -0.4214 4.6097, -2.5453 -0.4022 4.5881, -2.5453 -0.6041 4.5836, -2.5453 -0.5858 4.6048
            ]
        }
        coordIndex [
            0,1,2,-1,2,1,3,-1,4,5,6,-1,6,5,7,-1,8,9,2,-1,10,4,11,-1,11,4,12,-1,9,13,2,-1,2,13,14,-1,2,14,15,-1,15,16,2,-1,2,16,17,-1,2,17,4,-1,4,17,18,-1,4,18,12,-1,10,19,4,-1,4,19,20,-1,4,20,5,-1,5,20,21,-1,22,23,24,-1,24,23,25,-1,24,25,26,-1,27,28,24,-1,21,29,5,-1,5,29,30,-1,5,30,31,-1,27,24,32,-1,28,33,24,-1,24,33,34,-1,24,34,22,-1,35,36,37,-1,37,36,38,-1,37,38,25,-1,25,38,39,-1,25,39,26,-1,31,40,5,-1,5,40,41,-1,5,41,42,-1,43,44,42,-1,42,44,45,-1,42,45,46,-1,46,47,42,-1,42,47,48,-1,42,48,5,-1,8,2,24,-1,24,2,3,-1,24,3,32,-1,49,50,6,-1,6,50,51,-1,6,51,52,-1,49,6,53,-1,53,6,7,-1,53,7,54,-1,55,56,0,-1,0,56,57,-1,0,57,58,-1,59,60,7,-1,7,60,61,-1,7,61,54,-1,52,62,6,-1,6,62,63,-1,6,63,0,-1,0,63,64,-1,0,64,55,-1,58,65,0,-1,0,65,66,-1,0,66,1,-1,1,66,67,-1,1,67,68,-1,69,70,71,-1,71,70,72,-1,69,73,70,-1,70,73,74,-1,70,74,75,-1,72,70,7,-1,7,70,76,-1,7,76,59,-1,1,77,78,-1,68,79,1,-1,1,79,80,-1,1,80,81,-1,78,82,1,-1,1,82,83,-1,1,83,84,-1,84,85,1,-1,1,85,86,-1,1,86,87,-1,81,88,1,-1,1,88,89,-1,1,89,77,-1,3,1,87,-1,3,87,32,-1,32,87,86,-1,32,86,27,-1,27,86,85,-1,27,85,28,-1,28,85,84,-1,28,84,33,-1,33,84,83,-1,33,83,34,-1,34,83,82,-1,34,82,22,-1,22,82,78,-1,22,78,23,-1,25,23,77,-1,77,23,78,-1,25,77,89,-1,25,89,37,-1,37,89,88,-1,37,88,35,-1,35,88,81,-1,35,81,36,-1,36,81,80,-1,36,80,38,-1,38,80,79,-1,38,79,39,-1,39,79,68,-1,39,68,26,-1,24,26,67,-1,67,26,68,-1,24,67,8,-1,8,67,66,-1,8,66,9,-1,9,66,65,-1,9,65,13,-1,13,65,58,-1,13,58,14,-1,14,58,57,-1,14,57,15,-1,15,57,56,-1,15,56,16,-1,16,56,55,-1,16,55,17,-1,17,55,64,-1,18,17,63,-1,63,17,64,-1,18,63,12,-1,12,63,62,-1,12,62,11,-1,11,62,52,-1,11,52,10,-1,10,52,51,-1,10,51,19,-1,19,51,50,-1,19,50,20,-1,20,50,49,-1,20,49,21,-1,21,49,53,-1,29,21,54,-1,54,21,53,-1,29,54,61,-1,29,61,30,-1,30,61,60,-1,30,60,31,-1,31,60,59,-1,31,59,40,-1,40,59,76,-1,40,76,41,-1,41,76,70,-1,41,70,42,-1,42,70,75,-1,42,75,43,-1,43,75,74,-1,43,74,44,-1,44,74,73,-1,44,73,45,-1,45,73,69,-1,45,69,46,-1,46,69,71,-1,46,71,47,-1,47,71,72,-1,47,72,48,-1,48,72,7,-1,48,7,5,-1,90,91,92,-1,92,91,93,-1,94,95,96,-1,96,95,97,-1,98,99,92,-1,100,94,101,-1,101,94,102,-1,99,103,92,-1,92,103,104,-1,92,104,105,-1,105,106,92,-1,92,106,107,-1,92,107,94,-1,94,107,108,-1,94,108,102,-1,100,109,94,-1,94,109,110,-1,94,110,95,-1,95,110,111,-1,112,113,114,-1,114,113,115,-1,114,115,116,-1,117,118,114,-1,111,119,95,-1,95,119,120,-1,95,120,121,-1,117,114,122,-1,118,123,114,-1,114,123,124,-1,114,124,112,-1,125,126,127,-1,127,126,128,-1,127,128,115,-1,115,128,129,-1,115,129,116,-1,121,130,95,-1,95,130,131,-1,95,131,132,-1,133,134,132,-1,132,134,135,-1,132,135,136,-1,136,137,132,-1,132,137,138,-1,132,138,95,-1,98,92,114,-1,114,92,93,-1,114,93,122,-1,139,140,96,-1,96,140,141,-1,96,141,142,-1,139,96,143,-1,143,96,97,-1,143,97,144,-1,145,146,90,-1,90,146,147,-1,90,147,148,-1,149,150,97,-1,97,150,151,-1,97,151,144,-1,142,152,96,-1,96,152,153,-1,96,153,90,-1,90,153,154,-1,90,154,145,-1,148,155,90,-1,90,155,156,-1,90,156,91,-1,91,156,157,-1,91,157,158,-1,159,160,161,-1,161,160,162,-1,159,163,160,-1,160,163,164,-1,160,164,165,-1,162,160,97,-1,97,160,166,-1,97,166,149,-1,91,167,168,-1,158,169,91,-1,91,169,170,-1,91,170,171,-1,168,172,91,-1,91,172,173,-1,91,173,174,-1,174,175,91,-1,91,175,176,-1,91,176,177,-1,171,178,91,-1,91,178,179,-1,91,179,167,-1,93,91,177,-1,93,177,122,-1,122,177,176,-1,122,176,117,-1,117,176,175,-1,117,175,118,-1,118,175,174,-1,118,174,123,-1,123,174,173,-1,123,173,124,-1,124,173,172,-1,124,172,112,-1,112,172,168,-1,112,168,113,-1,115,113,167,-1,167,113,168,-1,115,167,179,-1,115,179,127,-1,127,179,178,-1,127,178,125,-1,125,178,171,-1,125,171,126,-1,126,171,170,-1,126,170,128,-1,128,170,169,-1,128,169,129,-1,129,169,158,-1,129,158,116,-1,114,116,157,-1,157,116,158,-1,114,157,98,-1,98,157,156,-1,98,156,99,-1,99,156,155,-1,99,155,103,-1,103,155,148,-1,103,148,104,-1,104,148,147,-1,104,147,105,-1,105,147,146,-1,105,146,106,-1,106,146,145,-1,106,145,107,-1,107,145,154,-1,108,107,153,-1,153,107,154,-1,108,153,102,-1,102,153,152,-1,102,152,101,-1,101,152,142,-1,101,142,100,-1,100,142,141,-1,100,141,109,-1,109,141,140,-1,109,140,110,-1,110,140,139,-1,110,139,111,-1,111,139,143,-1,119,111,144,-1,144,111,143,-1,119,144,151,-1,119,151,120,-1,120,151,150,-1,120,150,121,-1,121,150,149,-1,121,149,130,-1,130,149,166,-1,130,166,131,-1,131,166,160,-1,131,160,132,-1,132,160,165,-1,132,165,133,-1,133,165,164,-1,133,164,134,-1,134,164,163,-1,134,163,135,-1,135,163,159,-1,135,159,136,-1,136,159,161,-1,136,161,137,-1,137,161,162,-1,137,162,138,-1,138,162,97,-1,138,97,95,-1,
        ]
    }
}
Shape{
    appearance Appearance {
        material  Material 	{
            diffuseColor 0.0 0.5019607843137255 0.25098039215686274
            specularColor 0.0 0.25098039215686274 0.12549019607843137
            ambientIntensity 0.3233
            transparency 0.0
            shininess 0.5
        }
    }
    geometry IndexedFaceSet {
        ccw TRUE
        solid FALSE
        coord DEF co Coordinate {
            point [
                -2.1713 0.7489 3.3827, -2.1713 0.7489 2.9287, -1.7776 0.7489 3.3827, -1.7776 0.7489 2.9287, -2.1713 0.5299 2.9287, -1.7776 0.5299 2.9287, -2.1713 0.368 3.3827, -1.7776 0.368 3.3827, -0.2028 0.7489 3.3827, -0.2028 0.7489 2.9287, 0.1909 0.7489 3.3827, 0.1909 0.7489 2.9287, -0.2028 0.5299 2.9287, 0.1909 0.5299 2.9287, -0.2028 0.368 3.3827, 0.1909 0.368 3.3827, -2.8649 -1.4532 0.4391, -2.8539 -1.4532 0.4513, -2.8536 1.0297 0.451, -2.8406 -1.4532 0.461, -2.8406 1.0297 0.461, -2.8569 1.0297 0.4485, -2.8644 1.0297 0.4387, -2.8731 -1.4532 0.4248, -2.8694 1.0297 0.4322, -2.8725 1.0297 0.4246, -2.8772 1.0297 0.4132, -2.8782 -1.4532 0.4092, -2.8778 1.0297 0.4091, -2.8799 1.0297 0.3928, -2.8799 -1.4532 0.3928, -2.8539 -1.4991 0.4565, -2.8649 -1.5018 0.4446, -2.8731 -1.505 0.4307, -2.8782 -1.5085 0.4154, -2.8799 -1.5121 0.3994, -2.8799 -1.5682 0.419, -2.8782 -1.5611 0.4338, -2.8799 -1.6184 0.4506, -2.8782 -1.6082 0.4634, -2.8799 -1.6604 0.4926, -2.8782 -1.6476 0.5028, -2.8799 -1.692 0.5428, -2.8782 -1.6772 0.5499, -2.8799 -1.7116 0.5989, -2.8782 -1.6956 0.6025, -2.8799 -1.7182 0.6578, -2.8782 -1.7018 0.6578, -2.8731 -1.5543 0.4479, -2.8731 -1.5984 0.4757, -2.8731 -1.6353 0.5126, -2.8731 -1.6631 0.5567, -2.8731 -1.6803 0.606, -2.8731 -1.6862 0.6578, -2.8649 -1.5481 0.4607, -2.8649 -1.5896 0.4868, -2.8649 -1.6242 0.5214, -2.8649 -1.6503 0.5629, -2.8649 -1.6664 0.6092, -2.8649 -1.6719 0.6578, -2.8539 -1.5428 0.4718, -2.8539 -1.5819 0.4964, -2.8539 -1.6146 0.5291, -2.8539 -1.6392 0.5682, -2.8539 -1.6545 0.6119, -2.8539 -1.6597 0.6578, -2.8406 -1.497 0.4659, -2.8406 -1.5386 0.4805, -2.8406 -1.5759 0.5039, -2.8406 -1.6071 0.5351, -2.8406 -1.6305 0.5724, -2.8406 -1.6451 0.614, -2.8406 -1.65 0.6578, -2.8406 1.2266 0.6578, -2.8569 1.2391 0.6578, -2.8569 1.2338 0.6113, -2.8694 1.2554 0.6578, -2.8694 1.2497 0.6076, -2.8772 1.2744 0.6578, -2.8799 1.2948 0.6578, -2.8799 1.2881 0.5989, -2.8772 1.2683 0.6034, -2.8799 1.2685 0.5428, -2.8772 1.2502 0.5517, -2.8799 1.2369 0.4926, -2.8772 1.221 0.5053, -2.8799 1.195 0.4506, -2.8772 1.1823 0.4666, -2.8799 1.1447 0.419, -2.8772 1.1359 0.4374, -2.8799 1.0887 0.3994, -2.8772 1.0842 0.4193, -2.8694 1.0799 0.4378, -2.8694 1.1276 0.4545, -2.8694 1.1704 0.4814, -2.8694 1.2062 0.5171, -2.8694 1.2331 0.5599, -2.8569 1.2184 0.567, -2.8569 1.1934 0.5273, -2.8569 1.1603 0.4942, -2.8569 1.1206 0.4692, -2.8569 1.0763 0.4537, -2.8406 1.2216 0.614, -2.8406 1.2071 0.5724, -2.8406 1.1836 0.5351, -2.8406 1.1525 0.5039, -2.8406 1.1151 0.4805, -2.8406 1.0735 0.4659, -2.8406 -1.65 2.5437, -2.8539 -1.6597 2.5437, -2.8649 -1.6719 2.5437, -2.8731 -1.6862 2.5437, -2.8782 -1.7018 2.5437, -2.8799 -1.7182 2.5437, -2.8406 1.2266 2.5437, -2.8569 1.2391 2.5437, -2.8694 1.2554 2.5437, -2.8772 1.2744 2.5437, -2.8799 1.2948 2.5437, -2.8539 -1.6545 2.5897, -2.8649 -1.6664 2.5924, -2.8731 -1.6803 2.5956, -2.8782 -1.6956 2.599, -2.8799 -1.7116 2.6027, -2.8799 -1.692 2.6587, -2.8782 -1.6772 2.6516, -2.8799 -1.6604 2.709, -2.8782 -1.6476 2.6988, -2.8799 -1.6184 2.7509, -2.8782 -1.6082 2.7381, -2.8799 -1.5682 2.7825, -2.8782 -1.5611 2.7678, -2.8799 -1.5121 2.8021, -2.8782 -1.5085 2.7861, -2.8799 -1.4532 2.8087, -2.8782 -1.4532 2.7924, -2.8731 -1.6631 2.6448, -2.8731 -1.6353 2.689, -2.8731 -1.5984 2.7259, -2.8731 -1.5543 2.7536, -2.8731 -1.505 2.7709, -2.8731 -1.4532 2.7767, -2.8649 -1.6503 2.6386, -2.8649 -1.6242 2.6801, -2.8649 -1.5896 2.7147, -2.8649 -1.5481 2.7408, -2.8649 -1.5018 2.757, -2.8649 -1.4532 2.7625, -2.8539 -1.6392 2.6333, -2.8539 -1.6146 2.6725, -2.8539 -1.5819 2.7052, -2.8539 -1.5428 2.7298, -2.8539 -1.4991 2.7451, -2.8539 -1.4532 2.7502, -2.8406 -1.6451 2.5875, -2.8406 -1.6305 2.6291, -2.8406 -1.6071 2.6664, -2.8406 -1.5759 2.6976, -2.8406 -1.5386 2.7211, -2.8406 -1.497 2.7356, -2.8406 -1.4532 2.7406, -2.8778 1.0297 2.7924, -2.8799 1.0297 2.8087, -2.8799 1.0887 2.8021, -2.8725 1.0297 2.777, -2.8772 1.0297 2.7884, -2.8772 1.0842 2.7822, -2.8799 1.1447 2.7825, -2.8772 1.1359 2.7641, -2.8799 1.195 2.7509, -2.8772 1.1823 2.735, -2.8799 1.2369 2.709, -2.8772 1.221 2.6963, -2.8799 1.2685 2.6587, -2.8772 1.2502 2.6499, -2.8799 1.2881 2.6027, -2.8772 1.2683 2.5982, -2.8644 1.0297 2.7629, -2.8694 1.0297 2.7694, -2.8694 1.0799 2.7637, -2.8694 1.1276 2.747, -2.8694 1.1704 2.7201, -2.8694 1.2062 2.6844, -2.8694 1.2331 2.6416, -2.8694 1.2497 2.5939, -2.8536 1.0297 2.7506, -2.8569 1.0297 2.7531, -2.8569 1.0763 2.7478, -2.8569 1.1206 2.7323, -2.8569 1.1603 2.7074, -2.8569 1.1934 2.6742, -2.8569 1.2184 2.6345, -2.8569 1.2338 2.5903, -2.8406 1.0735 2.7356, -2.8406 1.0297 2.7406, -2.8406 1.1151 2.7211, -2.8406 1.1525 2.6976, -2.8406 1.1836 2.6664, -2.8406 1.2071 2.6291, -2.8406 1.2216 2.5875, -2.8799 -0.153 4.8462, 2.5925 -0.1351 4.8389, -2.8799 -0.1351 4.8389, 2.5925 -0.1196 4.8274, -2.8799 -0.1196 4.8274, 2.5925 -0.1073 4.8125, -2.8799 -0.1073 4.8125, 2.5925 -0.1032 4.8037, -2.8799 -0.0991 4.795, 2.5925 -0.0991 4.795, -2.8799 -0.1721 4.849, 2.5925 -0.1562 4.8467, 2.5925 -0.153 4.8462, -2.8799 -0.1913 4.8471, 2.5925 -0.1738 4.849, 2.5925 -0.1721 4.849, -2.8799 -0.2094 4.8405, 2.5925 -0.2094 4.8405, 2.5925 -0.2081 4.841, 2.5925 -0.1914 4.847, 2.5925 -0.1913 4.8471, 2.6014 -0.1406 4.8411, 2.5971 -0.1568 4.847, 2.6013 -0.1586 4.847, 2.6013 -0.1891 4.847, 2.605 -0.1863 4.847, 2.6223 -0.191 4.8411, 2.6078 -0.1826 4.847, 2.6693 -0.1572 4.7758, 2.668 -0.1536 4.777, 2.6668 -0.1539 4.7872, 2.6635 -0.1414 4.781, 2.6594 -0.1352 4.7831, 2.6591 -0.1354 4.7872, 2.6494 -0.1227 4.7872, 2.6464 -0.1199 4.7881, 2.6428 -0.1235 4.804, 2.6416 -0.1154 4.7896, 2.6267 -0.1065 4.7926, 2.6281 -0.1122 4.804, 2.61 -0.1009 4.7944, 2.6109 -0.1051 4.804, 2.6119 -0.1015 4.7942, 2.6713 -0.1738 4.7703, 2.6688 -0.1824 4.7872, 2.6694 -0.1738 4.7872, 2.6686 -0.183 4.7885, 2.6637 -0.1738 4.804, 2.6614 -0.1909 4.8039, 2.6607 -0.1916 4.8054, 2.6543 -0.1738 4.8191, 2.6602 -0.1919 4.806, 2.649 -0.1985 4.819, 2.6522 -0.1898 4.8191, 2.6482 -0.199 4.82, 2.6402 -0.1866 4.8317, 2.6413 -0.2014 4.8247, 2.6319 -0.2046 4.8311, 2.6353 -0.1985 4.8317, 2.6305 -0.2049 4.8316, 2.6254 -0.2059 4.8335, 2.6168 -0.1981 4.8411, 2.6097 -0.2036 4.8411, 2.6129 -0.2082 4.8381, 2.6014 -0.207 4.8411, 2.6022 -0.2088 4.8394, 2.5971 -0.1908 4.847, 2.605 -0.1614 4.847, 2.6097 -0.1441 4.8411, 2.6053 -0.1262 4.8317, 2.6257 -0.1827 4.8411, 2.6095 -0.1784 4.847, 2.6419 -0.1738 4.8317, 2.6269 -0.1738 4.8411, 2.6101 -0.1738 4.847, 2.6085 -0.1141 4.8191, 2.6234 -0.1203 4.8191, 2.6172 -0.1311 4.8317, 2.6362 -0.1301 4.8191, 2.6274 -0.1389 4.8317, 2.6168 -0.1495 4.8411, 2.6541 -0.1272 4.7857, 2.6542 -0.1382 4.804, 2.6461 -0.1429 4.8191, 2.6353 -0.1492 4.8317, 2.6223 -0.1566 4.8411, 2.6078 -0.165 4.847, 2.6095 -0.1693 4.847, 2.6257 -0.1649 4.8411, 2.6402 -0.1611 4.8317, 2.6522 -0.1578 4.8191, 2.6613 -0.1554 4.804, 2.6129 0.3661 3.3801, 2.61 0.3665 3.3806, 2.6013 0.3677 3.3822, 2.5925 0.368 3.3827, 2.6478 0.3511 3.3593, 2.6541 0.3466 3.3531, 2.6416 0.3556 3.3656, 2.6317 0.3601 3.3718, 2.6267 0.3624 3.3749, 2.6603 0.3394 3.3431, 2.6635 0.3358 3.3382, 2.6683 0.3258 3.3243, 2.6693 0.3238 3.3215, 2.6713 0.3111 3.304, 2.669 -2.1887 3.7688, 2.6713 -2.1713 3.7581, 2.6686 -2.1916 3.7706, 2.6607 -2.2106 3.7823, 2.663 -2.2052 3.7789, 2.6482 -2.2269 3.7923, 2.6536 -2.22 3.788, 2.6416 -2.2328 3.7959, 2.6317 -2.2391 3.7997, 2.6267 -2.2422 3.8017, 2.6128 -2.2471 3.8046, 2.5925 -2.25 3.8064, 2.61 -2.248 3.8052, 2.6686 1.6083 3.3244, 2.6607 1.6083 3.3434, 2.6713 1.6083 3.304, 2.6482 1.6083 3.3597, 2.6319 1.6083 3.3722, 2.5925 1.6083 3.3827, 2.6129 1.6083 3.3801, 2.6635 -2.2054 0.0446, 2.6693 -2.1888 0.0612, 2.6713 -2.1713 0.0787, 2.6541 -2.2204 0.0296, 2.6416 -2.2328 0.0172, 2.6267 -2.2422 0.0078, 2.6185 -2.2456 0.0044, 2.61 -2.248 0.002, 2.6013 -2.2495 0.0005, 2.5925 -2.25 0.0, 2.5925 1.687 3.304, 2.5925 1.6843 3.3244, 2.6122 1.6817 3.3244, 2.6122 1.6424 3.3722, 2.6027 1.6259 3.3801, 2.6069 1.6227 3.3801, 2.6122 1.6135 3.3801, 2.5978 1.6279 3.3801, 2.6027 1.6463 3.3722, 2.6069 1.662 3.3597, 2.5925 1.6286 3.3801, 2.6204 1.6361 3.3722, 2.6102 1.6185 3.3801, 2.6266 1.6279 3.3722, 2.6305 1.6185 3.3722, 2.5925 1.6476 3.3722, 2.5925 1.6639 3.3597, 2.5925 1.6765 3.3434, 2.6204 1.6565 3.3597, 2.6319 1.6476 3.3597, 2.6407 1.6361 3.3597, 2.6463 1.6227 3.3597, 2.6102 1.6741 3.3434, 2.6266 1.6673 3.3434, 2.6407 1.6565 3.3434, 2.6516 1.6424 3.3434, 2.6584 1.6259 3.3434, 2.6305 1.6741 3.3244, 2.6463 1.662 3.3244, 2.6584 1.6463 3.3244, 2.666 1.6279 3.3244, 2.6129 1.6843 3.304, 2.6319 1.6765 3.304, 2.6482 1.6639 3.304, 2.6607 1.6476 3.304, 2.6686 1.6286 3.304, 2.5925 -0.7756 0.0, 2.5925 1.6083 0.0, 2.61 1.6083 0.0023, 2.5925 -0.2405 0.0, 2.5925 -0.3718 0.0, 2.6129 1.6083 0.0027, 2.6265 1.6083 0.0083, 2.6319 1.6083 0.0106, 2.6412 1.6083 0.0177, 2.6482 1.6083 0.0231, 2.6536 1.6083 0.0301, 2.6607 1.6083 0.0394, 2.663 1.6083 0.0448, 2.6686 1.6083 0.0584, 2.669 1.6083 0.0613, 2.6713 1.6083 0.0787, 2.6686 1.6286 0.0787, 2.6607 1.6476 0.0787, 2.6482 1.6639 0.0787, 2.6319 1.6765 0.0787, 2.6129 1.6843 0.0787, 2.5925 1.687 0.0787, -2.8799 1.6083 3.3827, -2.8792 1.6185 3.3821, -2.8739 1.6384 3.3768, -2.8772 1.6286 3.3801, -2.8569 1.6639 3.3597, -2.8636 1.6562 3.3665, -2.8694 1.6476 3.3722, -2.8406 1.6765 3.3434, -2.8216 1.6843 3.3244, -2.8012 1.687 3.304, 2.6122 1.6135 0.0027, 2.666 1.6279 0.0584, 2.6584 1.6259 0.0394, 2.6463 1.6227 0.0231, 2.6305 1.6185 0.0106, 2.6122 1.6817 0.0584, 2.6305 1.6741 0.0584, 2.6102 1.6741 0.0394, 2.6266 1.6673 0.0394, 2.6069 1.662 0.0231, 2.6204 1.6565 0.0231, 2.6027 1.6463 0.0106, 2.6122 1.6424 0.0106, 2.5978 1.6279 0.0027, 2.6027 1.6259 0.0027, 2.6463 1.662 0.0584, 2.6407 1.6565 0.0394, 2.6319 1.6476 0.0231, 2.6204 1.6361 0.0106, 2.6069 1.6227 0.0027, 2.5925 1.6843 0.0584, 2.5925 1.6765 0.0394, 2.5925 1.6639 0.0231, 2.5925 1.6476 0.0106, 2.5925 1.6286 0.0027, 2.6584 1.6463 0.0584, 2.6516 1.6424 0.0394, 2.6407 1.6361 0.0231, 2.6266 1.6279 0.0106, 2.6102 1.6185 0.0027, -2.8799 1.6083 0.0, -2.8792 1.6185 0.0007, -2.8772 1.6286 0.0027, -2.8739 1.6384 0.006, -2.8694 1.6476 0.0106, -2.8636 1.6562 0.0163, -2.8569 1.6639 0.0231, -2.8406 1.6765 0.0394, -2.8216 1.6843 0.0584, -2.8012 1.687 0.0787, 1.7245 1.6083 0.0, 1.4738 1.6083 0.0, 1.0271 1.6083 0.0, 0.7293 1.6083 0.0, 0.3457 1.6083 0.0, 0.2557 1.6083 0.0, -0.1279 1.6083 0.0, -0.9902 1.6083 0.0, -2.5256 1.6083 0.0, 2.6691 -1.4532 2.7924, 2.6713 -1.4532 2.8087, 2.6713 -1.5121 2.8021, 2.6639 -1.4532 2.777, 2.6686 -1.4532 2.7884, 2.6686 -1.5076 2.7822, 2.6713 -1.5682 2.7825, 2.6686 -1.5593 2.7641, 2.6713 -1.6184 2.7509, 2.6686 -1.6057 2.735, 2.6713 -1.6604 2.709, 2.6686 -1.6444 2.6963, 2.6713 -1.692 2.6587, 2.6686 -1.6736 2.6499, 2.6713 -1.7116 2.6027, 2.6686 -1.6917 2.5982, 2.6713 -1.7182 2.5437, 2.6686 -1.6978 2.5437, 2.6557 -1.4532 2.7629, 2.6607 -1.4532 2.7694, 2.6607 -1.5034 2.7637, 2.6607 -1.5511 2.747, 2.6607 -1.5939 2.7201, 2.6607 -1.6296 2.6844, 2.6607 -1.6565 2.6416, 2.6607 -1.6732 2.5939, 2.6607 -1.6788 2.5437, 2.6449 -1.4532 2.7506, 2.6482 -1.4532 2.7531, 2.6482 -1.4998 2.7478, 2.6482 -1.544 2.7323, 2.6482 -1.5837 2.7074, 2.6482 -1.6169 2.6742, 2.6482 -1.6418 2.6345, 2.6482 -1.6573 2.5903, 2.6482 -1.6625 2.5437, 2.6319 -1.497 2.7356, 2.6319 -1.4532 2.7406, 2.6319 -1.5386 2.7211, 2.6319 -1.5759 2.6976, 2.6319 -1.6071 2.6664, 2.6319 -1.6305 2.6291, 2.6319 -1.6451 2.5875, 2.6319 -1.65 2.5437, 2.6319 -1.65 0.6578, 2.6482 -1.6625 0.6578, 2.6607 -1.6788 0.6578, 2.6686 -1.6978 0.6578, 2.6713 -1.7182 0.6578, 2.6319 1.0297 2.7406, 2.6452 1.0297 2.7502, 2.6562 1.0297 2.7625, 2.6645 1.0297 2.7767, 2.6695 1.0297 2.7924, 2.6713 1.0297 2.8087, 2.6482 -1.6573 0.6113, 2.6607 -1.6732 0.6076, 2.6686 -1.6917 0.6034, 2.6713 -1.7116 0.5989, 2.6713 -1.692 0.5428, 2.6686 -1.6736 0.5517, 2.6713 -1.6604 0.4926, 2.6686 -1.6444 0.5053, 2.6713 -1.6184 0.4506, 2.6686 -1.6057 0.4666, 2.6713 -1.5682 0.419, 2.6686 -1.5593 0.4374, 2.6713 -1.5121 0.3994, 2.6686 -1.5076 0.4193, 2.6713 -1.4532 0.3928, 2.6686 -1.4532 0.4132, 2.6607 -1.6565 0.5599, 2.6607 -1.6296 0.5171, 2.6607 -1.5939 0.4814, 2.6607 -1.5511 0.4545, 2.6607 -1.5034 0.4378, 2.6607 -1.4532 0.4322, 2.6482 -1.6418 0.567, 2.6482 -1.6169 0.5273, 2.6482 -1.5837 0.4942, 2.6482 -1.544 0.4692, 2.6482 -1.4998 0.4537, 2.6482 -1.4532 0.4485, 2.6319 -1.6451 0.614, 2.6319 -1.6305 0.5724, 2.6319 -1.6071 0.5351, 2.6319 -1.5759 0.5039, 2.6319 -1.5386 0.4805, 2.6319 -1.497 0.4659, 2.6319 -1.4532 0.461, 2.6319 1.2266 2.5437, 2.6452 1.2363 2.5437, 2.6452 1.2311 2.5897, 2.6562 1.2485 2.5437, 2.6562 1.243 2.5924, 2.6645 1.2627 2.5437, 2.6645 1.2569 2.5956, 2.6695 1.2784 2.5437, 2.6695 1.2722 2.599, 2.6713 1.2948 2.5437, 2.6713 1.2881 2.6027, 2.6713 1.2685 2.6587, 2.6695 1.2538 2.6516, 2.6713 1.2369 2.709, 2.6695 1.2241 2.6988, 2.6713 1.195 2.7509, 2.6695 1.1848 2.7381, 2.6713 1.1447 2.7825, 2.6695 1.1376 2.7678, 2.6713 1.0887 2.8021, 2.6695 1.0851 2.7861, 2.6645 1.2397 2.6448, 2.6645 1.2119 2.689, 2.6645 1.175 2.7259, 2.6645 1.1308 2.7536, 2.6645 1.0816 2.7709, 2.6562 1.2268 2.6386, 2.6562 1.2008 2.6801, 2.6562 1.1661 2.7147, 2.6562 1.1246 2.7408, 2.6562 1.0784 2.757, 2.6452 1.2158 2.6333, 2.6452 1.1912 2.6725, 2.6452 1.1585 2.7052, 2.6452 1.1193 2.7298, 2.6452 1.0757 2.7451, 2.6319 1.2216 2.5875, 2.6319 1.2071 2.6291, 2.6319 1.1836 2.6664, 2.6319 1.1525 2.6976, 2.6319 1.1151 2.7211, 2.6319 1.0735 2.7356, 2.6452 1.0297 0.4513, 2.6319 1.0297 0.461, 2.648 1.0297 0.4483, 2.6562 1.0297 0.4391, 2.6603 1.0297 0.432, 2.6645 1.0297 0.4248, 2.6683 1.0297 0.4131, 2.6695 1.0297 0.4092, 2.6713 1.0297 0.3928, 2.6319 1.2266 0.6578, 2.6452 1.2363 0.6578, 2.6562 1.2485 0.6578, 2.6645 1.2627 0.6578, 2.6695 1.2784 0.6578, 2.6713 1.2948 0.6578, 2.6695 1.0851 0.4154, 2.6713 1.0887 0.3994, 2.6713 1.1447 0.419, 2.6695 1.1376 0.4338, 2.6713 1.195 0.4506, 2.6695 1.1848 0.4634, 2.6713 1.2369 0.4926, 2.6695 1.2241 0.5028, 2.6713 1.2685 0.5428, 2.6695 1.2538 0.5499, 2.6713 1.2881 0.5989, 2.6695 1.2722 0.6025, 2.6645 1.0816 0.4307, 2.6645 1.1308 0.4479, 2.6645 1.175 0.4757, 2.6645 1.2119 0.5126, 2.6645 1.2397 0.5567, 2.6645 1.2569 0.606, 2.6562 1.0784 0.4446, 2.6562 1.1246 0.4607, 2.6562 1.1661 0.4868, 2.6562 1.2008 0.5214, 2.6562 1.2268 0.5629, 2.6562 1.243 0.6092, 2.6452 1.0757 0.4565, 2.6452 1.1193 0.4718, 2.6452 1.1585 0.4964, 2.6452 1.1912 0.5291, 2.6452 1.2158 0.5682, 2.6452 1.2311 0.6119, 2.6319 1.0735 0.4659, 2.6319 1.1151 0.4805, 2.6319 1.1525 0.5039, 2.6319 1.1836 0.5351, 2.6319 1.2071 0.5724, 2.6319 1.2216 0.614, -1.2264 -2.25 3.8064, -1.2264 -2.25 3.2756, -1.2264 -0.319 4.785, -1.2264 -0.0968 4.1983
            ]
        }
        coordIndex [
            0,1,2,-1,2,1,3,-1,1,4,3,-1,3,4,5,-1,4,6,5,-1,5,6,7,-1,4,1,6,-1,6,1,0,-1,3,5,2,-1,2,5,7,-1,8,9,10,-1,10,9,11,-1,9,12,11,-1,11,12,13,-1,12,14,13,-1,13,14,15,-1,12,9,14,-1,14,9,8,-1,11,13,10,-1,10,13,15,-1,16,17,18,-1,18,17,19,-1,18,19,20,-1,18,21,16,-1,16,21,22,-1,16,22,23,-1,23,22,24,-1,24,25,23,-1,23,25,26,-1,23,26,27,-1,26,28,27,-1,27,28,29,-1,27,29,30,-1,19,17,31,-1,17,16,32,-1,16,23,33,-1,23,27,34,-1,27,30,35,-1,27,35,34,-1,34,35,36,-1,34,36,37,-1,37,36,38,-1,37,38,39,-1,39,38,40,-1,39,40,41,-1,41,40,42,-1,41,42,43,-1,43,42,44,-1,43,44,45,-1,45,44,46,-1,45,46,47,-1,23,34,33,-1,33,34,37,-1,33,37,48,-1,48,37,39,-1,48,39,49,-1,49,39,41,-1,49,41,50,-1,50,41,43,-1,50,43,51,-1,51,43,45,-1,51,45,52,-1,52,45,47,-1,52,47,53,-1,16,33,32,-1,32,33,48,-1,32,48,54,-1,54,48,49,-1,54,49,55,-1,55,49,50,-1,55,50,56,-1,56,50,51,-1,56,51,57,-1,57,51,52,-1,57,52,58,-1,58,52,53,-1,58,53,59,-1,17,32,31,-1,31,32,54,-1,31,54,60,-1,60,54,55,-1,60,55,61,-1,61,55,56,-1,61,56,62,-1,62,56,57,-1,62,57,63,-1,63,57,58,-1,63,58,64,-1,64,58,59,-1,64,59,65,-1,19,31,66,-1,66,31,60,-1,66,60,67,-1,67,60,61,-1,67,61,68,-1,68,61,62,-1,68,62,69,-1,69,62,63,-1,69,63,70,-1,70,63,64,-1,70,64,71,-1,71,64,65,-1,71,65,72,-1,73,74,75,-1,74,76,77,-1,78,79,80,-1,78,80,81,-1,81,80,82,-1,81,82,83,-1,83,82,84,-1,83,84,85,-1,85,84,86,-1,85,86,87,-1,87,86,88,-1,87,88,89,-1,89,88,90,-1,89,90,91,-1,90,29,28,-1,90,28,91,-1,91,28,26,-1,91,26,25,-1,25,92,91,-1,91,92,93,-1,91,93,89,-1,89,93,94,-1,89,94,87,-1,87,94,95,-1,87,95,85,-1,85,95,96,-1,85,96,83,-1,83,96,77,-1,83,77,81,-1,81,77,76,-1,81,76,78,-1,74,77,75,-1,75,77,96,-1,75,96,97,-1,97,96,95,-1,97,95,98,-1,98,95,94,-1,98,94,99,-1,99,94,93,-1,99,93,100,-1,100,93,92,-1,100,92,101,-1,25,24,92,-1,92,24,22,-1,92,22,101,-1,101,22,21,-1,101,21,18,-1,73,75,102,-1,102,75,97,-1,102,97,103,-1,103,97,98,-1,103,98,104,-1,104,98,99,-1,104,99,105,-1,105,99,100,-1,105,100,106,-1,106,100,101,-1,106,101,107,-1,107,101,18,-1,107,18,20,-1,108,72,65,-1,108,65,109,-1,109,65,59,-1,109,59,110,-1,110,59,53,-1,110,53,111,-1,111,53,47,-1,111,47,112,-1,112,47,46,-1,112,46,113,-1,73,114,115,-1,73,115,74,-1,74,115,116,-1,74,116,76,-1,76,116,117,-1,76,117,78,-1,78,117,118,-1,78,118,79,-1,108,109,119,-1,109,110,120,-1,110,111,121,-1,111,112,122,-1,112,113,123,-1,112,123,122,-1,122,123,124,-1,122,124,125,-1,125,124,126,-1,125,126,127,-1,127,126,128,-1,127,128,129,-1,129,128,130,-1,129,130,131,-1,131,130,132,-1,131,132,133,-1,133,132,134,-1,133,134,135,-1,111,122,121,-1,121,122,125,-1,121,125,136,-1,136,125,127,-1,136,127,137,-1,137,127,129,-1,137,129,138,-1,138,129,131,-1,138,131,139,-1,139,131,133,-1,139,133,140,-1,140,133,135,-1,140,135,141,-1,110,121,120,-1,120,121,136,-1,120,136,142,-1,142,136,137,-1,142,137,143,-1,143,137,138,-1,143,138,144,-1,144,138,139,-1,144,139,145,-1,145,139,140,-1,145,140,146,-1,146,140,141,-1,146,141,147,-1,109,120,119,-1,119,120,142,-1,119,142,148,-1,148,142,143,-1,148,143,149,-1,149,143,144,-1,149,144,150,-1,150,144,145,-1,150,145,151,-1,151,145,146,-1,151,146,152,-1,152,146,147,-1,152,147,153,-1,108,119,154,-1,154,119,148,-1,154,148,155,-1,155,148,149,-1,155,149,156,-1,156,149,150,-1,156,150,157,-1,157,150,151,-1,157,151,158,-1,158,151,152,-1,158,152,159,-1,159,152,153,-1,159,153,160,-1,161,162,163,-1,164,165,166,-1,166,165,161,-1,161,163,166,-1,166,163,167,-1,166,167,168,-1,168,167,169,-1,168,169,170,-1,170,169,171,-1,170,171,172,-1,172,171,173,-1,172,173,174,-1,174,173,175,-1,174,175,176,-1,176,175,118,-1,176,118,117,-1,177,178,179,-1,179,178,164,-1,164,166,179,-1,179,166,168,-1,179,168,180,-1,180,168,170,-1,180,170,181,-1,181,170,172,-1,181,172,182,-1,182,172,174,-1,182,174,183,-1,183,174,176,-1,183,176,184,-1,184,176,117,-1,184,117,116,-1,185,186,187,-1,187,186,177,-1,177,179,187,-1,187,179,180,-1,187,180,188,-1,188,180,181,-1,188,181,189,-1,189,181,182,-1,189,182,190,-1,190,182,183,-1,190,183,191,-1,191,183,184,-1,191,184,192,-1,192,184,116,-1,192,116,115,-1,193,194,185,-1,185,187,193,-1,193,187,188,-1,193,188,195,-1,195,188,189,-1,195,189,196,-1,196,189,190,-1,196,190,197,-1,197,190,191,-1,197,191,198,-1,198,191,192,-1,198,192,199,-1,199,192,115,-1,199,115,114,-1,160,153,194,-1,194,153,185,-1,185,153,186,-1,186,153,147,-1,186,147,177,-1,161,165,141,-1,141,165,164,-1,141,164,147,-1,147,164,178,-1,147,178,177,-1,141,135,161,-1,161,135,134,-1,161,134,162,-1,200,201,202,-1,202,201,203,-1,202,203,204,-1,204,203,205,-1,204,205,206,-1,206,205,207,-1,206,207,208,-1,208,207,209,-1,210,211,200,-1,200,211,212,-1,200,212,201,-1,213,214,210,-1,210,214,215,-1,210,215,211,-1,216,217,213,-1,213,217,218,-1,218,219,213,-1,213,219,220,-1,213,220,214,-1,221,222,223,-1,214,224,225,-1,226,227,225,-1,225,227,214,-1,223,222,214,-1,228,229,230,-1,231,232,233,-1,234,235,236,-1,237,238,239,-1,240,209,207,-1,241,242,240,-1,228,230,243,-1,244,245,246,-1,246,245,247,-1,246,247,248,-1,248,247,249,-1,249,247,250,-1,249,250,251,-1,252,253,254,-1,254,253,255,-1,254,255,256,-1,257,258,259,-1,259,258,226,-1,259,226,260,-1,226,261,260,-1,260,261,262,-1,260,262,263,-1,263,262,264,-1,263,264,265,-1,265,264,218,-1,265,218,217,-1,211,215,222,-1,222,215,214,-1,219,266,220,-1,220,266,214,-1,224,214,266,-1,221,201,222,-1,222,201,212,-1,222,212,211,-1,226,225,261,-1,261,225,224,-1,261,224,262,-1,262,224,266,-1,262,266,264,-1,264,266,219,-1,264,219,218,-1,214,267,223,-1,223,267,268,-1,223,268,221,-1,221,268,269,-1,221,269,201,-1,201,269,203,-1,257,256,258,-1,258,256,255,-1,258,255,226,-1,226,255,270,-1,226,270,227,-1,227,270,271,-1,227,271,214,-1,252,251,253,-1,253,251,250,-1,253,250,255,-1,255,250,272,-1,255,272,270,-1,270,272,273,-1,270,273,271,-1,271,273,274,-1,271,274,214,-1,240,207,241,-1,241,207,205,-1,241,205,275,-1,238,242,239,-1,239,242,241,-1,239,241,276,-1,276,241,275,-1,276,275,277,-1,235,237,236,-1,236,237,239,-1,236,239,278,-1,278,239,276,-1,278,276,279,-1,279,276,277,-1,279,277,280,-1,232,281,233,-1,233,281,234,-1,233,234,282,-1,282,234,236,-1,282,236,283,-1,283,236,278,-1,283,278,284,-1,284,278,279,-1,284,279,285,-1,285,279,280,-1,285,280,286,-1,286,287,285,-1,285,287,288,-1,285,288,284,-1,284,288,289,-1,284,289,283,-1,283,289,290,-1,283,290,282,-1,282,290,291,-1,282,291,233,-1,233,291,230,-1,233,230,231,-1,231,230,229,-1,244,243,245,-1,245,243,230,-1,245,230,247,-1,247,230,291,-1,247,291,250,-1,250,291,290,-1,250,290,272,-1,272,290,289,-1,272,289,273,-1,273,289,288,-1,273,288,274,-1,274,288,287,-1,274,287,214,-1,286,214,287,-1,205,203,275,-1,275,203,269,-1,275,269,277,-1,277,269,268,-1,277,268,280,-1,280,268,267,-1,280,267,286,-1,286,267,214,-1,238,292,242,-1,242,292,293,-1,242,293,240,-1,240,293,294,-1,240,294,209,-1,209,294,295,-1,234,281,296,-1,296,281,297,-1,234,296,235,-1,235,296,298,-1,235,298,237,-1,237,298,299,-1,237,299,238,-1,238,299,300,-1,238,300,292,-1,297,281,301,-1,301,281,232,-1,301,232,302,-1,302,232,231,-1,302,231,303,-1,303,231,229,-1,303,229,304,-1,229,228,304,-1,304,228,243,-1,304,243,305,-1,306,307,243,-1,306,243,308,-1,249,309,248,-1,248,309,310,-1,248,310,246,-1,246,310,308,-1,246,308,244,-1,244,308,243,-1,251,311,249,-1,249,311,312,-1,249,312,309,-1,251,252,311,-1,311,252,254,-1,311,254,313,-1,313,254,256,-1,313,256,314,-1,314,256,257,-1,314,257,315,-1,315,257,259,-1,315,259,316,-1,217,317,265,-1,265,317,318,-1,265,318,263,-1,263,318,316,-1,263,316,260,-1,260,316,259,-1,319,320,301,-1,301,302,319,-1,319,302,303,-1,319,303,321,-1,321,303,304,-1,321,304,305,-1,322,323,299,-1,299,298,322,-1,322,298,296,-1,322,296,320,-1,320,296,297,-1,320,297,301,-1,324,295,325,-1,325,295,294,-1,294,293,325,-1,325,293,292,-1,325,292,323,-1,323,292,300,-1,323,300,299,-1,326,327,306,-1,306,327,328,-1,306,328,307,-1,306,308,326,-1,326,308,310,-1,326,310,329,-1,310,309,329,-1,329,309,312,-1,329,312,330,-1,330,312,311,-1,311,313,330,-1,330,313,314,-1,330,314,331,-1,331,314,315,-1,331,315,332,-1,332,315,316,-1,332,316,333,-1,333,316,318,-1,333,318,334,-1,334,318,317,-1,334,317,335,-1,336,337,338,-1,339,340,341,-1,324,325,342,-1,341,340,324,-1,343,324,340,-1,343,340,344,-1,344,340,339,-1,344,339,345,-1,346,324,343,-1,347,348,349,-1,349,348,342,-1,349,342,350,-1,350,342,325,-1,350,325,323,-1,346,343,351,-1,351,343,344,-1,351,344,352,-1,352,344,345,-1,352,345,353,-1,354,347,355,-1,355,347,349,-1,355,349,356,-1,356,349,350,-1,356,350,357,-1,357,350,323,-1,357,323,322,-1,358,354,359,-1,359,354,355,-1,359,355,360,-1,360,355,356,-1,360,356,361,-1,361,356,357,-1,361,357,362,-1,362,357,322,-1,362,322,320,-1,337,358,338,-1,338,358,359,-1,338,359,363,-1,363,359,360,-1,363,360,364,-1,364,360,361,-1,364,361,365,-1,365,361,362,-1,365,362,366,-1,366,362,320,-1,366,320,319,-1,336,338,367,-1,367,338,363,-1,367,363,368,-1,368,363,364,-1,368,364,369,-1,369,364,365,-1,369,365,370,-1,370,365,366,-1,370,366,371,-1,371,366,319,-1,371,319,321,-1,348,324,342,-1,337,353,358,-1,358,353,345,-1,358,345,354,-1,354,345,339,-1,354,339,347,-1,347,339,341,-1,347,341,348,-1,348,341,324,-1,335,372,334,-1,334,372,333,-1,373,374,375,-1,375,374,376,-1,372,376,333,-1,333,376,374,-1,333,374,332,-1,332,374,377,-1,332,377,331,-1,331,377,378,-1,331,378,330,-1,378,379,330,-1,330,379,380,-1,330,380,329,-1,380,381,329,-1,329,381,382,-1,329,382,326,-1,382,383,326,-1,326,383,384,-1,326,384,327,-1,327,384,385,-1,385,386,327,-1,327,386,387,-1,327,387,328,-1,321,387,388,-1,321,388,371,-1,371,388,389,-1,371,389,370,-1,370,389,390,-1,370,390,369,-1,369,390,391,-1,369,391,368,-1,368,391,392,-1,368,392,367,-1,367,392,393,-1,367,393,336,-1,394,324,395,-1,395,324,346,-1,351,396,346,-1,346,396,397,-1,346,397,395,-1,398,399,351,-1,351,399,400,-1,351,400,396,-1,351,352,398,-1,398,352,353,-1,398,353,401,-1,401,353,337,-1,401,337,402,-1,402,337,336,-1,402,336,403,-1,374,373,404,-1,387,386,388,-1,388,386,405,-1,386,385,405,-1,405,385,384,-1,405,384,406,-1,384,383,406,-1,406,383,382,-1,406,382,407,-1,382,381,407,-1,407,381,380,-1,407,380,408,-1,392,391,409,-1,409,391,410,-1,409,410,411,-1,411,410,412,-1,411,412,413,-1,413,412,414,-1,413,414,415,-1,415,414,416,-1,415,416,417,-1,417,416,418,-1,417,418,373,-1,391,390,410,-1,410,390,419,-1,410,419,412,-1,412,419,420,-1,412,420,414,-1,414,420,421,-1,414,421,416,-1,416,421,422,-1,416,422,418,-1,418,422,423,-1,418,423,373,-1,393,392,424,-1,424,392,409,-1,424,409,425,-1,425,409,411,-1,425,411,426,-1,426,411,413,-1,426,413,427,-1,427,413,415,-1,427,415,428,-1,428,415,417,-1,428,417,373,-1,389,388,429,-1,429,388,405,-1,429,405,430,-1,430,405,406,-1,430,406,431,-1,431,406,407,-1,431,407,432,-1,432,407,408,-1,432,408,433,-1,433,408,404,-1,433,404,373,-1,380,379,408,-1,408,379,378,-1,408,378,404,-1,404,378,377,-1,404,377,374,-1,390,389,419,-1,419,389,429,-1,419,429,420,-1,420,429,430,-1,420,430,421,-1,421,430,431,-1,421,431,422,-1,422,431,432,-1,422,432,423,-1,423,432,433,-1,423,433,373,-1,434,394,395,-1,434,395,435,-1,435,395,397,-1,435,397,436,-1,436,397,437,-1,437,397,396,-1,437,396,438,-1,438,396,400,-1,438,400,439,-1,439,400,399,-1,439,399,440,-1,399,398,440,-1,440,398,401,-1,440,401,441,-1,441,401,402,-1,441,402,442,-1,442,402,403,-1,442,403,443,-1,426,441,425,-1,425,441,442,-1,425,442,424,-1,424,442,443,-1,424,443,393,-1,427,439,426,-1,426,439,440,-1,426,440,441,-1,428,437,427,-1,427,437,438,-1,427,438,439,-1,373,444,428,-1,428,444,445,-1,428,445,446,-1,446,447,428,-1,428,447,436,-1,428,436,437,-1,447,448,436,-1,436,448,449,-1,436,449,450,-1,450,451,436,-1,436,451,452,-1,436,452,435,-1,435,452,434,-1,453,454,455,-1,456,457,458,-1,458,457,453,-1,453,455,458,-1,458,455,459,-1,458,459,460,-1,460,459,461,-1,460,461,462,-1,462,461,463,-1,462,463,464,-1,464,463,465,-1,464,465,466,-1,466,465,467,-1,466,467,468,-1,468,467,469,-1,468,469,470,-1,471,472,473,-1,473,472,456,-1,456,458,473,-1,473,458,460,-1,473,460,474,-1,474,460,462,-1,474,462,475,-1,475,462,464,-1,475,464,476,-1,476,464,466,-1,476,466,477,-1,477,466,468,-1,477,468,478,-1,478,468,470,-1,478,470,479,-1,480,481,482,-1,482,481,471,-1,471,473,482,-1,482,473,474,-1,482,474,483,-1,483,474,475,-1,483,475,484,-1,484,475,476,-1,484,476,485,-1,485,476,477,-1,485,477,486,-1,486,477,478,-1,486,478,487,-1,487,478,479,-1,487,479,488,-1,489,490,480,-1,480,482,489,-1,489,482,483,-1,489,483,491,-1,491,483,484,-1,491,484,492,-1,492,484,485,-1,492,485,493,-1,493,485,486,-1,493,486,494,-1,494,486,487,-1,494,487,495,-1,495,487,488,-1,495,488,496,-1,497,496,488,-1,497,488,498,-1,498,488,479,-1,498,479,499,-1,499,479,470,-1,499,470,500,-1,500,470,469,-1,500,469,501,-1,502,503,490,-1,490,503,480,-1,480,503,481,-1,481,503,504,-1,481,504,471,-1,453,457,505,-1,505,457,456,-1,505,456,504,-1,504,456,472,-1,504,472,471,-1,505,506,453,-1,453,506,507,-1,453,507,454,-1,497,498,508,-1,498,499,509,-1,499,500,510,-1,500,501,511,-1,500,511,510,-1,510,511,512,-1,510,512,513,-1,513,512,514,-1,513,514,515,-1,515,514,516,-1,515,516,517,-1,517,516,518,-1,517,518,519,-1,519,518,520,-1,519,520,521,-1,521,520,522,-1,521,522,523,-1,499,510,509,-1,509,510,513,-1,509,513,524,-1,524,513,515,-1,524,515,525,-1,525,515,517,-1,525,517,526,-1,526,517,519,-1,526,519,527,-1,527,519,521,-1,527,521,528,-1,528,521,523,-1,528,523,529,-1,498,509,508,-1,508,509,524,-1,508,524,530,-1,530,524,525,-1,530,525,531,-1,531,525,526,-1,531,526,532,-1,532,526,527,-1,532,527,533,-1,533,527,528,-1,533,528,534,-1,534,528,529,-1,534,529,535,-1,497,508,536,-1,536,508,530,-1,536,530,537,-1,537,530,531,-1,537,531,538,-1,538,531,532,-1,538,532,539,-1,539,532,533,-1,539,533,540,-1,540,533,534,-1,540,534,541,-1,541,534,535,-1,541,535,542,-1,543,544,545,-1,544,546,547,-1,546,548,549,-1,548,550,551,-1,550,552,553,-1,550,553,551,-1,551,553,554,-1,551,554,555,-1,555,554,556,-1,555,556,557,-1,557,556,558,-1,557,558,559,-1,559,558,560,-1,559,560,561,-1,561,560,562,-1,561,562,563,-1,563,562,507,-1,563,507,506,-1,548,551,549,-1,549,551,555,-1,549,555,564,-1,564,555,557,-1,564,557,565,-1,565,557,559,-1,565,559,566,-1,566,559,561,-1,566,561,567,-1,567,561,563,-1,567,563,568,-1,568,563,506,-1,568,506,505,-1,546,549,547,-1,547,549,564,-1,547,564,569,-1,569,564,565,-1,569,565,570,-1,570,565,566,-1,570,566,571,-1,571,566,567,-1,571,567,572,-1,572,567,568,-1,572,568,573,-1,573,568,505,-1,573,505,504,-1,544,547,545,-1,545,547,569,-1,545,569,574,-1,574,569,570,-1,574,570,575,-1,575,570,571,-1,575,571,576,-1,576,571,572,-1,576,572,577,-1,577,572,573,-1,577,573,578,-1,578,573,504,-1,578,504,503,-1,543,545,579,-1,579,545,574,-1,579,574,580,-1,580,574,575,-1,580,575,581,-1,581,575,576,-1,581,576,582,-1,582,576,577,-1,582,577,583,-1,583,577,578,-1,583,578,584,-1,584,578,503,-1,584,503,502,-1,585,586,542,-1,585,542,587,-1,587,542,535,-1,587,535,588,-1,588,535,589,-1,589,535,529,-1,589,529,590,-1,590,529,523,-1,590,523,591,-1,591,523,592,-1,592,523,522,-1,592,522,593,-1,543,594,595,-1,543,595,544,-1,544,595,596,-1,544,596,546,-1,546,596,597,-1,546,597,548,-1,548,597,598,-1,548,598,550,-1,550,598,599,-1,550,599,552,-1,591,592,600,-1,592,593,601,-1,592,601,600,-1,600,601,602,-1,600,602,603,-1,603,602,604,-1,603,604,605,-1,605,604,606,-1,605,606,607,-1,607,606,608,-1,607,608,609,-1,609,608,610,-1,609,610,611,-1,611,610,599,-1,611,599,598,-1,589,590,612,-1,612,590,591,-1,591,600,612,-1,612,600,603,-1,612,603,613,-1,613,603,605,-1,613,605,614,-1,614,605,607,-1,614,607,615,-1,615,607,609,-1,615,609,616,-1,616,609,611,-1,616,611,617,-1,617,611,598,-1,617,598,597,-1,587,588,618,-1,618,588,589,-1,589,612,618,-1,618,612,613,-1,618,613,619,-1,619,613,614,-1,619,614,620,-1,620,614,615,-1,620,615,621,-1,621,615,616,-1,621,616,622,-1,622,616,617,-1,622,617,623,-1,623,617,597,-1,623,597,596,-1,586,585,624,-1,624,585,587,-1,587,618,624,-1,624,618,619,-1,624,619,625,-1,625,619,620,-1,625,620,626,-1,626,620,621,-1,626,621,627,-1,627,621,622,-1,627,622,628,-1,628,622,623,-1,628,623,629,-1,629,623,596,-1,629,596,595,-1,586,624,630,-1,630,624,625,-1,630,625,631,-1,631,625,626,-1,631,626,632,-1,632,626,627,-1,632,627,633,-1,633,627,628,-1,633,628,634,-1,634,628,629,-1,634,629,635,-1,635,629,595,-1,635,595,594,-1,636,637,638,-1,638,637,639,-1,
        ]
    }
}